<svg width="187" height="242" viewBox="0 0 187 242" fill="none" xmlns="http://www.w3.org/2000/svg">
<rect x="0.5" y="0.5" width="186" height="241" rx="7.5" stroke="#E4E4E7"/>
<g clip-path="url(#clip0_21834_190452)">
<rect x="18.5" y="49.8906" width="134.741" height="33.7412" rx="3.62353" fill="#A9C4FF"/>
<path fill-rule="evenodd" clip-rule="evenodd" d="M29.1487 57.8462C28.3711 58.3899 27.6679 59.0328 27.0575 59.7564C29.5519 59.5248 32.721 59.903 36.4002 61.7426C40.3292 63.7071 43.493 63.7735 45.6948 63.3488C45.495 62.7439 45.2435 62.1625 44.9456 61.6099C42.4251 61.8757 39.1938 61.5238 35.428 59.641C33.0367 58.4453 30.9287 57.9528 29.1487 57.8462ZM43.4732 59.5141C41.4827 57.2902 38.5901 55.8906 35.3706 55.8906C34.4251 55.8906 33.5077 56.0113 32.6332 56.2382C33.8177 56.5614 35.0759 57.0342 36.4002 57.6964C39.1574 59.0749 41.5377 59.5188 43.4732 59.5141ZM46.1656 65.472C43.5055 65.9973 39.8323 65.8894 35.428 63.6872C31.3104 61.6284 28.0332 61.6544 25.8229 62.1456C25.7088 62.1709 25.5974 62.1975 25.4887 62.2252C25.1993 62.8546 24.9683 63.5164 24.8026 64.2036C24.9796 64.1563 25.1625 64.1114 25.3513 64.0694C28.0327 63.4736 31.8214 63.4994 36.4002 65.7889C40.5179 67.8477 43.7951 67.8217 46.0054 67.3306C46.0811 67.3138 46.1557 67.2964 46.2291 67.2784C46.2372 67.1071 46.2412 66.9346 46.2412 66.7612C46.2412 66.325 46.2155 65.8948 46.1656 65.472ZM45.8742 69.5725C43.24 70.033 39.6737 69.8563 35.428 67.7335C31.3104 65.6747 28.0332 65.7006 25.8229 66.1918C25.3323 66.3008 24.8909 66.4336 24.5016 66.5737C24.5005 66.6361 24.5 66.6986 24.5 66.7612C24.5 72.7649 29.3669 77.6318 35.3706 77.6318C40.4021 77.6318 44.6352 74.2135 45.8742 69.5725Z" fill="#709DFF"/>
<path d="M56.6137 70.2612H53.1487V62.7847H56.5621C57.3012 62.7847 57.9011 62.9737 58.3617 63.3519C58.8223 63.7265 59.0526 64.2129 59.0526 64.8111C59.0526 65.1651 58.9512 65.4848 58.7484 65.7701C58.549 66.0554 58.2946 66.2497 57.9853 66.3528V66.4611C58.3565 66.5676 58.6625 66.7808 58.9031 67.1004C59.1437 67.4201 59.264 67.7811 59.264 68.1833C59.264 68.7951 59.0165 69.2953 58.5215 69.6837C58.03 70.0687 57.394 70.2612 56.6137 70.2612ZM54.479 63.8623V65.9197H56.3507C56.7529 65.9197 57.0795 65.8251 57.3304 65.6361C57.5848 65.447 57.712 65.2012 57.712 64.8987C57.712 64.5962 57.5848 64.3487 57.3304 64.1562C57.0795 63.9603 56.7529 63.8623 56.3507 63.8623H54.479ZM54.479 66.9458V69.1836H56.3817C56.8286 69.1836 57.1964 69.077 57.4851 68.8639C57.7773 68.6508 57.9234 68.3809 57.9234 68.0544C57.9234 67.7312 57.7773 67.4665 57.4851 67.2603C57.1964 67.0506 56.8286 66.9458 56.3817 66.9458H54.479ZM61.11 64.0015C60.8831 64.0015 60.6975 63.9294 60.5531 63.785C60.4121 63.6406 60.3417 63.455 60.3417 63.2281C60.3417 63.0047 60.4121 62.8225 60.5531 62.6815C60.6975 62.5406 60.8831 62.4701 61.11 62.4701C61.3403 62.4701 61.5276 62.5406 61.672 62.6815C61.8198 62.8225 61.8937 63.0047 61.8937 63.2281C61.8937 63.455 61.8198 63.6406 61.672 63.785C61.5276 63.9294 61.3403 64.0015 61.11 64.0015ZM61.7132 70.2612H60.5221V64.8987H61.7132V70.2612ZM64.8895 70.2612H63.6932V65.7959H62.8734V64.8987H63.6932V64.0222C63.6932 63.4997 63.8376 63.0769 64.1264 62.7537C64.4151 62.4306 64.7932 62.269 65.2607 62.269C65.5564 62.269 65.8623 62.3206 66.1786 62.4237V63.4086C65.9517 63.3433 65.7678 63.3106 65.6268 63.3106C65.4068 63.3106 65.2281 63.3828 65.0906 63.5272C64.9565 63.6715 64.8895 63.8606 64.8895 64.0944V64.8987H66.1786V65.7959H64.8895V70.2612ZM68.602 70.2612H67.4057V65.7959H66.5859V64.8987H67.4057V64.0222C67.4057 63.4997 67.5501 63.0769 67.8389 62.7537C68.1276 62.4306 68.5057 62.269 68.9732 62.269C69.2689 62.269 69.5748 62.3206 69.8911 62.4237V63.4086C69.6642 63.3433 69.4803 63.3106 69.3393 63.3106C69.1193 63.3106 68.9406 63.3828 68.8031 63.5272C68.669 63.6715 68.602 63.8606 68.602 64.0944V64.8987H69.8911V65.7959H68.602V70.2612ZM73.2942 70.452C72.4623 70.452 71.78 70.1856 71.2471 69.6528C70.7178 69.1165 70.4531 68.4256 70.4531 67.58C70.4531 66.7309 70.7178 66.0383 71.2471 65.502C71.78 64.9658 72.4623 64.6976 73.2942 64.6976C73.9851 64.6976 74.5798 64.8867 75.0782 65.2648C75.5801 65.6429 75.8792 66.1294 75.9754 66.724L74.8359 66.8736C74.75 66.5367 74.5643 66.2617 74.279 66.0486C73.9937 65.8354 73.6689 65.7289 73.3045 65.7289C72.8301 65.7289 72.4348 65.9025 72.1186 66.2497C71.8057 66.5969 71.6493 67.0403 71.6493 67.58C71.6493 68.1197 71.8057 68.5631 72.1186 68.9103C72.4314 69.254 72.8267 69.4259 73.3045 69.4259C73.6723 69.4259 73.9971 69.3211 74.279 69.1114C74.5609 68.9017 74.75 68.6267 74.8462 68.2864L75.9857 68.4359C75.8757 69.0306 75.5681 69.5153 75.0628 69.89C74.5609 70.2647 73.9714 70.452 73.2942 70.452ZM81.967 69.6579C81.4239 70.1873 80.7192 70.452 79.8529 70.452C78.9867 70.452 78.282 70.1873 77.7389 69.6579C77.1992 69.1286 76.9293 68.4359 76.9293 67.58C76.9293 66.724 77.1992 66.0297 77.7389 65.4969C78.2786 64.964 78.9832 64.6976 79.8529 64.6976C80.7157 64.6976 81.4187 64.9658 81.9618 65.502C82.5084 66.0348 82.7817 66.7275 82.7817 67.58C82.7817 68.4359 82.5101 69.1286 81.967 69.6579ZM79.8529 69.4053C80.3582 69.4053 80.7725 69.2351 81.0956 68.8948C81.4221 68.5511 81.5854 68.1128 81.5854 67.58C81.5854 67.0472 81.4221 66.6072 81.0956 66.26C80.769 65.9128 80.3548 65.7392 79.8529 65.7392C79.3476 65.7392 78.9317 65.9128 78.6051 66.26C78.282 66.6037 78.1204 67.0437 78.1204 67.58C78.1204 68.1128 78.282 68.5511 78.6051 68.8948C78.9282 69.2351 79.3442 69.4053 79.8529 69.4053ZM92.1661 70.2612H86.7571V62.7847H92.0578V63.8933H88.0771V65.8887H91.6917V66.9354H88.0771V69.1423H92.1661V70.2612ZM94.5482 70.2612H93.352V64.8987H94.5482V65.6154H94.6514C95.0467 65.0173 95.5864 64.7183 96.2704 64.7183C96.9132 64.7183 97.4323 64.9331 97.8276 65.3628C98.2229 65.789 98.4206 66.3373 98.4206 67.0076V70.2612H97.2192V67.1056C97.2192 66.7069 97.1092 66.3837 96.8892 66.1362C96.6692 65.8887 96.3667 65.765 95.9817 65.765C95.5864 65.765 95.2478 65.9008 94.9659 66.1723C94.6875 66.4404 94.5482 66.7756 94.5482 67.1778V70.2612ZM101.829 70.452C101.341 70.452 100.949 70.2956 100.653 69.9828C100.358 69.6665 100.21 69.2489 100.21 68.7298V65.7959H99.4003V64.8987H100.23L100.488 63.1662H101.416L101.406 64.8987H102.716V65.7959H101.406V68.6783C101.406 68.9189 101.475 69.1148 101.612 69.2661C101.753 69.4139 101.944 69.4878 102.185 69.4878C102.377 69.4878 102.575 69.4603 102.778 69.4053V70.3025C102.485 70.4022 102.169 70.452 101.829 70.452ZM106.449 70.452C105.593 70.452 104.892 70.1787 104.345 69.6322C103.799 69.0822 103.525 68.3775 103.525 67.5181C103.525 66.6965 103.795 66.0211 104.335 65.4917C104.878 64.9623 105.569 64.6976 106.408 64.6976C107.243 64.6976 107.927 64.9623 108.46 65.4917C108.993 66.0211 109.259 66.7 109.259 67.5284C109.259 67.7209 109.256 67.8601 109.249 67.9461H104.763C104.828 68.4136 105.015 68.7865 105.325 69.065C105.638 69.34 106.028 69.4775 106.495 69.4775C106.842 69.4775 107.154 69.3984 107.429 69.2403C107.707 69.0822 107.92 68.8656 108.068 68.5906L109.068 68.9722C108.872 69.4362 108.541 69.7989 108.073 70.0601C107.609 70.3214 107.068 70.452 106.449 70.452ZM104.763 67.0592H108.027C107.958 66.6433 107.772 66.3081 107.47 66.0537C107.171 65.7959 106.806 65.667 106.377 65.667C105.957 65.667 105.602 65.7942 105.309 66.0486C105.021 66.3029 104.838 66.6398 104.763 67.0592ZM111.636 70.2612H110.44V64.8987H111.615V65.6051H111.719C111.839 65.3645 112.026 65.1686 112.281 65.0173C112.538 64.8661 112.812 64.7904 113.1 64.7904C113.358 64.7904 113.57 64.8334 113.735 64.9194V66.0073C113.453 65.8939 113.174 65.8372 112.899 65.8372C112.525 65.8372 112.22 65.985 111.987 66.2806C111.753 66.5762 111.636 66.9629 111.636 67.4408V70.2612ZM117.844 64.6976C118.611 64.6976 119.25 64.9692 119.762 65.5123C120.274 66.052 120.531 66.7412 120.531 67.58C120.531 68.4153 120.276 69.1028 119.767 69.6425C119.259 70.1822 118.621 70.452 117.854 70.452C117.456 70.452 117.098 70.3747 116.782 70.22C116.469 70.0653 116.218 69.8436 116.029 69.5548H115.926V72.6898H114.719V64.8987H115.926V65.6258H116.029C116.428 65.007 117.033 64.6976 117.844 64.6976ZM117.602 65.7392C117.103 65.7392 116.689 65.9162 116.359 66.2703C116.033 66.6209 115.869 67.0575 115.869 67.58C115.869 68.0956 116.033 68.5287 116.359 68.8794C116.689 69.23 117.103 69.4053 117.602 69.4053C118.1 69.4053 118.511 69.2317 118.834 68.8845C119.161 68.5339 119.324 68.099 119.324 67.58C119.324 67.054 119.161 66.6158 118.834 66.2651C118.508 65.9145 118.097 65.7392 117.602 65.7392ZM122.908 70.2612H121.711V64.8987H122.887V65.6051H122.99C123.11 65.3645 123.298 65.1686 123.552 65.0173C123.81 64.8661 124.083 64.7904 124.372 64.7904C124.63 64.7904 124.841 64.8334 125.006 64.9194V66.0073C124.724 65.8939 124.446 65.8372 124.171 65.8372C123.796 65.8372 123.492 65.985 123.258 66.2806C123.024 66.5762 122.908 66.9629 122.908 67.4408V70.2612ZM126.667 64.0015C126.44 64.0015 126.254 63.9294 126.11 63.785C125.969 63.6406 125.898 63.455 125.898 63.2281C125.898 63.0047 125.969 62.8225 126.11 62.6815C126.254 62.5406 126.44 62.4701 126.667 62.4701C126.897 62.4701 127.084 62.5406 127.229 62.6815C127.376 62.8225 127.45 63.0047 127.45 63.2281C127.45 63.455 127.376 63.6406 127.229 63.785C127.084 63.9294 126.897 64.0015 126.667 64.0015ZM127.27 70.2612H126.079V64.8987H127.27V70.2612ZM131.06 70.4623C130.272 70.4623 129.659 70.2853 129.219 69.9312C128.782 69.5772 128.564 69.0822 128.564 68.4462H129.662C129.669 68.7865 129.798 69.0598 130.049 69.2661C130.303 69.4723 130.651 69.5754 131.091 69.5754C131.448 69.5754 131.73 69.505 131.936 69.364C132.146 69.2231 132.251 69.0323 132.251 68.7917C132.251 68.6508 132.22 68.5356 132.158 68.4462C132.099 68.3569 131.991 68.2864 131.833 68.2348C131.675 68.1833 131.543 68.1489 131.436 68.1317C131.333 68.1111 131.156 68.087 130.905 68.0595C130.898 68.0595 130.891 68.0595 130.884 68.0595C130.881 68.0561 130.876 68.0544 130.869 68.0544C130.704 68.0372 130.558 68.02 130.431 68.0028C130.303 67.9822 130.157 67.9529 129.992 67.9151C129.831 67.8773 129.69 67.8344 129.569 67.7862C129.453 67.7347 129.332 67.6676 129.209 67.5851C129.085 67.5026 128.983 67.4098 128.904 67.3067C128.829 67.2036 128.765 67.0781 128.714 66.9303C128.665 66.7825 128.641 66.6192 128.641 66.4404C128.641 65.9008 128.848 65.4745 129.26 65.1617C129.676 64.8454 130.226 64.6873 130.91 64.6873C131.608 64.6873 132.175 64.854 132.612 65.1875C133.048 65.5175 133.267 65.9592 133.267 66.5126H132.137C132.134 66.2273 132.019 66.0022 131.792 65.8372C131.565 65.6687 131.268 65.5845 130.9 65.5845C130.559 65.5845 130.284 65.655 130.075 65.7959C129.865 65.9369 129.76 66.1259 129.76 66.3631C129.76 66.4937 129.788 66.602 129.843 66.6879C129.901 66.7704 130.008 66.8375 130.162 66.889C130.321 66.9372 130.446 66.9698 130.539 66.987C130.632 67.0042 130.804 67.0265 131.054 67.054C131.127 67.0644 131.18 67.0712 131.214 67.0747C131.379 67.0953 131.525 67.1159 131.653 67.1365C131.783 67.1572 131.928 67.1881 132.086 67.2294C132.244 67.2706 132.381 67.3187 132.498 67.3737C132.615 67.4253 132.734 67.4923 132.854 67.5748C132.974 67.6573 133.072 67.7519 133.148 67.8584C133.224 67.965 133.284 68.0922 133.328 68.24C133.377 68.3878 133.401 68.5511 133.401 68.7298C133.401 69.2764 133.194 69.7026 132.782 70.0086C132.369 70.3111 131.795 70.4623 131.06 70.4623ZM137.294 70.452C136.438 70.452 135.736 70.1787 135.19 69.6322C134.643 69.0822 134.37 68.3775 134.37 67.5181C134.37 66.6965 134.64 66.0211 135.179 65.4917C135.723 64.9623 136.414 64.6976 137.252 64.6976C138.088 64.6976 138.772 64.9623 139.304 65.4917C139.837 66.0211 140.104 66.7 140.104 67.5284C140.104 67.7209 140.1 67.8601 140.093 67.9461H135.607C135.673 68.4136 135.86 68.7865 136.169 69.065C136.482 69.34 136.872 69.4775 137.34 69.4775C137.687 69.4775 137.998 69.3984 138.273 69.2403C138.552 69.0822 138.765 68.8656 138.913 68.5906L139.913 68.9722C139.717 69.4362 139.385 69.7989 138.918 70.0601C138.454 70.3214 137.912 70.452 137.294 70.452ZM135.607 67.0592H138.871C138.803 66.6433 138.617 66.3081 138.314 66.0537C138.015 65.7959 137.651 65.667 137.221 65.667C136.802 65.667 136.446 65.7942 136.154 66.0486C135.865 66.3029 135.683 66.6398 135.607 67.0592ZM143.569 70.4623C142.782 70.4623 142.168 70.2853 141.728 69.9312C141.291 69.5772 141.073 69.0822 141.073 68.4462H142.171C142.178 68.7865 142.307 69.0598 142.558 69.2661C142.812 69.4723 143.16 69.5754 143.6 69.5754C143.957 69.5754 144.239 69.505 144.445 69.364C144.655 69.2231 144.76 69.0323 144.76 68.7917C144.76 68.6508 144.729 68.5356 144.667 68.4462C144.609 68.3569 144.5 68.2864 144.342 68.2348C144.184 68.1833 144.052 68.1489 143.945 68.1317C143.842 68.1111 143.665 68.087 143.414 68.0595C143.407 68.0595 143.4 68.0595 143.393 68.0595C143.39 68.0561 143.385 68.0544 143.378 68.0544C143.213 68.0372 143.067 68.02 142.94 68.0028C142.812 67.9822 142.666 67.9529 142.501 67.9151C142.34 67.8773 142.199 67.8344 142.079 67.7862C141.962 67.7347 141.841 67.6676 141.718 67.5851C141.594 67.5026 141.492 67.4098 141.413 67.3067C141.338 67.2036 141.274 67.0781 141.223 66.9303C141.174 66.7825 141.15 66.6192 141.15 66.4404C141.15 65.9008 141.357 65.4745 141.769 65.1617C142.185 64.8454 142.735 64.6873 143.419 64.6873C144.117 64.6873 144.684 64.854 145.121 65.1875C145.557 65.5175 145.776 65.9592 145.776 66.5126H144.646C144.643 66.2273 144.528 66.0022 144.301 65.8372C144.074 65.6687 143.777 65.5845 143.409 65.5845C143.069 65.5845 142.794 65.655 142.584 65.7959C142.374 65.9369 142.269 66.1259 142.269 66.3631C142.269 66.4937 142.297 66.602 142.352 66.6879C142.41 66.7704 142.517 66.8375 142.672 66.889C142.83 66.9372 142.955 66.9698 143.048 66.987C143.141 67.0042 143.313 67.0265 143.564 67.054C143.636 67.0644 143.689 67.0712 143.723 67.0747C143.888 67.0953 144.034 67.1159 144.162 67.1365C144.292 67.1572 144.437 67.1881 144.595 67.2294C144.753 67.2706 144.89 67.3187 145.007 67.3737C145.124 67.4253 145.243 67.4923 145.363 67.5748C145.483 67.6573 145.581 67.7519 145.657 67.8584C145.733 67.965 145.793 68.0922 145.837 68.24C145.886 68.3878 145.91 68.5511 145.91 68.7298C145.91 69.2764 145.703 69.7026 145.291 70.0086C144.878 70.3111 144.304 70.4623 143.569 70.4623Z" fill="#709DFF"/>
<rect x="32.9941" y="73.6318" width="128" height="33.7411" rx="3.62353" fill="#C6D7FF"/>
<path fill-rule="evenodd" clip-rule="evenodd" d="M49.8647 101.373C55.8684 101.373 60.7353 96.5061 60.7353 90.5024C60.7353 84.4988 55.8684 79.6318 49.8647 79.6318C43.8611 79.6318 38.9941 84.4988 38.9941 90.5024C38.9941 96.5061 43.8611 101.373 49.8647 101.373ZM53.256 84.6958C53.421 84.1095 52.852 83.7627 52.3324 84.133L45.0779 89.301C44.5143 89.7025 44.603 90.5024 45.2111 90.5024H47.1214V90.4876H50.8444L47.8108 91.558L46.4735 96.309C46.3084 96.8954 46.8774 97.2421 47.3971 96.8719L54.6515 91.7039C55.2151 91.3024 55.1264 90.5024 54.5184 90.5024H51.6215L53.256 84.6958Z" fill="#8DB0FF"/>
<path d="M71.1079 94.0024H67.6429V86.5259H71.0563C71.7954 86.5259 72.3952 86.7149 72.8558 87.0931C73.3164 87.4678 73.5468 87.9542 73.5468 88.5523C73.5468 88.9063 73.4454 89.226 73.2425 89.5113C73.0432 89.7967 72.7888 89.9909 72.4794 90.094V90.2023C72.8507 90.3088 73.1566 90.522 73.3972 90.8417C73.6379 91.1613 73.7582 91.5223 73.7582 91.9245C73.7582 92.5363 73.5107 93.0365 73.0157 93.4249C72.5241 93.8099 71.8882 94.0024 71.1079 94.0024ZM68.9732 87.6035V89.6609H70.8449C71.2471 89.6609 71.5736 89.5663 71.8246 89.3773C72.0789 89.1882 72.2061 88.9424 72.2061 88.6399C72.2061 88.3374 72.0789 88.0899 71.8246 87.8974C71.5736 87.7015 71.2471 87.6035 70.8449 87.6035H68.9732ZM68.9732 90.687V92.9248H70.8758C71.3227 92.9248 71.6905 92.8182 71.9793 92.6051C72.2714 92.392 72.4175 92.1221 72.4175 91.7956C72.4175 91.4724 72.2714 91.2078 71.9793 91.0015C71.6905 90.7918 71.3227 90.687 70.8758 90.687H68.9732ZM76.46 94.152C75.8825 94.152 75.4185 94.0128 75.0679 93.7343C74.7207 93.4524 74.5471 93.0778 74.5471 92.6103C74.5471 92.1153 74.7568 91.7079 75.1761 91.3882C75.5955 91.0685 76.2074 90.8623 77.0118 90.7695L78.3421 90.6251V90.4137C78.3421 90.1009 78.2338 89.8517 78.0172 89.666C77.8041 89.4804 77.5102 89.3876 77.1355 89.3876C76.7814 89.3876 76.4996 89.4718 76.2899 89.6403C76.0836 89.8087 75.9822 90.0407 75.9857 90.3363H74.8049C74.8049 89.7554 75.0163 89.2948 75.4391 88.9545C75.8654 88.6107 76.4343 88.4388 77.1458 88.4388C77.878 88.4388 78.4589 88.6193 78.8886 88.9803C79.3183 89.3412 79.5332 89.8293 79.5332 90.4446V94.0024H78.3421V93.2754H78.2441C77.8729 93.8598 77.2782 94.152 76.46 94.152ZM76.7591 93.2754C77.2266 93.2754 77.6064 93.1465 77.8986 92.8887C78.1943 92.6274 78.3421 92.2974 78.3421 91.8987V91.481L77.0324 91.6254C76.5855 91.6735 76.2555 91.7801 76.0424 91.9451C75.8293 92.1101 75.7227 92.3095 75.7227 92.5432C75.7227 92.7701 75.8138 92.9488 75.996 93.0795C76.1816 93.2101 76.436 93.2754 76.7591 93.2754ZM82.0649 94.0024H80.8686V88.6399H82.0443V89.3463H82.1474C82.2677 89.1057 82.455 88.9098 82.7094 88.7585C82.9672 88.6073 83.2405 88.5317 83.5293 88.5317C83.7871 88.5317 83.9985 88.5746 84.1635 88.6606V89.7485C83.8816 89.6351 83.6032 89.5784 83.3282 89.5784C82.9535 89.5784 82.6493 89.7262 82.4155 90.0218C82.1818 90.3174 82.0649 90.7042 82.0649 91.182V94.0024ZM89.7477 93.3992C89.2046 93.9285 88.4999 94.1932 87.6336 94.1932C86.7674 94.1932 86.0627 93.9285 85.5196 93.3992C84.9799 92.8698 84.71 92.1771 84.71 91.3212C84.71 90.4653 84.9799 89.7709 85.5196 89.2381C86.0593 88.7053 86.7639 88.4388 87.6336 88.4388C88.4964 88.4388 89.1994 88.707 89.7425 89.2432C90.2891 89.776 90.5624 90.4687 90.5624 91.3212C90.5624 92.1771 90.2908 92.8698 89.7477 93.3992ZM87.6336 93.1465C88.1389 93.1465 88.5532 92.9763 88.8763 92.636C89.2029 92.2923 89.3661 91.854 89.3661 91.3212C89.3661 90.7884 89.2029 90.3484 88.8763 90.0012C88.5497 89.654 88.1355 89.4804 87.6336 89.4804C87.1283 89.4804 86.7124 89.654 86.3858 90.0012C86.0627 90.3449 85.9011 90.7849 85.9011 91.3212C85.9011 91.854 86.0627 92.2923 86.3858 92.636C86.7089 92.9763 87.1249 93.1465 87.6336 93.1465ZM92.9239 94.0024H91.7277V88.6399H92.9239V89.3567H93.0271C93.4224 88.7585 93.9621 88.4595 94.6461 88.4595C95.2889 88.4595 95.808 88.6743 96.2033 89.104C96.5986 89.5303 96.7963 90.0785 96.7963 90.7488V94.0024H95.5949V90.8468C95.5949 90.4481 95.4849 90.1249 95.2649 89.8774C95.0449 89.6299 94.7424 89.5062 94.3574 89.5062C93.9621 89.5062 93.6235 89.642 93.3416 89.9135C93.0632 90.1817 92.9239 90.5168 92.9239 90.919V94.0024ZM100.803 94.1932C99.9468 94.1932 99.2455 93.9199 98.6989 93.3734C98.1524 92.8234 97.8791 92.1187 97.8791 91.2593C97.8791 90.4378 98.1489 89.7623 98.6886 89.2329C99.2318 88.7035 99.9227 88.4388 100.761 88.4388C101.597 88.4388 102.281 88.7035 102.814 89.2329C103.346 89.7623 103.613 90.4412 103.613 91.2696C103.613 91.4621 103.609 91.6013 103.603 91.6873H99.1166C99.1819 92.1548 99.3693 92.5278 99.6786 92.8062C99.9914 93.0812 100.382 93.2187 100.849 93.2187C101.196 93.2187 101.507 93.1396 101.782 92.9815C102.061 92.8234 102.274 92.6068 102.422 92.3318L103.422 92.7134C103.226 93.1774 102.894 93.5401 102.427 93.8013C101.963 94.0626 101.421 94.1932 100.803 94.1932ZM99.1166 90.8004H102.381C102.312 90.3845 102.126 90.0493 101.824 89.7949C101.525 89.5371 101.16 89.4082 100.731 89.4082C100.311 89.4082 99.9553 89.5354 99.6632 89.7898C99.3744 90.0442 99.1922 90.381 99.1166 90.8004ZM112.523 94.0024H107.604V86.5259H108.934V92.8526H112.523V94.0024ZM118.648 94.0024H113.729V86.5259H115.06V92.8526H118.648V94.0024ZM122.959 94.2345C122.206 94.2345 121.531 94.066 120.933 93.7292C120.338 93.3923 119.872 92.9213 119.535 92.3163C119.198 91.7113 119.03 91.0273 119.03 90.2642C119.03 89.501 119.197 88.817 119.53 88.212C119.867 87.6035 120.333 87.1309 120.928 86.794C121.526 86.4537 122.199 86.2835 122.949 86.2835C123.829 86.2835 124.607 86.5448 125.285 87.0673C125.965 87.5898 126.393 88.2549 126.568 89.0628L125.295 89.2174C125.175 88.6949 124.894 88.2635 124.454 87.9232C124.014 87.5829 123.519 87.4128 122.969 87.4128C122.21 87.4128 121.584 87.6809 121.093 88.2171C120.604 88.7499 120.36 89.4323 120.36 90.2642C120.364 91.0926 120.61 91.7732 121.098 92.306C121.589 92.8388 122.213 93.1053 122.969 93.1053C123.509 93.1053 123.999 92.942 124.439 92.6154C124.879 92.2888 125.168 91.8746 125.305 91.3728L126.558 91.5738C126.397 92.3473 125.977 92.9849 125.3 93.4868C124.623 93.9853 123.843 94.2345 122.959 94.2345ZM127.945 94.1313C127.732 94.1313 127.557 94.0643 127.419 93.9303C127.285 93.7928 127.218 93.6192 127.218 93.4095C127.218 93.1998 127.285 93.0279 127.419 92.8938C127.557 92.7598 127.732 92.6928 127.945 92.6928C128.162 92.6928 128.339 92.7598 128.476 92.8938C128.617 93.0279 128.688 93.1998 128.688 93.4095C128.688 93.6192 128.617 93.7928 128.476 93.9303C128.339 94.0643 128.162 94.1313 127.945 94.1313Z" fill="#8DB0FF"/>
<rect x="47.4883" y="97.373" width="121" height="33.7412" rx="3.62353" fill="#EFF4FF"/>
<path fill-rule="evenodd" clip-rule="evenodd" d="M64.3589 125.114C70.3626 125.114 75.2295 120.247 75.2295 114.244C75.2295 108.24 70.3626 103.373 64.3589 103.373C58.3552 103.373 53.4883 108.24 53.4883 114.244C53.4883 120.247 58.3552 125.114 64.3589 125.114ZM66.0367 111.772C66.9633 110.845 66.9633 109.343 66.0367 108.416C65.1101 107.49 63.6077 107.49 62.681 108.416C61.7544 109.343 61.7544 110.845 62.681 111.772L64.3589 113.45L66.0367 111.772ZM66.8306 115.922C67.7572 116.848 69.2596 116.848 70.1863 115.922C71.1129 114.995 71.1129 113.492 70.1863 112.566C69.2596 111.639 67.7572 111.639 66.8306 112.566L65.1527 114.244L66.8306 115.922ZM66.0367 120.071C66.9633 119.144 66.9633 117.642 66.0367 116.715L64.3589 115.038L62.681 116.715C61.7544 117.642 61.7544 119.144 62.681 120.071C63.6077 120.998 65.1101 120.998 66.0367 120.071ZM58.5315 115.922C57.6049 114.995 57.6049 113.492 58.5315 112.566C59.4582 111.639 60.9605 111.639 61.8872 112.566L63.565 114.244L61.8872 115.922C60.9605 116.848 59.4582 116.848 58.5315 115.922Z" fill="#A9C4FF"/>
<path d="M85.602 117.744H82.137V110.267H85.5504C86.2895 110.267 86.8893 110.456 87.35 110.834C87.8106 111.209 88.0409 111.695 88.0409 112.293C88.0409 112.648 87.9395 112.967 87.7367 113.253C87.5373 113.538 87.2829 113.732 86.9736 113.835V113.943C87.3448 114.05 87.6507 114.263 87.8914 114.583C88.132 114.903 88.2523 115.263 88.2523 115.666C88.2523 116.278 88.0048 116.778 87.5098 117.166C87.0182 117.551 86.3823 117.744 85.602 117.744ZM83.4673 111.345V113.402H85.339C85.7412 113.402 86.0678 113.308 86.3187 113.118C86.5731 112.929 86.7003 112.684 86.7003 112.381C86.7003 112.079 86.5731 111.831 86.3187 111.639C86.0678 111.443 85.7412 111.345 85.339 111.345H83.4673ZM83.4673 114.428V116.666H85.37C85.8168 116.666 86.1846 116.559 86.4734 116.346C86.7656 116.133 86.9117 115.863 86.9117 115.537C86.9117 115.214 86.7656 114.949 86.4734 114.743C86.1846 114.533 85.8168 114.428 85.37 114.428H83.4673ZM90.0982 111.484C89.8714 111.484 89.6857 111.412 89.5414 111.267C89.4004 111.123 89.33 110.937 89.33 110.711C89.33 110.487 89.4004 110.305 89.5414 110.164C89.6857 110.023 89.8714 109.953 90.0982 109.953C90.3286 109.953 90.5159 110.023 90.6603 110.164C90.8081 110.305 90.882 110.487 90.882 110.711C90.882 110.937 90.8081 111.123 90.6603 111.267C90.5159 111.412 90.3286 111.484 90.0982 111.484ZM90.7015 117.744H89.5104V112.381H90.7015V117.744ZM93.4034 117.744H92.2071V112.381H93.4034V113.098H93.5065C93.9018 112.5 94.4415 112.201 95.1256 112.201C95.7684 112.201 96.2875 112.416 96.6828 112.845C97.0781 113.271 97.2757 113.82 97.2757 114.49V117.744H96.0743V114.588C96.0743 114.189 95.9643 113.866 95.7443 113.619C95.5243 113.371 95.2218 113.247 94.8368 113.247C94.4415 113.247 94.1029 113.383 93.8211 113.655C93.5426 113.923 93.4034 114.258 93.4034 114.66V117.744ZM100.282 117.744H99.0856V113.278H98.2657V112.381H99.0856V111.505C99.0856 110.982 99.23 110.559 99.5187 110.236C99.8075 109.913 100.186 109.751 100.653 109.751C100.949 109.751 101.255 109.803 101.571 109.906V110.891C101.344 110.826 101.16 110.793 101.019 110.793C100.799 110.793 100.62 110.865 100.483 111.01C100.349 111.154 100.282 111.343 100.282 111.577V112.381H101.571V113.278H100.282V117.744ZM107.16 117.14C106.617 117.67 105.912 117.934 105.046 117.934C104.18 117.934 103.475 117.67 102.932 117.14C102.392 116.611 102.123 115.918 102.123 115.062C102.123 114.206 102.392 113.512 102.932 112.979C103.472 112.446 104.177 112.18 105.046 112.18C105.909 112.18 106.612 112.448 107.155 112.984C107.702 113.517 107.975 114.21 107.975 115.062C107.975 115.918 107.703 116.611 107.16 117.14ZM105.046 116.888C105.552 116.888 105.966 116.718 106.289 116.377C106.615 116.033 106.779 115.595 106.779 115.062C106.779 114.53 106.615 114.09 106.289 113.742C105.962 113.395 105.548 113.222 105.046 113.222C104.541 113.222 104.125 113.395 103.798 113.742C103.475 114.086 103.314 114.526 103.314 115.062C103.314 115.595 103.475 116.033 103.798 116.377C104.122 116.718 104.537 116.888 105.046 116.888ZM110.337 117.744H109.14V112.381H110.316V113.088H110.419C110.539 112.847 110.727 112.651 110.981 112.5C111.239 112.348 111.512 112.273 111.801 112.273C112.059 112.273 112.27 112.316 112.435 112.402V113.49C112.153 113.376 111.875 113.32 111.6 113.32C111.225 113.32 110.921 113.467 110.687 113.763C110.453 114.059 110.337 114.445 110.337 114.923V117.744ZM115.673 117.934C114.903 117.934 114.264 117.666 113.755 117.13C113.246 116.59 112.992 115.901 112.992 115.062C112.992 114.224 113.245 113.534 113.75 112.995C114.259 112.452 114.896 112.18 115.663 112.18C116.058 112.18 116.414 112.259 116.73 112.417C117.047 112.572 117.301 112.792 117.493 113.077H117.597V109.953H118.803V117.744H117.597V117.017H117.493C117.091 117.628 116.484 117.934 115.673 117.934ZM114.678 116.367C115.005 116.714 115.417 116.888 115.916 116.888C116.414 116.888 116.827 116.712 117.153 116.362C117.483 116.011 117.648 115.578 117.648 115.062C117.648 114.54 117.483 114.103 117.153 113.753C116.827 113.399 116.414 113.222 115.916 113.222C115.417 113.222 115.005 113.399 114.678 113.753C114.352 114.103 114.188 114.54 114.188 115.062C114.188 115.585 114.352 116.02 114.678 116.367Z" fill="#A9C4FF"/>
</g>
<path d="M51.6201 199H49.4053L53.9932 186.256H57.1836L61.7188 199H59.4863L58.5547 196.425H52.5781L51.6201 199ZM55.4873 188.198L53.1494 194.676H57.9922L55.6719 188.198H55.4873ZM67.458 199.325C66.04 199.325 64.877 198.871 63.9688 197.963C63.0664 197.049 62.6152 195.871 62.6152 194.43C62.6152 192.982 63.0664 191.802 63.9688 190.888C64.877 189.974 66.04 189.517 67.458 189.517C68.6357 189.517 69.6494 189.839 70.499 190.483C71.3545 191.128 71.8643 191.957 72.0283 192.971L70.0859 193.226C69.9395 192.651 69.623 192.183 69.1367 191.819C68.6504 191.456 68.0967 191.274 67.4756 191.274C66.667 191.274 65.9932 191.57 65.4541 192.162C64.9209 192.754 64.6543 193.51 64.6543 194.43C64.6543 195.35 64.9209 196.105 65.4541 196.697C65.9873 197.283 66.6611 197.576 67.4756 197.576C68.1025 197.576 68.6562 197.397 69.1367 197.04C69.6172 196.683 69.9395 196.214 70.1035 195.634L72.0459 195.889C71.8584 196.902 71.334 197.729 70.4727 198.367C69.6172 199.006 68.6123 199.325 67.458 199.325ZM78.5146 199.325C77.0967 199.325 75.9336 198.871 75.0254 197.963C74.123 197.049 73.6719 195.871 73.6719 194.43C73.6719 192.982 74.123 191.802 75.0254 190.888C75.9336 189.974 77.0967 189.517 78.5146 189.517C79.6924 189.517 80.7061 189.839 81.5557 190.483C82.4111 191.128 82.9209 191.957 83.085 192.971L81.1426 193.226C80.9961 192.651 80.6797 192.183 80.1934 191.819C79.707 191.456 79.1533 191.274 78.5322 191.274C77.7236 191.274 77.0498 191.57 76.5107 192.162C75.9775 192.754 75.7109 193.51 75.7109 194.43C75.7109 195.35 75.9775 196.105 76.5107 196.697C77.0439 197.283 77.7178 197.576 78.5322 197.576C79.1592 197.576 79.7129 197.397 80.1934 197.04C80.6738 196.683 80.9961 196.214 81.1602 195.634L83.1025 195.889C82.915 196.902 82.3906 197.729 81.5293 198.367C80.6738 199.006 79.6689 199.325 78.5146 199.325ZM89.7119 199.325C88.2529 199.325 87.0576 198.859 86.126 197.928C85.1943 196.99 84.7285 195.789 84.7285 194.324C84.7285 192.924 85.1885 191.772 86.1084 190.87C87.0342 189.968 88.2119 189.517 89.6416 189.517C91.0654 189.517 92.2314 189.968 93.1396 190.87C94.0479 191.772 94.502 192.93 94.502 194.342C94.502 194.67 94.4961 194.907 94.4844 195.054H86.8379C86.9492 195.851 87.2686 196.486 87.7959 196.961C88.3291 197.43 88.9941 197.664 89.791 197.664C90.3828 197.664 90.9131 197.529 91.3818 197.26C91.8564 196.99 92.2197 196.621 92.4717 196.152L94.1768 196.803C93.8428 197.594 93.2773 198.212 92.4805 198.657C91.6895 199.103 90.7666 199.325 89.7119 199.325ZM86.8379 193.542H92.4014C92.2842 192.833 91.9678 192.262 91.4521 191.828C90.9424 191.389 90.3213 191.169 89.5889 191.169C88.874 191.169 88.2676 191.386 87.7695 191.819C87.2773 192.253 86.9668 192.827 86.8379 193.542ZM100.408 199.343C99.0664 199.343 98.0205 199.041 97.2705 198.438C96.5264 197.834 96.1543 196.99 96.1543 195.906H98.0264C98.0381 196.486 98.2578 196.952 98.6855 197.304C99.1191 197.655 99.7109 197.831 100.461 197.831C101.07 197.831 101.551 197.711 101.902 197.471C102.26 197.23 102.438 196.905 102.438 196.495C102.438 196.255 102.386 196.059 102.28 195.906C102.181 195.754 101.996 195.634 101.727 195.546C101.457 195.458 101.231 195.399 101.05 195.37C100.874 195.335 100.572 195.294 100.145 195.247C100.133 195.247 100.121 195.247 100.109 195.247C100.104 195.241 100.095 195.238 100.083 195.238C99.8018 195.209 99.5527 195.18 99.3359 195.15C99.1191 195.115 98.8701 195.065 98.5889 195.001C98.3135 194.937 98.0732 194.863 97.8682 194.781C97.6689 194.693 97.4639 194.579 97.2529 194.438C97.042 194.298 96.8691 194.14 96.7344 193.964C96.6055 193.788 96.4971 193.574 96.4092 193.322C96.3271 193.07 96.2861 192.792 96.2861 192.487C96.2861 191.567 96.6377 190.841 97.3408 190.308C98.0498 189.769 98.9873 189.499 100.153 189.499C101.343 189.499 102.31 189.783 103.054 190.352C103.798 190.914 104.17 191.667 104.17 192.61H102.245C102.239 192.124 102.043 191.74 101.656 191.459C101.27 191.172 100.763 191.028 100.136 191.028C99.5557 191.028 99.0869 191.148 98.7295 191.389C98.3721 191.629 98.1934 191.951 98.1934 192.355C98.1934 192.578 98.2402 192.763 98.334 192.909C98.4336 193.05 98.6152 193.164 98.8789 193.252C99.1484 193.334 99.3623 193.39 99.5205 193.419C99.6787 193.448 99.9717 193.486 100.399 193.533C100.522 193.551 100.613 193.562 100.672 193.568C100.953 193.604 101.202 193.639 101.419 193.674C101.642 193.709 101.888 193.762 102.157 193.832C102.427 193.902 102.661 193.984 102.86 194.078C103.06 194.166 103.262 194.28 103.467 194.421C103.672 194.562 103.839 194.723 103.968 194.904C104.097 195.086 104.199 195.303 104.275 195.555C104.357 195.807 104.398 196.085 104.398 196.39C104.398 197.321 104.047 198.048 103.344 198.569C102.641 199.085 101.662 199.343 100.408 199.343ZM110.375 199.343C109.033 199.343 107.987 199.041 107.237 198.438C106.493 197.834 106.121 196.99 106.121 195.906H107.993C108.005 196.486 108.225 196.952 108.652 197.304C109.086 197.655 109.678 197.831 110.428 197.831C111.037 197.831 111.518 197.711 111.869 197.471C112.227 197.23 112.405 196.905 112.405 196.495C112.405 196.255 112.353 196.059 112.247 195.906C112.147 195.754 111.963 195.634 111.693 195.546C111.424 195.458 111.198 195.399 111.017 195.37C110.841 195.335 110.539 195.294 110.111 195.247C110.1 195.247 110.088 195.247 110.076 195.247C110.07 195.241 110.062 195.238 110.05 195.238C109.769 195.209 109.52 195.18 109.303 195.15C109.086 195.115 108.837 195.065 108.556 195.001C108.28 194.937 108.04 194.863 107.835 194.781C107.636 194.693 107.431 194.579 107.22 194.438C107.009 194.298 106.836 194.14 106.701 193.964C106.572 193.788 106.464 193.574 106.376 193.322C106.294 193.07 106.253 192.792 106.253 192.487C106.253 191.567 106.604 190.841 107.308 190.308C108.017 189.769 108.954 189.499 110.12 189.499C111.31 189.499 112.276 189.783 113.021 190.352C113.765 190.914 114.137 191.667 114.137 192.61H112.212C112.206 192.124 112.01 191.74 111.623 191.459C111.236 191.172 110.729 191.028 110.103 191.028C109.522 191.028 109.054 191.148 108.696 191.389C108.339 191.629 108.16 191.951 108.16 192.355C108.16 192.578 108.207 192.763 108.301 192.909C108.4 193.05 108.582 193.164 108.846 193.252C109.115 193.334 109.329 193.39 109.487 193.419C109.646 193.448 109.938 193.486 110.366 193.533C110.489 193.551 110.58 193.562 110.639 193.568C110.92 193.604 111.169 193.639 111.386 193.674C111.608 193.709 111.854 193.762 112.124 193.832C112.394 193.902 112.628 193.984 112.827 194.078C113.026 194.166 113.229 194.28 113.434 194.421C113.639 194.562 113.806 194.723 113.935 194.904C114.063 195.086 114.166 195.303 114.242 195.555C114.324 195.807 114.365 196.085 114.365 196.39C114.365 197.321 114.014 198.048 113.311 198.569C112.607 199.085 111.629 199.343 110.375 199.343ZM124.446 199.325C123.614 199.325 122.946 199.059 122.442 198.525C121.938 197.986 121.687 197.274 121.687 196.39V191.389H120.307V189.859H121.722L122.161 186.906H123.743L123.726 189.859H125.958V191.389H123.726V196.302C123.726 196.712 123.843 197.046 124.077 197.304C124.317 197.556 124.643 197.682 125.053 197.682C125.381 197.682 125.718 197.635 126.063 197.541V199.07C125.565 199.24 125.026 199.325 124.446 199.325ZM135.907 197.972C134.981 198.874 133.78 199.325 132.304 199.325C130.827 199.325 129.626 198.874 128.7 197.972C127.78 197.069 127.32 195.889 127.32 194.43C127.32 192.971 127.78 191.787 128.7 190.879C129.62 189.971 130.821 189.517 132.304 189.517C133.774 189.517 134.973 189.974 135.898 190.888C136.83 191.796 137.296 192.977 137.296 194.43C137.296 195.889 136.833 197.069 135.907 197.972ZM132.304 197.541C133.165 197.541 133.871 197.251 134.422 196.671C134.979 196.085 135.257 195.338 135.257 194.43C135.257 193.521 134.979 192.771 134.422 192.18C133.865 191.588 133.159 191.292 132.304 191.292C131.442 191.292 130.733 191.588 130.177 192.18C129.626 192.766 129.351 193.516 129.351 194.43C129.351 195.338 129.626 196.085 130.177 196.671C130.728 197.251 131.437 197.541 132.304 197.541ZM22.9941 221H20.9375V211.859H22.9414V213.116H23.1172C23.3809 212.624 23.7441 212.234 24.207 211.947C24.6699 211.66 25.1885 211.517 25.7627 211.517C26.3721 211.517 26.9404 211.675 27.4678 211.991C28.001 212.308 28.3936 212.724 28.6455 213.239H28.8213C29.1377 212.706 29.5508 212.29 30.0605 211.991C30.5703 211.687 31.1533 211.534 31.8096 211.534C32.8584 211.534 33.7197 211.903 34.3936 212.642C35.0732 213.38 35.4131 214.323 35.4131 215.472V221H33.374V215.656C33.374 214.977 33.1807 214.414 32.7939 213.969C32.4072 213.523 31.9121 213.298 31.3086 213.292C30.6816 213.292 30.166 213.515 29.7617 213.96C29.3633 214.405 29.1641 214.971 29.1641 215.656V221H27.1162V215.656C27.1162 214.941 26.9316 214.37 26.5625 213.942C26.1934 213.509 25.7041 213.292 25.0947 213.292C24.4561 213.292 23.9463 213.509 23.5654 213.942C23.1846 214.37 22.9941 214.941 22.9941 215.656V221ZM44.1143 211.859H46.1533V221H44.1143V219.778H43.9385C43.2529 220.798 42.3359 221.308 41.1875 221.308C40.0918 221.308 39.2041 220.941 38.5244 220.209C37.8506 219.471 37.5137 218.527 37.5137 217.379V211.859H39.5615V217.238C39.5615 217.918 39.749 218.469 40.124 218.891C40.499 219.312 41.0146 219.523 41.6709 219.523C42.3506 219.523 42.9277 219.292 43.4023 218.829C43.877 218.366 44.1143 217.789 44.1143 217.098V211.859ZM50.6445 221H48.5879V207.72H50.6445V221ZM56.6035 221.325C55.7715 221.325 55.1035 221.059 54.5996 220.525C54.0957 219.986 53.8438 219.274 53.8438 218.39V213.389H52.4639V211.859H53.8789L54.3184 208.906H55.9004L55.8828 211.859H58.1152V213.389H55.8828V218.302C55.8828 218.712 56 219.046 56.2344 219.304C56.4746 219.556 56.7998 219.682 57.21 219.682C57.5381 219.682 57.875 219.635 58.2207 219.541V221.07C57.7227 221.24 57.1836 221.325 56.6035 221.325ZM61.376 210.33C60.9893 210.33 60.6729 210.207 60.4268 209.961C60.1865 209.715 60.0664 209.398 60.0664 209.012C60.0664 208.631 60.1865 208.32 60.4268 208.08C60.6729 207.84 60.9893 207.72 61.376 207.72C61.7686 207.72 62.0879 207.84 62.334 208.08C62.5859 208.32 62.7119 208.631 62.7119 209.012C62.7119 209.398 62.5859 209.715 62.334 209.961C62.0879 210.207 61.7686 210.33 61.376 210.33ZM62.4043 221H60.374V211.859H62.4043V221ZM70.2793 211.517C71.5859 211.517 72.6758 211.979 73.5488 212.905C74.4219 213.825 74.8584 215 74.8584 216.43C74.8584 217.854 74.4248 219.025 73.5576 219.945C72.6904 220.865 71.6035 221.325 70.2969 221.325C69.6172 221.325 69.0078 221.193 68.4688 220.93C67.9355 220.666 67.5078 220.288 67.1855 219.796H67.0098V225.14H64.9531V211.859H67.0098V213.099H67.1855C67.8652 212.044 68.8965 211.517 70.2793 211.517ZM69.8662 213.292C69.0166 213.292 68.3105 213.594 67.748 214.197C67.1914 214.795 66.9131 215.539 66.9131 216.43C66.9131 217.309 67.1914 218.047 67.748 218.645C68.3105 219.242 69.0166 219.541 69.8662 219.541C70.7158 219.541 71.416 219.245 71.9668 218.653C72.5234 218.056 72.8018 217.314 72.8018 216.43C72.8018 215.533 72.5234 214.786 71.9668 214.188C71.4102 213.591 70.71 213.292 69.8662 213.292ZM78.9102 221H76.8535V207.72H78.9102V221ZM85.8887 221.325C84.4297 221.325 83.2344 220.859 82.3027 219.928C81.3711 218.99 80.9053 217.789 80.9053 216.324C80.9053 214.924 81.3652 213.772 82.2852 212.87C83.2109 211.968 84.3887 211.517 85.8184 211.517C87.2422 211.517 88.4082 211.968 89.3164 212.87C90.2246 213.772 90.6787 214.93 90.6787 216.342C90.6787 216.67 90.6729 216.907 90.6611 217.054H83.0146C83.126 217.851 83.4453 218.486 83.9727 218.961C84.5059 219.43 85.1709 219.664 85.9678 219.664C86.5596 219.664 87.0898 219.529 87.5586 219.26C88.0332 218.99 88.3965 218.621 88.6484 218.152L90.3535 218.803C90.0195 219.594 89.4541 220.212 88.6572 220.657C87.8662 221.103 86.9434 221.325 85.8887 221.325ZM83.0146 215.542H88.5781C88.4609 214.833 88.1445 214.262 87.6289 213.828C87.1191 213.389 86.498 213.169 85.7656 213.169C85.0508 213.169 84.4443 213.386 83.9463 213.819C83.4541 214.253 83.1436 214.827 83.0146 215.542ZM99.1953 221H97.1387V211.859H99.1426V213.116H99.3184C99.582 212.624 99.9453 212.234 100.408 211.947C100.871 211.66 101.39 211.517 101.964 211.517C102.573 211.517 103.142 211.675 103.669 211.991C104.202 212.308 104.595 212.724 104.847 213.239H105.022C105.339 212.706 105.752 212.29 106.262 211.991C106.771 211.687 107.354 211.534 108.011 211.534C109.06 211.534 109.921 211.903 110.595 212.642C111.274 213.38 111.614 214.323 111.614 215.472V221H109.575V215.656C109.575 214.977 109.382 214.414 108.995 213.969C108.608 213.523 108.113 213.298 107.51 213.292C106.883 213.292 106.367 213.515 105.963 213.96C105.564 214.405 105.365 214.971 105.365 215.656V221H103.317V215.656C103.317 214.941 103.133 214.37 102.764 213.942C102.395 213.509 101.905 213.292 101.296 213.292C100.657 213.292 100.147 213.509 99.7666 213.942C99.3857 214.37 99.1953 214.941 99.1953 215.656V221ZM116.483 221.255C115.499 221.255 114.708 221.018 114.11 220.543C113.519 220.062 113.223 219.424 113.223 218.627C113.223 217.783 113.58 217.089 114.295 216.544C115.01 215.999 116.053 215.647 117.424 215.489L119.691 215.243V214.883C119.691 214.35 119.507 213.925 119.138 213.608C118.774 213.292 118.273 213.134 117.635 213.134C117.031 213.134 116.551 213.277 116.193 213.564C115.842 213.852 115.669 214.247 115.675 214.751H113.662C113.662 213.761 114.022 212.976 114.743 212.396C115.47 211.81 116.439 211.517 117.652 211.517C118.9 211.517 119.891 211.824 120.623 212.439C121.355 213.055 121.722 213.887 121.722 214.936V221H119.691V219.761H119.524C118.892 220.757 117.878 221.255 116.483 221.255ZM116.993 219.761C117.79 219.761 118.438 219.541 118.936 219.102C119.439 218.656 119.691 218.094 119.691 217.414V216.702L117.459 216.948C116.697 217.03 116.135 217.212 115.771 217.493C115.408 217.774 115.227 218.114 115.227 218.513C115.227 218.899 115.382 219.204 115.692 219.427C116.009 219.649 116.442 219.761 116.993 219.761ZM126.037 221H123.998V211.859H126.002V213.063H126.178C126.383 212.653 126.702 212.319 127.136 212.062C127.575 211.804 128.041 211.675 128.533 211.675C128.973 211.675 129.333 211.748 129.614 211.895V213.749C129.134 213.556 128.659 213.459 128.19 213.459C127.552 213.459 127.033 213.711 126.635 214.215C126.236 214.719 126.037 215.378 126.037 216.192V221ZM133.35 221H131.311V207.72H133.35V215.604H133.525L136.979 211.859H139.555L135.38 216.245L139.643 221H137.059L133.525 216.913H133.35V221ZM144.828 221.325C143.369 221.325 142.174 220.859 141.242 219.928C140.311 218.99 139.845 217.789 139.845 216.324C139.845 214.924 140.305 213.772 141.225 212.87C142.15 211.968 143.328 211.517 144.758 211.517C146.182 211.517 147.348 211.968 148.256 212.87C149.164 213.772 149.618 214.93 149.618 216.342C149.618 216.67 149.612 216.907 149.601 217.054H141.954C142.065 217.851 142.385 218.486 142.912 218.961C143.445 219.43 144.11 219.664 144.907 219.664C145.499 219.664 146.029 219.529 146.498 219.26C146.973 218.99 147.336 218.621 147.588 218.152L149.293 218.803C148.959 219.594 148.394 220.212 147.597 220.657C146.806 221.103 145.883 221.325 144.828 221.325ZM141.954 215.542H147.518C147.4 214.833 147.084 214.262 146.568 213.828C146.059 213.389 145.438 213.169 144.705 213.169C143.99 213.169 143.384 213.386 142.886 213.819C142.394 214.253 142.083 214.827 141.954 215.542ZM154.848 221.325C154.016 221.325 153.348 221.059 152.844 220.525C152.34 219.986 152.088 219.274 152.088 218.39V213.389H150.708V211.859H152.123L152.562 208.906H154.145L154.127 211.859H156.359V213.389H154.127V218.302C154.127 218.712 154.244 219.046 154.479 219.304C154.719 219.556 155.044 219.682 155.454 219.682C155.782 219.682 156.119 219.635 156.465 219.541V221.07C155.967 221.24 155.428 221.325 154.848 221.325ZM162.415 221.343C161.073 221.343 160.027 221.041 159.277 220.438C158.533 219.834 158.161 218.99 158.161 217.906H160.033C160.045 218.486 160.265 218.952 160.692 219.304C161.126 219.655 161.718 219.831 162.468 219.831C163.077 219.831 163.558 219.711 163.909 219.471C164.267 219.23 164.445 218.905 164.445 218.495C164.445 218.255 164.393 218.059 164.287 217.906C164.188 217.754 164.003 217.634 163.733 217.546C163.464 217.458 163.238 217.399 163.057 217.37C162.881 217.335 162.579 217.294 162.151 217.247C162.14 217.247 162.128 217.247 162.116 217.247C162.11 217.241 162.102 217.238 162.09 217.238C161.809 217.209 161.56 217.18 161.343 217.15C161.126 217.115 160.877 217.065 160.596 217.001C160.32 216.937 160.08 216.863 159.875 216.781C159.676 216.693 159.471 216.579 159.26 216.438C159.049 216.298 158.876 216.14 158.741 215.964C158.612 215.788 158.504 215.574 158.416 215.322C158.334 215.07 158.293 214.792 158.293 214.487C158.293 213.567 158.645 212.841 159.348 212.308C160.057 211.769 160.994 211.499 162.16 211.499C163.35 211.499 164.316 211.783 165.061 212.352C165.805 212.914 166.177 213.667 166.177 214.61H164.252C164.246 214.124 164.05 213.74 163.663 213.459C163.276 213.172 162.77 213.028 162.143 213.028C161.562 213.028 161.094 213.148 160.736 213.389C160.379 213.629 160.2 213.951 160.2 214.355C160.2 214.578 160.247 214.763 160.341 214.909C160.44 215.05 160.622 215.164 160.886 215.252C161.155 215.334 161.369 215.39 161.527 215.419C161.686 215.448 161.979 215.486 162.406 215.533C162.529 215.551 162.62 215.562 162.679 215.568C162.96 215.604 163.209 215.639 163.426 215.674C163.648 215.709 163.895 215.762 164.164 215.832C164.434 215.902 164.668 215.984 164.867 216.078C165.066 216.166 165.269 216.28 165.474 216.421C165.679 216.562 165.846 216.723 165.975 216.904C166.104 217.086 166.206 217.303 166.282 217.555C166.364 217.807 166.405 218.085 166.405 218.39C166.405 219.321 166.054 220.048 165.351 220.569C164.647 221.085 163.669 221.343 162.415 221.343Z" fill="#18181B"/>
<defs>
<clipPath id="clip0_21834_190452">
<rect width="150" height="150" fill="white" transform="translate(18.5 16)"/>
</clipPath>
</defs>
</svg>
