<svg width="187" height="242" viewBox="0 0 187 242" fill="none" xmlns="http://www.w3.org/2000/svg">
<rect x="0.5" y="0.5" width="186" height="241" rx="7.5" stroke="#E4E4E7"/>
<path d="M151.936 114.109H102.222L94.2076 128.916C94.1272 129.066 94.0867 129.233 94.09 129.403C94.0934 129.573 94.1404 129.738 94.2266 129.885C94.3128 130.031 94.4352 130.152 94.582 130.237C94.7289 130.322 94.8951 130.367 95.0647 130.369H151.936L155.998 122.226L151.936 114.109Z" fill="#709DFF"/>
<path d="M96.1986 42.3618C104.791 43.1515 112.814 47.0013 118.807 53.2101C124.799 59.4188 128.362 67.5735 128.847 76.1888C128.854 76.3525 128.903 76.5117 128.987 76.6519C129.072 76.7921 129.191 76.9089 129.332 76.9916C129.474 77.0742 129.633 77.1201 129.797 77.1252C129.961 77.1302 130.123 77.0941 130.27 77.0202L136.308 74.0202C136.533 73.9041 136.782 73.8435 137.035 73.8435C137.287 73.8435 137.537 73.9041 137.761 74.0202L143.688 76.9817C143.842 77.0588 144.013 77.0945 144.185 77.085C144.356 77.0756 144.523 77.0214 144.667 76.9278C144.811 76.8342 144.929 76.7045 145.007 76.5516C145.086 76.3986 145.123 76.2277 145.115 76.056C144.581 63.1292 139.27 50.8603 130.211 41.6236C121.152 32.387 108.988 26.8395 96.0743 26.0547L92.0586 34.0861L96.1986 42.3618Z" fill="#407BFF"/>
<path d="M96.1986 42.3618C104.791 43.1515 112.814 47.0013 118.807 53.2101C124.799 59.4188 128.362 67.5735 128.847 76.1888C128.854 76.3525 128.903 76.5117 128.987 76.6519C129.072 76.7921 129.191 76.9089 129.332 76.9916C129.474 77.0742 129.633 77.1201 129.797 77.1252C129.961 77.1302 130.123 77.0941 130.27 77.0202L136.308 74.0202C136.533 73.9041 136.782 73.8435 137.035 73.8435C137.287 73.8435 137.537 73.9041 137.761 74.0202L143.688 76.9817C143.842 77.0588 144.013 77.0945 144.185 77.085C144.356 77.0756 144.523 77.0214 144.667 76.9278C144.811 76.8342 144.929 76.7045 145.007 76.5516C145.086 76.3986 145.123 76.2277 145.115 76.056C144.581 63.1292 139.27 50.8603 130.211 41.6236C121.152 32.387 108.988 26.8395 96.0743 26.0547L92.0586 34.0861L96.1986 42.3618Z" fill="#E2EBFF"/>
<path d="M57.1511 74.9179C57.9409 66.3245 61.7913 58.3007 68.001 52.3081C74.2106 46.3156 82.3662 42.753 90.9822 42.2694C91.1451 42.2602 91.3031 42.2108 91.4422 42.1255C91.5812 42.0402 91.6969 41.9217 91.7789 41.7807C91.8608 41.6396 91.9065 41.4805 91.9119 41.3175C91.9172 41.1544 91.882 40.9926 91.8094 40.8466L88.788 34.808C88.6758 34.5815 88.6174 34.3322 88.6174 34.0794C88.6174 33.8267 88.6758 33.5774 88.788 33.3509L91.7537 27.428C91.8297 27.2739 91.8643 27.1026 91.8541 26.931C91.8439 26.7595 91.7891 26.5935 91.6953 26.4495C91.6014 26.3055 91.4717 26.1884 91.3189 26.1097C91.1661 26.0311 90.9954 25.9936 90.8237 26.0009C77.9036 26.5458 65.6438 31.8593 56.4124 40.915C47.1809 49.9708 41.6329 62.1263 40.8398 75.0336L48.8583 79.0493L57.1511 74.9179Z" fill="#407BFF"/>
<path d="M57.1511 74.9179C57.9409 66.3245 61.7913 58.3007 68.001 52.3081C74.2106 46.3156 82.3662 42.753 90.9822 42.2694C91.1451 42.2602 91.3031 42.2108 91.4422 42.1255C91.5812 42.0402 91.6969 41.9217 91.7789 41.7807C91.8608 41.6396 91.9065 41.4805 91.9119 41.3175C91.9172 41.1544 91.882 40.9926 91.8094 40.8466L88.788 34.808C88.6758 34.5815 88.6174 34.3322 88.6174 34.0794C88.6174 33.8267 88.6758 33.5774 88.788 33.3509L91.7537 27.428C91.8297 27.2739 91.8643 27.1026 91.8541 26.931C91.8439 26.7595 91.7891 26.5935 91.6953 26.4495C91.6014 26.3055 91.4717 26.1884 91.3189 26.1097C91.1661 26.0311 90.9954 25.9936 90.8237 26.0009C77.9036 26.5458 65.6438 31.8593 56.4124 40.915C47.1809 49.9708 41.6329 62.1263 40.8398 75.0336L48.8583 79.0493L57.1511 74.9179Z" fill="#C6D7FF"/>
<path d="M89.708 113.968C81.1153 113.18 73.0916 109.331 67.0984 103.123C61.1052 96.915 57.5412 88.7609 57.0555 80.1456C57.0477 79.9826 56.9994 79.824 56.9148 79.6843C56.8303 79.5446 56.7123 79.4282 56.5714 79.3456C56.4306 79.2631 56.2713 79.217 56.1082 79.2115C55.945 79.206 55.783 79.2413 55.6369 79.3142L49.6027 82.3142C49.3754 82.4291 49.1245 82.4893 48.8698 82.4899C48.618 82.4888 48.3699 82.4286 48.1455 82.3142L42.2142 79.3528C42.0604 79.2769 41.8895 79.2423 41.7183 79.2524C41.5471 79.2624 41.3814 79.3168 41.2376 79.4101C41.0937 79.5035 40.9765 79.6326 40.8976 79.7848C40.8186 79.937 40.7805 80.1071 40.787 80.2785C41.2947 92.9194 46.3911 104.942 55.1226 114.097H30L34.1142 122.33L30.1457 130.288H89.828L93.8566 122.244L89.708 113.968Z" fill="#407BFF"/>
<path d="M89.708 113.968C81.1153 113.18 73.0916 109.331 67.0984 103.123C61.1052 96.915 57.5412 88.7609 57.0555 80.1456C57.0477 79.9826 56.9994 79.824 56.9148 79.6843C56.8303 79.5446 56.7123 79.4282 56.5714 79.3456C56.4306 79.2631 56.2713 79.217 56.1082 79.2115C55.945 79.206 55.783 79.2413 55.6369 79.3142L49.6027 82.3142C49.3754 82.4291 49.1245 82.4893 48.8698 82.4899C48.618 82.4888 48.3699 82.4286 48.1455 82.3142L42.2142 79.3528C42.0604 79.2769 41.8895 79.2423 41.7183 79.2524C41.5471 79.2624 41.3814 79.3168 41.2376 79.4101C41.0937 79.5035 40.9765 79.6326 40.8976 79.7848C40.8186 79.937 40.7805 80.1071 40.787 80.2785C41.2947 92.9194 46.3911 104.942 55.1226 114.097H30L34.1142 122.33L30.1457 130.288H89.828L93.8566 122.244L89.708 113.968Z" fill="#A9C4FF"/>
<path d="M128.761 81.4013C127.97 89.9933 124.12 98.0155 117.912 104.007C111.703 109.999 103.549 113.561 94.9343 114.045C94.7711 114.054 94.6126 114.103 94.473 114.188C94.3334 114.273 94.2171 114.391 94.1347 114.533C94.0522 114.674 94.0061 114.833 94.0006 114.996C93.995 115.16 94.0302 115.322 94.1029 115.468L97.1029 121.507C97.215 121.733 97.2734 121.981 97.2734 122.233C97.2734 122.485 97.215 122.734 97.1029 122.96L94.1415 128.887C94.0643 129.041 94.0286 129.212 94.0381 129.383C94.0475 129.555 94.1017 129.721 94.1953 129.866C94.2889 130.01 94.4186 130.127 94.5716 130.206C94.7245 130.285 94.8954 130.322 95.0672 130.314C107.992 129.78 120.26 124.47 129.497 115.413C138.733 106.355 144.281 94.1938 145.068 81.2813L137.037 77.2656L128.761 81.4013Z" fill="#407BFF"/>
<path d="M128.761 81.4013C127.97 89.9933 124.12 98.0155 117.912 104.007C111.703 109.999 103.549 113.561 94.9343 114.045C94.7711 114.054 94.6126 114.103 94.473 114.188C94.3334 114.273 94.2171 114.391 94.1347 114.533C94.0522 114.674 94.0061 114.833 94.0006 114.996C93.995 115.16 94.0302 115.322 94.1029 115.468L97.1029 121.507C97.215 121.733 97.2734 121.981 97.2734 122.233C97.2734 122.485 97.215 122.734 97.1029 122.96L94.1415 128.887C94.0643 129.041 94.0286 129.212 94.0381 129.383C94.0475 129.555 94.1017 129.721 94.1953 129.866C94.2889 130.01 94.4186 130.127 94.5716 130.206C94.7245 130.285 94.8954 130.322 95.0672 130.314C107.992 129.78 120.26 124.47 129.497 115.413C138.733 106.355 144.281 94.1938 145.068 81.2813L137.037 77.2656L128.761 81.4013Z" fill="#E2EBFF"/>
<path d="M110.76 73.8192L108.557 67.5165L105.206 67.8266C104.411 66.6521 103.463 65.5889 102.387 64.6652L103.076 61.3709L97.047 58.4712L94.8965 61.0607C93.5015 60.7903 92.0764 60.709 90.6597 60.8191C90.6597 60.8191 89.5 58 88.8193 58C88.1385 58 82.8266 60.1357 82.5165 60.2029C82.2064 60.2702 82.8266 63.5536 82.8266 63.5536C81.6521 64.3486 80.5889 65.2966 79.6652 66.3728L76.3668 65.6841L73.4672 71.7009L76.0608 73.8515C75.7903 75.2464 75.709 76.6715 75.8191 78.0882L73 79.9287L75.2029 86.2314L78.5496 85.9213C79.3448 87.0968 80.2928 88.1613 81.3687 89.0868L80.6801 92.3811L86.6969 95.2807L88.8474 92.6872C90.2411 92.9576 91.6648 93.0389 93.0801 92.9288L94.9246 95.7479L101.227 93.545L100.917 90.1983C102.091 89.4018 103.154 88.4539 104.079 87.3792L107.373 88.0678L110.273 82.0511L107.683 79.9045C107.954 78.5095 108.035 77.0845 107.925 75.6678L110.76 73.8192ZM94.3125 83.8231C92.9395 84.3032 91.455 84.3654 90.0466 84.0018C88.6382 83.6382 87.3693 82.8652 86.4004 81.7804C85.4314 80.6956 84.8059 79.3478 84.603 77.9075C84.4 76.4672 84.6288 74.9991 85.2603 73.6888C85.8917 72.3785 86.8976 71.2849 88.1507 70.5463C89.4037 69.8077 90.8477 69.4572 92.2999 69.5393C93.7521 69.6214 95.1473 70.1323 96.3092 71.0074C97.471 71.8825 98.3473 73.0824 98.8271 74.4556C99.4693 76.2965 99.3545 78.317 98.508 80.0734C97.6616 81.8298 96.1526 83.1784 94.3125 83.8231Z" fill="#A9C4FF"/>
<path d="M36.5029 199H32.1084V186.256H36.5029C37.9678 186.256 39.2568 186.52 40.3701 187.047C41.4893 187.574 42.3535 188.321 42.9629 189.288C43.5781 190.249 43.8857 191.362 43.8857 192.628C43.8857 193.888 43.5781 195.001 42.9629 195.968C42.3535 196.929 41.4893 197.676 40.3701 198.209C39.251 198.736 37.9619 199 36.5029 199ZM34.3408 188.11V197.128H36.5029C38.0439 197.128 39.2832 196.721 40.2207 195.906C41.1641 195.092 41.6357 193.999 41.6357 192.628C41.6357 191.251 41.1641 190.155 40.2207 189.341C39.2832 188.521 38.0439 188.11 36.5029 188.11H34.3408ZM47.0498 188.33C46.6631 188.33 46.3467 188.207 46.1006 187.961C45.8604 187.715 45.7402 187.398 45.7402 187.012C45.7402 186.631 45.8604 186.32 46.1006 186.08C46.3467 185.84 46.6631 185.72 47.0498 185.72C47.4424 185.72 47.7617 185.84 48.0078 186.08C48.2598 186.32 48.3857 186.631 48.3857 187.012C48.3857 187.398 48.2598 187.715 48.0078 187.961C47.7617 188.207 47.4424 188.33 47.0498 188.33ZM48.0781 199H46.0479V189.859H48.0781V199ZM52.6836 199H50.6445V189.859H52.6484V191.063H52.8242C53.0293 190.653 53.3486 190.319 53.7822 190.062C54.2217 189.804 54.6875 189.675 55.1797 189.675C55.6191 189.675 55.9795 189.748 56.2607 189.895V191.749C55.7803 191.556 55.3057 191.459 54.8369 191.459C54.1982 191.459 53.6797 191.711 53.2812 192.215C52.8828 192.719 52.6836 193.378 52.6836 194.192V199ZM62.1934 199.325C60.7344 199.325 59.5391 198.859 58.6074 197.928C57.6758 196.99 57.21 195.789 57.21 194.324C57.21 192.924 57.6699 191.772 58.5898 190.87C59.5156 189.968 60.6934 189.517 62.123 189.517C63.5469 189.517 64.7129 189.968 65.6211 190.87C66.5293 191.772 66.9834 192.93 66.9834 194.342C66.9834 194.67 66.9775 194.907 66.9658 195.054H59.3193C59.4307 195.851 59.75 196.486 60.2773 196.961C60.8105 197.43 61.4756 197.664 62.2725 197.664C62.8643 197.664 63.3945 197.529 63.8633 197.26C64.3379 196.99 64.7012 196.621 64.9531 196.152L66.6582 196.803C66.3242 197.594 65.7588 198.212 64.9619 198.657C64.1709 199.103 63.248 199.325 62.1934 199.325ZM59.3193 193.542H64.8828C64.7656 192.833 64.4492 192.262 63.9336 191.828C63.4238 191.389 62.8027 191.169 62.0703 191.169C61.3555 191.169 60.749 191.386 60.251 191.819C59.7588 192.253 59.4482 192.827 59.3193 193.542ZM73.4434 199.325C72.0254 199.325 70.8623 198.871 69.9541 197.963C69.0518 197.049 68.6006 195.871 68.6006 194.43C68.6006 192.982 69.0518 191.802 69.9541 190.888C70.8623 189.974 72.0254 189.517 73.4434 189.517C74.6211 189.517 75.6348 189.839 76.4844 190.483C77.3398 191.128 77.8496 191.957 78.0137 192.971L76.0713 193.226C75.9248 192.651 75.6084 192.183 75.1221 191.819C74.6357 191.456 74.082 191.274 73.4609 191.274C72.6523 191.274 71.9785 191.57 71.4395 192.162C70.9062 192.754 70.6396 193.51 70.6396 194.43C70.6396 195.35 70.9062 196.105 71.4395 196.697C71.9727 197.283 72.6465 197.576 73.4609 197.576C74.0879 197.576 74.6416 197.397 75.1221 197.04C75.6025 196.683 75.9248 196.214 76.0889 195.634L78.0312 195.889C77.8438 196.902 77.3193 197.729 76.458 198.367C75.6025 199.006 74.5977 199.325 73.4434 199.325ZM83.2695 199.325C82.4375 199.325 81.7695 199.059 81.2656 198.525C80.7617 197.986 80.5098 197.274 80.5098 196.39V191.389H79.1299V189.859H80.5449L80.9844 186.906H82.5664L82.5488 189.859H84.7812V191.389H82.5488V196.302C82.5488 196.712 82.666 197.046 82.9004 197.304C83.1406 197.556 83.4658 197.682 83.876 197.682C84.2041 197.682 84.541 197.635 84.8867 197.541V199.07C84.3887 199.24 83.8496 199.325 83.2695 199.325ZM92.832 199H90.6172L95.2051 186.256H98.3955L102.931 199H100.698L99.7666 196.425H93.79L92.832 199ZM96.6992 188.198L94.3613 194.676H99.2041L96.8838 188.198H96.6992ZM108.67 199.325C107.252 199.325 106.089 198.871 105.181 197.963C104.278 197.049 103.827 195.871 103.827 194.43C103.827 192.982 104.278 191.802 105.181 190.888C106.089 189.974 107.252 189.517 108.67 189.517C109.848 189.517 110.861 189.839 111.711 190.483C112.566 191.128 113.076 191.957 113.24 192.971L111.298 193.226C111.151 192.651 110.835 192.183 110.349 191.819C109.862 191.456 109.309 191.274 108.688 191.274C107.879 191.274 107.205 191.57 106.666 192.162C106.133 192.754 105.866 193.51 105.866 194.43C105.866 195.35 106.133 196.105 106.666 196.697C107.199 197.283 107.873 197.576 108.688 197.576C109.314 197.576 109.868 197.397 110.349 197.04C110.829 196.683 111.151 196.214 111.315 195.634L113.258 195.889C113.07 196.902 112.546 197.729 111.685 198.367C110.829 199.006 109.824 199.325 108.67 199.325ZM119.727 199.325C118.309 199.325 117.146 198.871 116.237 197.963C115.335 197.049 114.884 195.871 114.884 194.43C114.884 192.982 115.335 191.802 116.237 190.888C117.146 189.974 118.309 189.517 119.727 189.517C120.904 189.517 121.918 189.839 122.768 190.483C123.623 191.128 124.133 191.957 124.297 192.971L122.354 193.226C122.208 192.651 121.892 192.183 121.405 191.819C120.919 191.456 120.365 191.274 119.744 191.274C118.936 191.274 118.262 191.57 117.723 192.162C117.189 192.754 116.923 193.51 116.923 194.43C116.923 195.35 117.189 196.105 117.723 196.697C118.256 197.283 118.93 197.576 119.744 197.576C120.371 197.576 120.925 197.397 121.405 197.04C121.886 196.683 122.208 196.214 122.372 195.634L124.314 195.889C124.127 196.902 123.603 197.729 122.741 198.367C121.886 199.006 120.881 199.325 119.727 199.325ZM130.924 199.325C129.465 199.325 128.27 198.859 127.338 197.928C126.406 196.99 125.94 195.789 125.94 194.324C125.94 192.924 126.4 191.772 127.32 190.87C128.246 189.968 129.424 189.517 130.854 189.517C132.277 189.517 133.443 189.968 134.352 190.87C135.26 191.772 135.714 192.93 135.714 194.342C135.714 194.67 135.708 194.907 135.696 195.054H128.05C128.161 195.851 128.48 196.486 129.008 196.961C129.541 197.43 130.206 197.664 131.003 197.664C131.595 197.664 132.125 197.529 132.594 197.26C133.068 196.99 133.432 196.621 133.684 196.152L135.389 196.803C135.055 197.594 134.489 198.212 133.692 198.657C132.901 199.103 131.979 199.325 130.924 199.325ZM128.05 193.542H133.613C133.496 192.833 133.18 192.262 132.664 191.828C132.154 191.389 131.533 191.169 130.801 191.169C130.086 191.169 129.479 191.386 128.981 191.819C128.489 192.253 128.179 192.827 128.05 193.542ZM141.62 199.343C140.278 199.343 139.232 199.041 138.482 198.438C137.738 197.834 137.366 196.99 137.366 195.906H139.238C139.25 196.486 139.47 196.952 139.897 197.304C140.331 197.655 140.923 197.831 141.673 197.831C142.282 197.831 142.763 197.711 143.114 197.471C143.472 197.23 143.65 196.905 143.65 196.495C143.65 196.255 143.598 196.059 143.492 195.906C143.393 195.754 143.208 195.634 142.938 195.546C142.669 195.458 142.443 195.399 142.262 195.37C142.086 195.335 141.784 195.294 141.356 195.247C141.345 195.247 141.333 195.247 141.321 195.247C141.315 195.241 141.307 195.238 141.295 195.238C141.014 195.209 140.765 195.18 140.548 195.15C140.331 195.115 140.082 195.065 139.801 195.001C139.525 194.937 139.285 194.863 139.08 194.781C138.881 194.693 138.676 194.579 138.465 194.438C138.254 194.298 138.081 194.14 137.946 193.964C137.817 193.788 137.709 193.574 137.621 193.322C137.539 193.07 137.498 192.792 137.498 192.487C137.498 191.567 137.85 190.841 138.553 190.308C139.262 189.769 140.199 189.499 141.365 189.499C142.555 189.499 143.521 189.783 144.266 190.352C145.01 190.914 145.382 191.667 145.382 192.61H143.457C143.451 192.124 143.255 191.74 142.868 191.459C142.481 191.172 141.975 191.028 141.348 191.028C140.768 191.028 140.299 191.148 139.941 191.389C139.584 191.629 139.405 191.951 139.405 192.355C139.405 192.578 139.452 192.763 139.546 192.909C139.646 193.05 139.827 193.164 140.091 193.252C140.36 193.334 140.574 193.39 140.732 193.419C140.891 193.448 141.184 193.486 141.611 193.533C141.734 193.551 141.825 193.562 141.884 193.568C142.165 193.604 142.414 193.639 142.631 193.674C142.854 193.709 143.1 193.762 143.369 193.832C143.639 193.902 143.873 193.984 144.072 194.078C144.271 194.166 144.474 194.28 144.679 194.421C144.884 194.562 145.051 194.723 145.18 194.904C145.309 195.086 145.411 195.303 145.487 195.555C145.569 195.807 145.61 196.085 145.61 196.39C145.61 197.321 145.259 198.048 144.556 198.569C143.853 199.085 142.874 199.343 141.62 199.343ZM151.587 199.343C150.245 199.343 149.199 199.041 148.449 198.438C147.705 197.834 147.333 196.99 147.333 195.906H149.205C149.217 196.486 149.437 196.952 149.864 197.304C150.298 197.655 150.89 197.831 151.64 197.831C152.249 197.831 152.729 197.711 153.081 197.471C153.438 197.23 153.617 196.905 153.617 196.495C153.617 196.255 153.564 196.059 153.459 195.906C153.359 195.754 153.175 195.634 152.905 195.546C152.636 195.458 152.41 195.399 152.229 195.37C152.053 195.335 151.751 195.294 151.323 195.247C151.312 195.247 151.3 195.247 151.288 195.247C151.282 195.241 151.273 195.238 151.262 195.238C150.98 195.209 150.731 195.18 150.515 195.15C150.298 195.115 150.049 195.065 149.768 195.001C149.492 194.937 149.252 194.863 149.047 194.781C148.848 194.693 148.643 194.579 148.432 194.438C148.221 194.298 148.048 194.14 147.913 193.964C147.784 193.788 147.676 193.574 147.588 193.322C147.506 193.07 147.465 192.792 147.465 192.487C147.465 191.567 147.816 190.841 148.52 190.308C149.229 189.769 150.166 189.499 151.332 189.499C152.521 189.499 153.488 189.783 154.232 190.352C154.977 190.914 155.349 191.667 155.349 192.61H153.424C153.418 192.124 153.222 191.74 152.835 191.459C152.448 191.172 151.941 191.028 151.314 191.028C150.734 191.028 150.266 191.148 149.908 191.389C149.551 191.629 149.372 191.951 149.372 192.355C149.372 192.578 149.419 192.763 149.513 192.909C149.612 193.05 149.794 193.164 150.058 193.252C150.327 193.334 150.541 193.39 150.699 193.419C150.857 193.448 151.15 193.486 151.578 193.533C151.701 193.551 151.792 193.562 151.851 193.568C152.132 193.604 152.381 193.639 152.598 193.674C152.82 193.709 153.066 193.762 153.336 193.832C153.605 193.902 153.84 193.984 154.039 194.078C154.238 194.166 154.44 194.28 154.646 194.421C154.851 194.562 155.018 194.723 155.146 194.904C155.275 195.086 155.378 195.303 155.454 195.555C155.536 195.807 155.577 196.085 155.577 196.39C155.577 197.321 155.226 198.048 154.522 198.569C153.819 199.085 152.841 199.343 151.587 199.343ZM48.6143 221H45.7139L42.3652 211.859H44.4922L47.0674 219.365H47.2432L49.8359 211.859H51.9453L48.6143 221ZM54.4414 210.33C54.0547 210.33 53.7383 210.207 53.4922 209.961C53.252 209.715 53.1318 209.398 53.1318 209.012C53.1318 208.631 53.252 208.32 53.4922 208.08C53.7383 207.84 54.0547 207.72 54.4414 207.72C54.834 207.72 55.1533 207.84 55.3994 208.08C55.6514 208.32 55.7773 208.631 55.7773 209.012C55.7773 209.398 55.6514 209.715 55.3994 209.961C55.1533 210.207 54.834 210.33 54.4414 210.33ZM55.4697 221H53.4395V211.859H55.4697V221ZM60.6289 221.255C59.6445 221.255 58.8535 221.018 58.2559 220.543C57.6641 220.062 57.3682 219.424 57.3682 218.627C57.3682 217.783 57.7256 217.089 58.4404 216.544C59.1553 215.999 60.1982 215.647 61.5693 215.489L63.8369 215.243V214.883C63.8369 214.35 63.6523 213.925 63.2832 213.608C62.9199 213.292 62.4189 213.134 61.7803 213.134C61.1768 213.134 60.6963 213.277 60.3389 213.564C59.9873 213.852 59.8145 214.247 59.8203 214.751H57.8076C57.8076 213.761 58.168 212.976 58.8887 212.396C59.6152 211.81 60.585 211.517 61.7979 211.517C63.0459 211.517 64.0361 211.824 64.7686 212.439C65.501 213.055 65.8672 213.887 65.8672 214.936V221H63.8369V219.761H63.6699C63.0371 220.757 62.0234 221.255 60.6289 221.255ZM61.1387 219.761C61.9355 219.761 62.583 219.541 63.0811 219.102C63.585 218.656 63.8369 218.094 63.8369 217.414V216.702L61.6045 216.948C60.8428 217.03 60.2803 217.212 59.917 217.493C59.5537 217.774 59.3721 218.114 59.3721 218.513C59.3721 218.899 59.5273 219.204 59.8379 219.427C60.1543 219.649 60.5879 219.761 61.1387 219.761ZM82.1533 221H72.9336V208.256H81.9688V210.146H75.1836V213.547H81.3447V215.331H75.1836V219.093H82.1533V221ZM90.5996 211.859H92.6387V221H90.5996V219.778H90.4238C89.7383 220.798 88.8213 221.308 87.6729 221.308C86.5771 221.308 85.6895 220.941 85.0098 220.209C84.3359 219.471 83.999 218.527 83.999 217.379V211.859H86.0469V217.238C86.0469 217.918 86.2344 218.469 86.6094 218.891C86.9844 219.312 87.5 219.523 88.1562 219.523C88.8359 219.523 89.4131 219.292 89.8877 218.829C90.3623 218.366 90.5996 217.789 90.5996 217.098V211.859ZM97.1299 221H95.0908V211.859H97.0947V213.063H97.2705C97.4756 212.653 97.7949 212.319 98.2285 212.062C98.668 211.804 99.1338 211.675 99.626 211.675C100.065 211.675 100.426 211.748 100.707 211.895V213.749C100.227 213.556 99.752 213.459 99.2832 213.459C98.6445 213.459 98.126 213.711 97.7275 214.215C97.3291 214.719 97.1299 215.378 97.1299 216.192V221ZM106.64 221.325C105.181 221.325 103.985 220.859 103.054 219.928C102.122 218.99 101.656 217.789 101.656 216.324C101.656 214.924 102.116 213.772 103.036 212.87C103.962 211.968 105.14 211.517 106.569 211.517C107.993 211.517 109.159 211.968 110.067 212.87C110.976 213.772 111.43 214.93 111.43 216.342C111.43 216.67 111.424 216.907 111.412 217.054H103.766C103.877 217.851 104.196 218.486 104.724 218.961C105.257 219.43 105.922 219.664 106.719 219.664C107.311 219.664 107.841 219.529 108.31 219.26C108.784 218.99 109.147 218.621 109.399 218.152L111.104 218.803C110.771 219.594 110.205 220.212 109.408 220.657C108.617 221.103 107.694 221.325 106.64 221.325ZM103.766 215.542H109.329C109.212 214.833 108.896 214.262 108.38 213.828C107.87 213.389 107.249 213.169 106.517 213.169C105.802 213.169 105.195 213.386 104.697 213.819C104.205 214.253 103.895 214.827 103.766 215.542ZM118.03 221.325C116.571 221.325 115.376 220.859 114.444 219.928C113.513 218.99 113.047 217.789 113.047 216.324C113.047 214.924 113.507 213.772 114.427 212.87C115.353 211.968 116.53 211.517 117.96 211.517C119.384 211.517 120.55 211.968 121.458 212.87C122.366 213.772 122.82 214.93 122.82 216.342C122.82 216.67 122.814 216.907 122.803 217.054H115.156C115.268 217.851 115.587 218.486 116.114 218.961C116.647 219.43 117.312 219.664 118.109 219.664C118.701 219.664 119.231 219.529 119.7 219.26C120.175 218.99 120.538 218.621 120.79 218.152L122.495 218.803C122.161 219.594 121.596 220.212 120.799 220.657C120.008 221.103 119.085 221.325 118.03 221.325ZM115.156 215.542H120.72C120.603 214.833 120.286 214.262 119.771 213.828C119.261 213.389 118.64 213.169 117.907 213.169C117.192 213.169 116.586 213.386 116.088 213.819C115.596 214.253 115.285 214.827 115.156 215.542ZM129.28 221.325C127.862 221.325 126.699 220.871 125.791 219.963C124.889 219.049 124.438 217.871 124.438 216.43C124.438 214.982 124.889 213.802 125.791 212.888C126.699 211.974 127.862 211.517 129.28 211.517C130.458 211.517 131.472 211.839 132.321 212.483C133.177 213.128 133.687 213.957 133.851 214.971L131.908 215.226C131.762 214.651 131.445 214.183 130.959 213.819C130.473 213.456 129.919 213.274 129.298 213.274C128.489 213.274 127.815 213.57 127.276 214.162C126.743 214.754 126.477 215.51 126.477 216.43C126.477 217.35 126.743 218.105 127.276 218.697C127.81 219.283 128.483 219.576 129.298 219.576C129.925 219.576 130.479 219.397 130.959 219.04C131.439 218.683 131.762 218.214 131.926 217.634L133.868 217.889C133.681 218.902 133.156 219.729 132.295 220.367C131.439 221.006 130.435 221.325 129.28 221.325ZM138.482 221.255C137.498 221.255 136.707 221.018 136.109 220.543C135.518 220.062 135.222 219.424 135.222 218.627C135.222 217.783 135.579 217.089 136.294 216.544C137.009 215.999 138.052 215.647 139.423 215.489L141.69 215.243V214.883C141.69 214.35 141.506 213.925 141.137 213.608C140.773 213.292 140.272 213.134 139.634 213.134C139.03 213.134 138.55 213.277 138.192 213.564C137.841 213.852 137.668 214.247 137.674 214.751H135.661C135.661 213.761 136.021 212.976 136.742 212.396C137.469 211.81 138.438 211.517 139.651 211.517C140.899 211.517 141.89 211.824 142.622 212.439C143.354 213.055 143.721 213.887 143.721 214.936V221H141.69V219.761H141.523C140.891 220.757 139.877 221.255 138.482 221.255ZM138.992 219.761C139.789 219.761 140.437 219.541 140.935 219.102C141.438 218.656 141.69 218.094 141.69 217.414V216.702L139.458 216.948C138.696 217.03 138.134 217.212 137.771 217.493C137.407 217.774 137.226 218.114 137.226 218.513C137.226 218.899 137.381 219.204 137.691 219.427C138.008 219.649 138.441 219.761 138.992 219.761Z" fill="#18181B"/>
</svg>
