<svg width="187" height="242" viewBox="0 0 187 242" fill="none" xmlns="http://www.w3.org/2000/svg">
<rect x="0.5" y="0.5" width="186" height="241" rx="7.5" stroke="#E4E4E7"/>
<rect x="34" y="75.5762" width="9.309" height="50.1764" fill="#E2EBFF"/>
<rect x="43.3125" y="75.5762" width="21.2777" height="50.1764" fill="#A9C4FF"/>
<rect x="72.5693" y="55.1919" width="9.309" height="70.5606" fill="#E2EBFF"/>
<rect x="81.8818" y="55.1919" width="21.2777" height="70.5606" fill="#A9C4FF"/>
<rect x="111.139" y="45" width="9.309" height="80.7527" fill="#E2EBFF"/>
<rect x="120.451" y="45" width="21.2777" height="80.7527" fill="#A9C4FF"/>
<path d="M52.9 73V73.6649H53.2439L53.4427 73.3842L52.9 73ZM69.1 50.1184V49.4535H68.7561L68.5573 49.7342L69.1 50.1184ZM96.775 50.1184V50.7834H97.0024L97.1822 50.6441L96.775 50.1184ZM115 36V35.3351H114.773L114.593 35.4743L115 36ZM142.47 36.4702C142.73 36.2105 142.73 35.7895 142.47 35.5298L138.239 31.2982C137.979 31.0385 137.558 31.0385 137.298 31.2982C137.038 31.5578 137.038 31.9789 137.298 32.2385L141.06 36L137.298 39.7615C137.038 40.0211 137.038 40.4422 137.298 40.7018C137.558 40.9615 137.979 40.9615 138.239 40.7018L142.47 36.4702ZM34 73.6649H52.9V72.3351H34V73.6649ZM53.4427 73.3842L69.6427 50.5026L68.5573 49.7342L52.3573 72.6158L53.4427 73.3842ZM69.1 50.7834H96.775V49.4535H69.1V50.7834ZM97.1822 50.6441L115.407 36.5257L114.593 35.4743L96.3678 49.5928L97.1822 50.6441ZM115 36.6649H142V35.3351H115V36.6649Z" fill="#709DFF"/>
<path d="M162.42 95.5229C162.42 99.0257 161.381 102.45 159.435 105.362C157.489 108.275 154.723 110.545 151.487 111.885C148.251 113.226 144.69 113.576 141.255 112.893C137.819 112.21 134.664 110.523 132.187 108.046C129.71 105.569 128.024 102.414 127.34 98.9781C126.657 95.5426 127.008 91.9816 128.348 88.7454C129.688 85.5093 131.958 82.7433 134.871 80.7972C137.783 78.8512 141.207 77.8125 144.71 77.8125V95.5229H162.42Z" fill="#E2EBFF"/>
<path d="M146.53 76C148.856 76 151.159 76.4581 153.307 77.3481C155.456 78.2382 157.408 79.5427 159.053 81.1873C160.697 82.8318 162.002 84.7842 162.892 86.9329C163.782 89.0817 164.24 91.3847 164.24 93.7104L146.53 93.7104V76Z" fill="#8DB0FF"/>
<path d="M20.9287 199H18.6611V188.181H14.5127V186.256H25.0684V188.181H20.9287V199ZM27.793 199H25.7539V189.859H27.7578V191.063H27.9336C28.1387 190.653 28.458 190.319 28.8916 190.062C29.3311 189.804 29.7969 189.675 30.2891 189.675C30.7285 189.675 31.0889 189.748 31.3701 189.895V191.749C30.8896 191.556 30.415 191.459 29.9463 191.459C29.3076 191.459 28.7891 191.711 28.3906 192.215C27.9922 192.719 27.793 193.378 27.793 194.192V199ZM35.4834 199.255C34.499 199.255 33.708 199.018 33.1104 198.543C32.5186 198.062 32.2227 197.424 32.2227 196.627C32.2227 195.783 32.5801 195.089 33.2949 194.544C34.0098 193.999 35.0527 193.647 36.4238 193.489L38.6914 193.243V192.883C38.6914 192.35 38.5068 191.925 38.1377 191.608C37.7744 191.292 37.2734 191.134 36.6348 191.134C36.0312 191.134 35.5508 191.277 35.1934 191.564C34.8418 191.852 34.6689 192.247 34.6748 192.751H32.6621C32.6621 191.761 33.0225 190.976 33.7432 190.396C34.4697 189.81 35.4395 189.517 36.6523 189.517C37.9004 189.517 38.8906 189.824 39.623 190.439C40.3555 191.055 40.7217 191.887 40.7217 192.936V199H38.6914V197.761H38.5244C37.8916 198.757 36.8779 199.255 35.4834 199.255ZM35.9932 197.761C36.79 197.761 37.4375 197.541 37.9355 197.102C38.4395 196.656 38.6914 196.094 38.6914 195.414V194.702L36.459 194.948C35.6973 195.03 35.1348 195.212 34.7715 195.493C34.4082 195.774 34.2266 196.114 34.2266 196.513C34.2266 196.899 34.3818 197.204 34.6924 197.427C35.0088 197.649 35.4424 197.761 35.9932 197.761ZM47.4102 199.325C45.9922 199.325 44.8291 198.871 43.9209 197.963C43.0186 197.049 42.5674 195.871 42.5674 194.43C42.5674 192.982 43.0186 191.802 43.9209 190.888C44.8291 189.974 45.9922 189.517 47.4102 189.517C48.5879 189.517 49.6016 189.839 50.4512 190.483C51.3066 191.128 51.8164 191.957 51.9805 192.971L50.0381 193.226C49.8916 192.651 49.5752 192.183 49.0889 191.819C48.6025 191.456 48.0488 191.274 47.4277 191.274C46.6191 191.274 45.9453 191.57 45.4062 192.162C44.873 192.754 44.6064 193.51 44.6064 194.43C44.6064 195.35 44.873 196.105 45.4062 196.697C45.9395 197.283 46.6133 197.576 47.4277 197.576C48.0547 197.576 48.6084 197.397 49.0889 197.04C49.5693 196.683 49.8916 196.214 50.0557 195.634L51.998 195.889C51.8105 196.902 51.2861 197.729 50.4248 198.367C49.5693 199.006 48.5645 199.325 47.4102 199.325ZM56.0586 199H54.0195V185.72H56.0586V193.604H56.2344L59.6885 189.859H62.2637L58.0889 194.245L62.3516 199H59.7676L56.2344 194.913H56.0586V199ZM73.3555 189.517C74.6621 189.517 75.752 189.979 76.625 190.905C77.498 191.825 77.9346 193 77.9346 194.43C77.9346 195.854 77.501 197.025 76.6338 197.945C75.7666 198.865 74.6797 199.325 73.373 199.325C72.6934 199.325 72.084 199.193 71.5449 198.93C71.0117 198.666 70.584 198.288 70.2617 197.796H70.0859V203.14H68.0293V189.859H70.0859V191.099H70.2617C70.9414 190.044 71.9727 189.517 73.3555 189.517ZM72.9424 191.292C72.0928 191.292 71.3867 191.594 70.8242 192.197C70.2676 192.795 69.9893 193.539 69.9893 194.43C69.9893 195.309 70.2676 196.047 70.8242 196.645C71.3867 197.242 72.0928 197.541 72.9424 197.541C73.792 197.541 74.4922 197.245 75.043 196.653C75.5996 196.056 75.8779 195.314 75.8779 194.43C75.8779 193.533 75.5996 192.786 75.043 192.188C74.4863 191.591 73.7861 191.292 72.9424 191.292ZM88.1211 197.972C87.1953 198.874 85.9941 199.325 84.5176 199.325C83.041 199.325 81.8398 198.874 80.9141 197.972C79.9941 197.069 79.5342 195.889 79.5342 194.43C79.5342 192.971 79.9941 191.787 80.9141 190.879C81.834 189.971 83.0352 189.517 84.5176 189.517C85.9883 189.517 87.1865 189.974 88.1123 190.888C89.0439 191.796 89.5098 192.977 89.5098 194.43C89.5098 195.889 89.0469 197.069 88.1211 197.972ZM84.5176 197.541C85.3789 197.541 86.085 197.251 86.6357 196.671C87.1924 196.085 87.4707 195.338 87.4707 194.43C87.4707 193.521 87.1924 192.771 86.6357 192.18C86.0791 191.588 85.373 191.292 84.5176 191.292C83.6562 191.292 82.9473 191.588 82.3906 192.18C81.8398 192.766 81.5645 193.516 81.5645 194.43C81.5645 195.338 81.8398 196.085 82.3906 196.671C82.9414 197.251 83.6504 197.541 84.5176 197.541ZM93.5352 199H91.4961V189.859H93.5V191.063H93.6758C93.8809 190.653 94.2002 190.319 94.6338 190.062C95.0732 189.804 95.5391 189.675 96.0312 189.675C96.4707 189.675 96.8311 189.748 97.1123 189.895V191.749C96.6318 191.556 96.1572 191.459 95.6885 191.459C95.0498 191.459 94.5312 191.711 94.1328 192.215C93.7344 192.719 93.5352 193.378 93.5352 194.192V199ZM102.395 199.325C101.562 199.325 100.895 199.059 100.391 198.525C99.8867 197.986 99.6348 197.274 99.6348 196.39V191.389H98.2549V189.859H99.6699L100.109 186.906H101.691L101.674 189.859H103.906V191.389H101.674V196.302C101.674 196.712 101.791 197.046 102.025 197.304C102.266 197.556 102.591 197.682 103.001 197.682C103.329 197.682 103.666 197.635 104.012 197.541V199.07C103.514 199.24 102.975 199.325 102.395 199.325ZM108.916 199H106.877V191.389H105.479V189.859H106.877V188.365C106.877 187.475 107.123 186.754 107.615 186.203C108.107 185.652 108.752 185.377 109.549 185.377C110.053 185.377 110.574 185.465 111.113 185.641V187.319C110.727 187.208 110.413 187.152 110.173 187.152C109.798 187.152 109.493 187.275 109.259 187.521C109.03 187.768 108.916 188.09 108.916 188.488V189.859H111.113V191.389H108.916V199ZM120.641 197.972C119.715 198.874 118.514 199.325 117.037 199.325C115.561 199.325 114.359 198.874 113.434 197.972C112.514 197.069 112.054 195.889 112.054 194.43C112.054 192.971 112.514 191.787 113.434 190.879C114.354 189.971 115.555 189.517 117.037 189.517C118.508 189.517 119.706 189.974 120.632 190.888C121.563 191.796 122.029 192.977 122.029 194.43C122.029 195.889 121.566 197.069 120.641 197.972ZM117.037 197.541C117.898 197.541 118.604 197.251 119.155 196.671C119.712 196.085 119.99 195.338 119.99 194.43C119.99 193.521 119.712 192.771 119.155 192.18C118.599 191.588 117.893 191.292 117.037 191.292C116.176 191.292 115.467 191.588 114.91 192.18C114.359 192.766 114.084 193.516 114.084 194.43C114.084 195.338 114.359 196.085 114.91 196.671C115.461 197.251 116.17 197.541 117.037 197.541ZM126.055 199H123.998V185.72H126.055V199ZM129.614 188.33C129.228 188.33 128.911 188.207 128.665 187.961C128.425 187.715 128.305 187.398 128.305 187.012C128.305 186.631 128.425 186.32 128.665 186.08C128.911 185.84 129.228 185.72 129.614 185.72C130.007 185.72 130.326 185.84 130.572 186.08C130.824 186.32 130.95 186.631 130.95 187.012C130.95 187.398 130.824 187.715 130.572 187.961C130.326 188.207 130.007 188.33 129.614 188.33ZM130.643 199H128.612V189.859H130.643V199ZM141.348 197.972C140.422 198.874 139.221 199.325 137.744 199.325C136.268 199.325 135.066 198.874 134.141 197.972C133.221 197.069 132.761 195.889 132.761 194.43C132.761 192.971 133.221 191.787 134.141 190.879C135.061 189.971 136.262 189.517 137.744 189.517C139.215 189.517 140.413 189.974 141.339 190.888C142.271 191.796 142.736 192.977 142.736 194.43C142.736 195.889 142.273 197.069 141.348 197.972ZM137.744 197.541C138.605 197.541 139.312 197.251 139.862 196.671C140.419 196.085 140.697 195.338 140.697 194.43C140.697 193.521 140.419 192.771 139.862 192.18C139.306 191.588 138.6 191.292 137.744 191.292C136.883 191.292 136.174 191.588 135.617 192.18C135.066 192.766 134.791 193.516 134.791 194.43C134.791 195.338 135.066 196.085 135.617 196.671C136.168 197.251 136.877 197.541 137.744 197.541ZM154.355 199H151.455L148.106 189.859H150.233L152.809 197.365H152.984L155.577 189.859H157.687L154.355 199ZM160.183 188.33C159.796 188.33 159.479 188.207 159.233 187.961C158.993 187.715 158.873 187.398 158.873 187.012C158.873 186.631 158.993 186.32 159.233 186.08C159.479 185.84 159.796 185.72 160.183 185.72C160.575 185.72 160.895 185.84 161.141 186.08C161.393 186.32 161.519 186.631 161.519 187.012C161.519 187.398 161.393 187.715 161.141 187.961C160.895 188.207 160.575 188.33 160.183 188.33ZM161.211 199H159.181V189.859H161.211V199ZM166.37 199.255C165.386 199.255 164.595 199.018 163.997 198.543C163.405 198.062 163.109 197.424 163.109 196.627C163.109 195.783 163.467 195.089 164.182 194.544C164.896 193.999 165.939 193.647 167.311 193.489L169.578 193.243V192.883C169.578 192.35 169.394 191.925 169.024 191.608C168.661 191.292 168.16 191.134 167.521 191.134C166.918 191.134 166.438 191.277 166.08 191.564C165.729 191.852 165.556 192.247 165.562 192.751H163.549C163.549 191.761 163.909 190.976 164.63 190.396C165.356 189.81 166.326 189.517 167.539 189.517C168.787 189.517 169.777 189.824 170.51 190.439C171.242 191.055 171.608 191.887 171.608 192.936V199H169.578V197.761H169.411C168.778 198.757 167.765 199.255 166.37 199.255ZM166.88 197.761C167.677 197.761 168.324 197.541 168.822 197.102C169.326 196.656 169.578 196.094 169.578 195.414V194.702L167.346 194.948C166.584 195.03 166.021 195.212 165.658 195.493C165.295 195.774 165.113 196.114 165.113 196.513C165.113 196.899 165.269 197.204 165.579 197.427C165.896 197.649 166.329 197.761 166.88 197.761ZM67.5723 221H58.3525V208.256H67.3877V210.146H60.6025V213.547H66.7637V215.331H60.6025V219.093H67.5723V221ZM76.0186 211.859H78.0576V221H76.0186V219.778H75.8428C75.1572 220.798 74.2402 221.308 73.0918 221.308C71.9961 221.308 71.1084 220.941 70.4287 220.209C69.7549 219.471 69.418 218.527 69.418 217.379V211.859H71.4658V217.238C71.4658 217.918 71.6533 218.469 72.0283 218.891C72.4033 219.312 72.9189 219.523 73.5752 219.523C74.2549 219.523 74.832 219.292 75.3066 218.829C75.7812 218.366 76.0186 217.789 76.0186 217.098V211.859ZM82.5488 221H80.5098V211.859H82.5137V213.063H82.6895C82.8945 212.653 83.2139 212.319 83.6475 212.062C84.0869 211.804 84.5527 211.675 85.0449 211.675C85.4844 211.675 85.8447 211.748 86.126 211.895V213.749C85.6455 213.556 85.1709 213.459 84.7021 213.459C84.0635 213.459 83.5449 213.711 83.1465 214.215C82.748 214.719 82.5488 215.378 82.5488 216.192V221ZM92.0586 221.325C90.5996 221.325 89.4043 220.859 88.4727 219.928C87.541 218.99 87.0752 217.789 87.0752 216.324C87.0752 214.924 87.5352 213.772 88.4551 212.87C89.3809 211.968 90.5586 211.517 91.9883 211.517C93.4121 211.517 94.5781 211.968 95.4863 212.87C96.3945 213.772 96.8486 214.93 96.8486 216.342C96.8486 216.67 96.8428 216.907 96.8311 217.054H89.1846C89.2959 217.851 89.6152 218.486 90.1426 218.961C90.6758 219.43 91.3408 219.664 92.1377 219.664C92.7295 219.664 93.2598 219.529 93.7285 219.26C94.2031 218.99 94.5664 218.621 94.8184 218.152L96.5234 218.803C96.1895 219.594 95.624 220.212 94.8271 220.657C94.0361 221.103 93.1133 221.325 92.0586 221.325ZM89.1846 215.542H94.748C94.6309 214.833 94.3145 214.262 93.7988 213.828C93.2891 213.389 92.668 213.169 91.9355 213.169C91.2207 213.169 90.6143 213.386 90.1162 213.819C89.624 214.253 89.3135 214.827 89.1846 215.542ZM103.449 221.325C101.99 221.325 100.795 220.859 99.8633 219.928C98.9316 218.99 98.4658 217.789 98.4658 216.324C98.4658 214.924 98.9258 213.772 99.8457 212.87C100.771 211.968 101.949 211.517 103.379 211.517C104.803 211.517 105.969 211.968 106.877 212.87C107.785 213.772 108.239 214.93 108.239 216.342C108.239 216.67 108.233 216.907 108.222 217.054H100.575C100.687 217.851 101.006 218.486 101.533 218.961C102.066 219.43 102.731 219.664 103.528 219.664C104.12 219.664 104.65 219.529 105.119 219.26C105.594 218.99 105.957 218.621 106.209 218.152L107.914 218.803C107.58 219.594 107.015 220.212 106.218 220.657C105.427 221.103 104.504 221.325 103.449 221.325ZM100.575 215.542H106.139C106.021 214.833 105.705 214.262 105.189 213.828C104.68 213.389 104.059 213.169 103.326 213.169C102.611 213.169 102.005 213.386 101.507 213.819C101.015 214.253 100.704 214.827 100.575 215.542ZM114.699 221.325C113.281 221.325 112.118 220.871 111.21 219.963C110.308 219.049 109.856 217.871 109.856 216.43C109.856 214.982 110.308 213.802 111.21 212.888C112.118 211.974 113.281 211.517 114.699 211.517C115.877 211.517 116.891 211.839 117.74 212.483C118.596 213.128 119.105 213.957 119.27 214.971L117.327 215.226C117.181 214.651 116.864 214.183 116.378 213.819C115.892 213.456 115.338 213.274 114.717 213.274C113.908 213.274 113.234 213.57 112.695 214.162C112.162 214.754 111.896 215.51 111.896 216.43C111.896 217.35 112.162 218.105 112.695 218.697C113.229 219.283 113.902 219.576 114.717 219.576C115.344 219.576 115.897 219.397 116.378 219.04C116.858 218.683 117.181 218.214 117.345 217.634L119.287 217.889C119.1 218.902 118.575 219.729 117.714 220.367C116.858 221.006 115.854 221.325 114.699 221.325ZM123.901 221.255C122.917 221.255 122.126 221.018 121.528 220.543C120.937 220.062 120.641 219.424 120.641 218.627C120.641 217.783 120.998 217.089 121.713 216.544C122.428 215.999 123.471 215.647 124.842 215.489L127.109 215.243V214.883C127.109 214.35 126.925 213.925 126.556 213.608C126.192 213.292 125.691 213.134 125.053 213.134C124.449 213.134 123.969 213.277 123.611 213.564C123.26 213.852 123.087 214.247 123.093 214.751H121.08C121.08 213.761 121.44 212.976 122.161 212.396C122.888 211.81 123.857 211.517 125.07 211.517C126.318 211.517 127.309 211.824 128.041 212.439C128.773 213.055 129.14 213.887 129.14 214.936V221H127.109V219.761H126.942C126.31 220.757 125.296 221.255 123.901 221.255ZM124.411 219.761C125.208 219.761 125.855 219.541 126.354 219.102C126.857 218.656 127.109 218.094 127.109 217.414V216.702L124.877 216.948C124.115 217.03 123.553 217.212 123.189 217.493C122.826 217.774 122.645 218.114 122.645 218.513C122.645 218.899 122.8 219.204 123.11 219.427C123.427 219.649 123.86 219.761 124.411 219.761Z" fill="#18181B"/>
</svg>
