<svg width="187" height="242" viewBox="0 0 187 242" fill="none" xmlns="http://www.w3.org/2000/svg">
<rect x="0.5" y="0.5" width="186" height="241" rx="7.5" stroke="#E4E4E7"/>
<rect x="19" y="28.8828" width="148" height="124.96" rx="5.36282" fill="#EFF4FF"/>
<rect x="27.8799" y="37.7627" width="134" height="32" rx="2" fill="#A9C4FF"/>
<rect x="27.8799" y="78.6426" width="75.48" height="11.84" rx="5.92" fill="#A9C4FF"/>
<rect x="27.8799" y="99.3628" width="63.64" height="8.88" rx="4.44" fill="#C6D7FF"/>
<rect x="94.4795" y="99.3628" width="63.64" height="8.88" rx="4.44" fill="#C6D7FF"/>
<rect x="27.8799" y="111.203" width="130.24" height="8.88" rx="4.44" fill="#C6D7FF"/>
<rect x="27.8799" y="128.962" width="130" height="16" rx="8" fill="#8DB0FF"/>
<path d="M74.6514 138.962H72.6826V134.714H74.6221C75.042 134.714 75.3828 134.822 75.6445 135.037C75.9062 135.25 76.0371 135.526 76.0371 135.866C76.0371 136.067 75.9795 136.249 75.8643 136.411C75.751 136.573 75.6064 136.683 75.4307 136.742V136.803C75.6416 136.864 75.8154 136.985 75.9521 137.167C76.0889 137.348 76.1572 137.553 76.1572 137.782C76.1572 138.129 76.0166 138.414 75.7354 138.634C75.4561 138.853 75.0947 138.962 74.6514 138.962ZM73.4385 135.327V136.496H74.502C74.7305 136.496 74.916 136.442 75.0586 136.334C75.2031 136.227 75.2754 136.087 75.2754 135.916C75.2754 135.744 75.2031 135.603 75.0586 135.494C74.916 135.382 74.7305 135.327 74.502 135.327H73.4385ZM73.4385 137.079V138.35H74.5195C74.7734 138.35 74.9824 138.29 75.1465 138.168C75.3125 138.047 75.3955 137.894 75.3955 137.708C75.3955 137.525 75.3125 137.375 75.1465 137.257C74.9824 137.138 74.7734 137.079 74.5195 137.079H73.4385ZM78.9697 135.916H79.6494V138.962H78.9697V138.555H78.9111C78.6826 138.895 78.377 139.065 77.9941 139.065C77.6289 139.065 77.333 138.943 77.1064 138.699C76.8818 138.453 76.7695 138.138 76.7695 137.755V135.916H77.4521V137.708C77.4521 137.935 77.5146 138.119 77.6396 138.259C77.7646 138.4 77.9365 138.47 78.1553 138.47C78.3818 138.47 78.5742 138.393 78.7324 138.239C78.8906 138.084 78.9697 137.892 78.9697 137.662V135.916ZM80.9238 140.325C80.7363 140.325 80.5518 140.291 80.3701 140.222L80.3789 139.654C80.5312 139.712 80.6729 139.742 80.8037 139.742C80.8447 139.742 80.8838 139.737 80.9209 139.727C80.96 139.719 80.9941 139.709 81.0234 139.698C81.0547 139.686 81.085 139.667 81.1143 139.642C81.1455 139.617 81.1709 139.594 81.1904 139.575C81.2119 139.555 81.2344 139.527 81.2578 139.49C81.2832 139.453 81.3027 139.422 81.3164 139.399C81.3301 139.375 81.3477 139.34 81.3691 139.293C81.3906 139.249 81.4062 139.214 81.416 139.191C81.4258 139.169 81.4414 139.132 81.4629 139.08C81.4844 139.029 81.499 138.994 81.5068 138.974L80.1123 135.916H80.833L81.7705 138.092H81.8291L82.6084 135.916H83.3232L82.1367 139.042C82.084 139.178 82.0371 139.292 81.9961 139.384C81.9551 139.478 81.9062 139.579 81.8496 139.686C81.793 139.793 81.7344 139.881 81.6738 139.95C81.6152 140.02 81.5488 140.085 81.4746 140.146C81.4004 140.208 81.3164 140.253 81.2227 140.281C81.1309 140.31 81.0312 140.325 80.9238 140.325ZM85.6494 135.406C85.5205 135.406 85.415 135.365 85.333 135.283C85.2529 135.201 85.2129 135.095 85.2129 134.966C85.2129 134.839 85.2529 134.736 85.333 134.656C85.415 134.576 85.5205 134.536 85.6494 134.536C85.7803 134.536 85.8867 134.576 85.9688 134.656C86.0527 134.736 86.0947 134.839 86.0947 134.966C86.0947 135.095 86.0527 135.201 85.9688 135.283C85.8867 135.365 85.7803 135.406 85.6494 135.406ZM85.9922 138.962H85.3154V135.916H85.9922V138.962ZM87.5273 138.962H86.8477V135.916H87.5273V136.323H87.5859C87.8105 135.983 88.1172 135.813 88.5059 135.813C88.8711 135.813 89.166 135.935 89.3906 136.179C89.6152 136.421 89.7275 136.733 89.7275 137.114V138.962H89.0449V137.169C89.0449 136.943 88.9824 136.759 88.8574 136.619C88.7324 136.478 88.5605 136.408 88.3418 136.408C88.1172 136.408 87.9248 136.485 87.7646 136.639C87.6064 136.792 87.5273 136.982 87.5273 137.21V138.962ZM94.916 138.962H91.8926V138.561L93.668 136.897C93.6836 136.883 93.7051 136.863 93.7324 136.835C93.8301 136.744 93.9023 136.673 93.9492 136.625C93.9961 136.576 94.0498 136.513 94.1104 136.437C94.1709 136.359 94.2129 136.284 94.2363 136.211C94.2617 136.139 94.2744 136.062 94.2744 135.98C94.2744 135.759 94.1982 135.577 94.0459 135.432C93.8955 135.286 93.709 135.212 93.4863 135.212C93.2402 135.212 93.0332 135.303 92.8652 135.485C92.6992 135.667 92.6104 135.9 92.5986 136.185H91.8984C91.8965 135.88 91.9629 135.605 92.0977 135.359C92.2344 135.113 92.4238 134.921 92.666 134.785C92.9102 134.646 93.1836 134.577 93.4863 134.577C93.9219 134.577 94.2812 134.704 94.5645 134.958C94.8496 135.209 94.9922 135.529 94.9922 135.916C94.9941 136.15 94.9258 136.372 94.7871 136.581C94.6504 136.79 94.4307 137.036 94.1279 137.319L93.0674 138.292V138.35H94.916V138.962ZM98.5898 139.071C98.1172 139.071 97.7295 138.919 97.4268 138.617C97.126 138.312 96.9756 137.919 96.9756 137.439C96.9756 136.957 97.126 136.563 97.4268 136.258C97.7295 135.954 98.1172 135.801 98.5898 135.801C98.9824 135.801 99.3203 135.909 99.6035 136.124C99.8887 136.338 100.059 136.615 100.113 136.953L99.4658 137.038C99.417 136.846 99.3115 136.69 99.1494 136.569C98.9873 136.448 98.8027 136.387 98.5957 136.387C98.3262 136.387 98.1016 136.486 97.9219 136.683C97.7441 136.88 97.6553 137.132 97.6553 137.439C97.6553 137.746 97.7441 137.998 97.9219 138.195C98.0996 138.39 98.3242 138.488 98.5957 138.488C98.8047 138.488 98.9893 138.428 99.1494 138.309C99.3096 138.19 99.417 138.034 99.4717 137.84L100.119 137.925C100.057 138.263 99.8818 138.539 99.5947 138.751C99.3096 138.964 98.9746 139.071 98.5898 139.071ZM101.473 138.962H100.787V134.536H101.473V138.962ZM102.659 135.406C102.53 135.406 102.425 135.365 102.343 135.283C102.263 135.201 102.223 135.095 102.223 134.966C102.223 134.839 102.263 134.736 102.343 134.656C102.425 134.576 102.53 134.536 102.659 134.536C102.79 134.536 102.896 134.576 102.979 134.656C103.062 134.736 103.104 134.839 103.104 134.966C103.104 135.095 103.062 135.201 102.979 135.283C102.896 135.365 102.79 135.406 102.659 135.406ZM103.002 138.962H102.325V135.916H103.002V138.962ZM105.328 139.071C104.855 139.071 104.468 138.919 104.165 138.617C103.864 138.312 103.714 137.919 103.714 137.439C103.714 136.957 103.864 136.563 104.165 136.258C104.468 135.954 104.855 135.801 105.328 135.801C105.721 135.801 106.059 135.909 106.342 136.124C106.627 136.338 106.797 136.615 106.852 136.953L106.204 137.038C106.155 136.846 106.05 136.69 105.888 136.569C105.726 136.448 105.541 136.387 105.334 136.387C105.064 136.387 104.84 136.486 104.66 136.683C104.482 136.88 104.394 137.132 104.394 137.439C104.394 137.746 104.482 137.998 104.66 138.195C104.838 138.39 105.062 138.488 105.334 138.488C105.543 138.488 105.728 138.428 105.888 138.309C106.048 138.19 106.155 138.034 106.21 137.84L106.857 137.925C106.795 138.263 106.62 138.539 106.333 138.751C106.048 138.964 105.713 139.071 105.328 139.071ZM108.211 138.962H107.531V134.536H108.211V137.164H108.27L109.421 135.916H110.279L108.888 137.377L110.309 138.962H109.447L108.27 137.6H108.211V138.962ZM111.976 139.077C111.528 139.077 111.18 138.976 110.93 138.775C110.682 138.574 110.558 138.292 110.558 137.931H111.182C111.186 138.125 111.259 138.28 111.401 138.397C111.546 138.514 111.743 138.573 111.993 138.573C112.196 138.573 112.356 138.533 112.474 138.453C112.593 138.373 112.652 138.264 112.652 138.127C112.652 138.047 112.635 137.982 112.6 137.931C112.566 137.88 112.505 137.84 112.415 137.811C112.325 137.782 112.25 137.762 112.189 137.752C112.131 137.741 112.03 137.727 111.888 137.711C111.884 137.711 111.88 137.711 111.876 137.711C111.874 137.709 111.871 137.708 111.867 137.708C111.773 137.699 111.69 137.689 111.618 137.679C111.546 137.667 111.463 137.651 111.369 137.629C111.277 137.608 111.197 137.583 111.129 137.556C111.062 137.527 110.994 137.489 110.924 137.442C110.854 137.395 110.796 137.342 110.751 137.284C110.708 137.225 110.672 137.154 110.643 137.07C110.615 136.986 110.602 136.893 110.602 136.792C110.602 136.485 110.719 136.243 110.953 136.065C111.189 135.885 111.502 135.795 111.891 135.795C112.287 135.795 112.609 135.89 112.857 136.08C113.105 136.267 113.229 136.518 113.229 136.833H112.588C112.586 136.67 112.521 136.542 112.392 136.449C112.263 136.353 112.094 136.305 111.885 136.305C111.691 136.305 111.535 136.345 111.416 136.425C111.297 136.505 111.237 136.613 111.237 136.748C111.237 136.822 111.253 136.883 111.284 136.932C111.317 136.979 111.378 137.017 111.466 137.046C111.556 137.074 111.627 137.092 111.68 137.102C111.732 137.112 111.83 137.125 111.973 137.14C112.014 137.146 112.044 137.15 112.063 137.152C112.157 137.164 112.24 137.175 112.312 137.187C112.387 137.199 112.469 137.216 112.559 137.24C112.648 137.263 112.727 137.291 112.793 137.322C112.859 137.351 112.927 137.389 112.995 137.436C113.063 137.483 113.119 137.537 113.162 137.597C113.205 137.658 113.239 137.73 113.265 137.814C113.292 137.898 113.306 137.991 113.306 138.092C113.306 138.403 113.188 138.645 112.954 138.819C112.72 138.991 112.394 139.077 111.976 139.077Z" fill="#F7FAFF"/>
<path d="M125.005 140.759H128.005M134.005 131.759V134.759M129.805 136.559L127.605 134.359M138.205 136.559L140.405 134.359M129.805 144.959L127.605 147.159M134.005 140.759L143.005 143.759L139.005 145.759L137.005 149.759L134.005 140.759Z" stroke="#3C5C99" stroke-width="2" stroke-linecap="round" stroke-linejoin="round"/>
<path d="M54.9336 199.396C53.2344 199.396 51.8867 198.985 50.8906 198.165C49.9004 197.345 49.4053 196.237 49.4053 194.843H51.6025C51.6025 195.692 51.8984 196.357 52.4902 196.838C53.0879 197.318 53.9199 197.559 54.9863 197.559C55.8945 197.559 56.5977 197.386 57.0957 197.04C57.5996 196.688 57.8516 196.202 57.8516 195.581C57.8516 195.37 57.8193 195.18 57.7549 195.01C57.6904 194.834 57.6113 194.685 57.5176 194.562C57.4238 194.438 57.2861 194.327 57.1045 194.228C56.9287 194.122 56.7646 194.037 56.6123 193.973C56.46 193.908 56.252 193.847 55.9883 193.788C55.7246 193.724 55.502 193.677 55.3203 193.647C55.1445 193.612 54.9014 193.571 54.5908 193.524C54.2861 193.478 54.0283 193.437 53.8174 193.401C53.6064 193.366 53.3486 193.316 53.0439 193.252C52.7451 193.182 52.4873 193.111 52.2705 193.041C52.0596 192.971 51.8252 192.88 51.5674 192.769C51.3096 192.657 51.0898 192.537 50.9082 192.408C50.7324 192.279 50.5537 192.127 50.3721 191.951C50.1904 191.77 50.0439 191.573 49.9326 191.362C49.8271 191.151 49.7393 190.908 49.6689 190.633C49.6045 190.357 49.5723 190.062 49.5723 189.745C49.5723 188.556 50.0176 187.609 50.9082 186.906C51.7988 186.197 53.0264 185.843 54.5908 185.843C56.1904 185.843 57.4561 186.238 58.3877 187.029C59.3252 187.814 59.7939 188.878 59.7939 190.22H57.667C57.667 189.417 57.4004 188.793 56.8672 188.348C56.334 187.902 55.5869 187.68 54.626 187.68C53.7412 187.68 53.0557 187.855 52.5693 188.207C52.083 188.553 51.8398 189.019 51.8398 189.604C51.8398 189.81 51.8721 189.997 51.9365 190.167C52.001 190.331 52.0801 190.472 52.1738 190.589C52.2734 190.706 52.4141 190.814 52.5957 190.914C52.7773 191.014 52.9443 191.096 53.0967 191.16C53.249 191.219 53.46 191.28 53.7295 191.345C53.999 191.403 54.2246 191.45 54.4062 191.485C54.5879 191.515 54.8369 191.553 55.1533 191.6C55.4639 191.646 55.7217 191.69 55.9268 191.731C56.1318 191.767 56.3867 191.819 56.6914 191.89C56.9961 191.954 57.251 192.021 57.4561 192.092C57.6611 192.162 57.8926 192.253 58.1504 192.364C58.4141 192.476 58.6309 192.596 58.8008 192.725C58.9707 192.854 59.1465 193.009 59.3281 193.19C59.5098 193.372 59.6533 193.571 59.7588 193.788C59.8643 193.999 59.9492 194.242 60.0137 194.518C60.084 194.793 60.1191 195.092 60.1191 195.414C60.1191 196.645 59.6592 197.617 58.7393 198.332C57.8252 199.041 56.5566 199.396 54.9336 199.396ZM63.3799 188.33C62.9932 188.33 62.6768 188.207 62.4307 187.961C62.1904 187.715 62.0703 187.398 62.0703 187.012C62.0703 186.631 62.1904 186.32 62.4307 186.08C62.6768 185.84 62.9932 185.72 63.3799 185.72C63.7725 185.72 64.0918 185.84 64.3379 186.08C64.5898 186.32 64.7158 186.631 64.7158 187.012C64.7158 187.398 64.5898 187.715 64.3379 187.961C64.0918 188.207 63.7725 188.33 63.3799 188.33ZM64.4082 199H62.3779V189.859H64.4082V199ZM69.0137 199H66.957V189.859H68.9609V191.116H69.1367C69.4004 190.624 69.7637 190.234 70.2266 189.947C70.6895 189.66 71.208 189.517 71.7822 189.517C72.3916 189.517 72.96 189.675 73.4873 189.991C74.0205 190.308 74.4131 190.724 74.665 191.239H74.8408C75.1572 190.706 75.5703 190.29 76.0801 189.991C76.5898 189.687 77.1729 189.534 77.8291 189.534C78.8779 189.534 79.7393 189.903 80.4131 190.642C81.0928 191.38 81.4326 192.323 81.4326 193.472V199H79.3936V193.656C79.3936 192.977 79.2002 192.414 78.8135 191.969C78.4268 191.523 77.9316 191.298 77.3281 191.292C76.7012 191.292 76.1855 191.515 75.7812 191.96C75.3828 192.405 75.1836 192.971 75.1836 193.656V199H73.1357V193.656C73.1357 192.941 72.9512 192.37 72.582 191.942C72.2129 191.509 71.7236 191.292 71.1143 191.292C70.4756 191.292 69.9658 191.509 69.585 191.942C69.2041 192.37 69.0137 192.941 69.0137 193.656V199ZM89.0176 189.517C90.3242 189.517 91.4141 189.979 92.2871 190.905C93.1602 191.825 93.5967 193 93.5967 194.43C93.5967 195.854 93.1631 197.025 92.2959 197.945C91.4287 198.865 90.3418 199.325 89.0352 199.325C88.3555 199.325 87.7461 199.193 87.207 198.93C86.6738 198.666 86.2461 198.288 85.9238 197.796H85.748V203.14H83.6914V189.859H85.748V191.099H85.9238C86.6035 190.044 87.6348 189.517 89.0176 189.517ZM88.6045 191.292C87.7549 191.292 87.0488 191.594 86.4863 192.197C85.9297 192.795 85.6514 193.539 85.6514 194.43C85.6514 195.309 85.9297 196.047 86.4863 196.645C87.0488 197.242 87.7549 197.541 88.6045 197.541C89.4541 197.541 90.1543 197.245 90.7051 196.653C91.2617 196.056 91.54 195.314 91.54 194.43C91.54 193.533 91.2617 192.786 90.7051 192.188C90.1484 191.591 89.4482 191.292 88.6045 191.292ZM97.6484 199H95.5918V185.72H97.6484V199ZM101.208 188.33C100.821 188.33 100.505 188.207 100.259 187.961C100.019 187.715 99.8984 187.398 99.8984 187.012C99.8984 186.631 100.019 186.32 100.259 186.08C100.505 185.84 100.821 185.72 101.208 185.72C101.601 185.72 101.92 185.84 102.166 186.08C102.418 186.32 102.544 186.631 102.544 187.012C102.544 187.398 102.418 187.715 102.166 187.961C101.92 188.207 101.601 188.33 101.208 188.33ZM102.236 199H100.206V189.859H102.236V199ZM107.65 199H105.611V191.389H104.214V189.859H105.611V188.365C105.611 187.475 105.857 186.754 106.35 186.203C106.842 185.652 107.486 185.377 108.283 185.377C108.787 185.377 109.309 185.465 109.848 185.641V187.319C109.461 187.208 109.147 187.152 108.907 187.152C108.532 187.152 108.228 187.275 107.993 187.521C107.765 187.768 107.65 188.09 107.65 188.488V189.859H109.848V191.389H107.65V199ZM112.827 188.33C112.44 188.33 112.124 188.207 111.878 187.961C111.638 187.715 111.518 187.398 111.518 187.012C111.518 186.631 111.638 186.32 111.878 186.08C112.124 185.84 112.44 185.72 112.827 185.72C113.22 185.72 113.539 185.84 113.785 186.08C114.037 186.32 114.163 186.631 114.163 187.012C114.163 187.398 114.037 187.715 113.785 187.961C113.539 188.207 113.22 188.33 112.827 188.33ZM113.855 199H111.825V189.859H113.855V199ZM120.975 199.325C119.516 199.325 118.32 198.859 117.389 197.928C116.457 196.99 115.991 195.789 115.991 194.324C115.991 192.924 116.451 191.772 117.371 190.87C118.297 189.968 119.475 189.517 120.904 189.517C122.328 189.517 123.494 189.968 124.402 190.87C125.311 191.772 125.765 192.93 125.765 194.342C125.765 194.67 125.759 194.907 125.747 195.054H118.101C118.212 195.851 118.531 196.486 119.059 196.961C119.592 197.43 120.257 197.664 121.054 197.664C121.646 197.664 122.176 197.529 122.645 197.26C123.119 196.99 123.482 196.621 123.734 196.152L125.439 196.803C125.105 197.594 124.54 198.212 123.743 198.657C122.952 199.103 122.029 199.325 120.975 199.325ZM118.101 193.542H123.664C123.547 192.833 123.23 192.262 122.715 191.828C122.205 191.389 121.584 191.169 120.852 191.169C120.137 191.169 119.53 191.386 119.032 191.819C118.54 192.253 118.229 192.827 118.101 193.542ZM131.952 199.325C130.64 199.325 129.55 198.868 128.683 197.954C127.815 197.034 127.382 195.859 127.382 194.43C127.382 193 127.812 191.825 128.674 190.905C129.541 189.979 130.628 189.517 131.935 189.517C132.608 189.517 133.215 189.651 133.754 189.921C134.293 190.185 134.727 190.56 135.055 191.046H135.23V185.72H137.287V199H135.23V197.761H135.055C134.369 198.804 133.335 199.325 131.952 199.325ZM130.256 196.653C130.812 197.245 131.516 197.541 132.365 197.541C133.215 197.541 133.918 197.242 134.475 196.645C135.037 196.047 135.318 195.309 135.318 194.43C135.318 193.539 135.037 192.795 134.475 192.197C133.918 191.594 133.215 191.292 132.365 191.292C131.516 191.292 130.812 191.594 130.256 192.197C129.699 192.795 129.421 193.539 129.421 194.43C129.421 195.32 129.699 196.062 130.256 196.653ZM63.6348 211.517C64.9414 211.517 66.0312 211.979 66.9043 212.905C67.7773 213.825 68.2139 215 68.2139 216.43C68.2139 217.854 67.7803 219.025 66.9131 219.945C66.0459 220.865 64.959 221.325 63.6523 221.325C62.9727 221.325 62.3633 221.193 61.8242 220.93C61.291 220.666 60.8633 220.288 60.541 219.796H60.3652V225.14H58.3086V211.859H60.3652V213.099H60.541C61.2207 212.044 62.252 211.517 63.6348 211.517ZM63.2217 213.292C62.3721 213.292 61.666 213.594 61.1035 214.197C60.5469 214.795 60.2686 215.539 60.2686 216.43C60.2686 217.309 60.5469 218.047 61.1035 218.645C61.666 219.242 62.3721 219.541 63.2217 219.541C64.0713 219.541 64.7715 219.245 65.3223 218.653C65.8789 218.056 66.1572 217.314 66.1572 216.43C66.1572 215.533 65.8789 214.786 65.3223 214.188C64.7656 213.591 64.0654 213.292 63.2217 213.292ZM72.2656 221H70.2266V211.859H72.2305V213.063H72.4062C72.6113 212.653 72.9307 212.319 73.3643 212.062C73.8037 211.804 74.2695 211.675 74.7617 211.675C75.2012 211.675 75.5615 211.748 75.8428 211.895V213.749C75.3623 213.556 74.8877 213.459 74.4189 213.459C73.7803 213.459 73.2617 213.711 72.8633 214.215C72.4648 214.719 72.2656 215.378 72.2656 216.192V221ZM85.3613 219.972C84.4355 220.874 83.2344 221.325 81.7578 221.325C80.2812 221.325 79.0801 220.874 78.1543 219.972C77.2344 219.069 76.7744 217.889 76.7744 216.43C76.7744 214.971 77.2344 213.787 78.1543 212.879C79.0742 211.971 80.2754 211.517 81.7578 211.517C83.2285 211.517 84.4268 211.974 85.3525 212.888C86.2842 213.796 86.75 214.977 86.75 216.43C86.75 217.889 86.2871 219.069 85.3613 219.972ZM81.7578 219.541C82.6191 219.541 83.3252 219.251 83.876 218.671C84.4326 218.085 84.7109 217.338 84.7109 216.43C84.7109 215.521 84.4326 214.771 83.876 214.18C83.3193 213.588 82.6133 213.292 81.7578 213.292C80.8965 213.292 80.1875 213.588 79.6309 214.18C79.0801 214.766 78.8047 215.516 78.8047 216.43C78.8047 217.338 79.0801 218.085 79.6309 218.671C80.1816 219.251 80.8906 219.541 81.7578 219.541ZM93.1836 221.325C91.7656 221.325 90.6025 220.871 89.6943 219.963C88.792 219.049 88.3408 217.871 88.3408 216.43C88.3408 214.982 88.792 213.802 89.6943 212.888C90.6025 211.974 91.7656 211.517 93.1836 211.517C94.3613 211.517 95.375 211.839 96.2246 212.483C97.0801 213.128 97.5898 213.957 97.7539 214.971L95.8115 215.226C95.665 214.651 95.3486 214.183 94.8623 213.819C94.376 213.456 93.8223 213.274 93.2012 213.274C92.3926 213.274 91.7188 213.57 91.1797 214.162C90.6465 214.754 90.3799 215.51 90.3799 216.43C90.3799 217.35 90.6465 218.105 91.1797 218.697C91.7129 219.283 92.3867 219.576 93.2012 219.576C93.8281 219.576 94.3818 219.397 94.8623 219.04C95.3428 218.683 95.665 218.214 95.8291 217.634L97.7715 217.889C97.584 218.902 97.0596 219.729 96.1982 220.367C95.3428 221.006 94.3379 221.325 93.1836 221.325ZM104.381 221.325C102.922 221.325 101.727 220.859 100.795 219.928C99.8633 218.99 99.3975 217.789 99.3975 216.324C99.3975 214.924 99.8574 213.772 100.777 212.87C101.703 211.968 102.881 211.517 104.311 211.517C105.734 211.517 106.9 211.968 107.809 212.87C108.717 213.772 109.171 214.93 109.171 216.342C109.171 216.67 109.165 216.907 109.153 217.054H101.507C101.618 217.851 101.938 218.486 102.465 218.961C102.998 219.43 103.663 219.664 104.46 219.664C105.052 219.664 105.582 219.529 106.051 219.26C106.525 218.99 106.889 218.621 107.141 218.152L108.846 218.803C108.512 219.594 107.946 220.212 107.149 220.657C106.358 221.103 105.436 221.325 104.381 221.325ZM101.507 215.542H107.07C106.953 214.833 106.637 214.262 106.121 213.828C105.611 213.389 104.99 213.169 104.258 213.169C103.543 213.169 102.937 213.386 102.438 213.819C101.946 214.253 101.636 214.827 101.507 215.542ZM115.077 221.343C113.735 221.343 112.689 221.041 111.939 220.438C111.195 219.834 110.823 218.99 110.823 217.906H112.695C112.707 218.486 112.927 218.952 113.354 219.304C113.788 219.655 114.38 219.831 115.13 219.831C115.739 219.831 116.22 219.711 116.571 219.471C116.929 219.23 117.107 218.905 117.107 218.495C117.107 218.255 117.055 218.059 116.949 217.906C116.85 217.754 116.665 217.634 116.396 217.546C116.126 217.458 115.9 217.399 115.719 217.37C115.543 217.335 115.241 217.294 114.813 217.247C114.802 217.247 114.79 217.247 114.778 217.247C114.772 217.241 114.764 217.238 114.752 217.238C114.471 217.209 114.222 217.18 114.005 217.15C113.788 217.115 113.539 217.065 113.258 217.001C112.982 216.937 112.742 216.863 112.537 216.781C112.338 216.693 112.133 216.579 111.922 216.438C111.711 216.298 111.538 216.14 111.403 215.964C111.274 215.788 111.166 215.574 111.078 215.322C110.996 215.07 110.955 214.792 110.955 214.487C110.955 213.567 111.307 212.841 112.01 212.308C112.719 211.769 113.656 211.499 114.822 211.499C116.012 211.499 116.979 211.783 117.723 212.352C118.467 212.914 118.839 213.667 118.839 214.61H116.914C116.908 214.124 116.712 213.74 116.325 213.459C115.938 213.172 115.432 213.028 114.805 213.028C114.225 213.028 113.756 213.148 113.398 213.389C113.041 213.629 112.862 213.951 112.862 214.355C112.862 214.578 112.909 214.763 113.003 214.909C113.103 215.05 113.284 215.164 113.548 215.252C113.817 215.334 114.031 215.39 114.189 215.419C114.348 215.448 114.641 215.486 115.068 215.533C115.191 215.551 115.282 215.562 115.341 215.568C115.622 215.604 115.871 215.639 116.088 215.674C116.311 215.709 116.557 215.762 116.826 215.832C117.096 215.902 117.33 215.984 117.529 216.078C117.729 216.166 117.931 216.28 118.136 216.421C118.341 216.562 118.508 216.723 118.637 216.904C118.766 217.086 118.868 217.303 118.944 217.555C119.026 217.807 119.067 218.085 119.067 218.39C119.067 219.321 118.716 220.048 118.013 220.569C117.31 221.085 116.331 221.343 115.077 221.343ZM125.044 221.343C123.702 221.343 122.656 221.041 121.906 220.438C121.162 219.834 120.79 218.99 120.79 217.906H122.662C122.674 218.486 122.894 218.952 123.321 219.304C123.755 219.655 124.347 219.831 125.097 219.831C125.706 219.831 126.187 219.711 126.538 219.471C126.896 219.23 127.074 218.905 127.074 218.495C127.074 218.255 127.021 218.059 126.916 217.906C126.816 217.754 126.632 217.634 126.362 217.546C126.093 217.458 125.867 217.399 125.686 217.37C125.51 217.335 125.208 217.294 124.78 217.247C124.769 217.247 124.757 217.247 124.745 217.247C124.739 217.241 124.73 217.238 124.719 217.238C124.438 217.209 124.188 217.18 123.972 217.15C123.755 217.115 123.506 217.065 123.225 217.001C122.949 216.937 122.709 216.863 122.504 216.781C122.305 216.693 122.1 216.579 121.889 216.438C121.678 216.298 121.505 216.14 121.37 215.964C121.241 215.788 121.133 215.574 121.045 215.322C120.963 215.07 120.922 214.792 120.922 214.487C120.922 213.567 121.273 212.841 121.977 212.308C122.686 211.769 123.623 211.499 124.789 211.499C125.979 211.499 126.945 211.783 127.689 212.352C128.434 212.914 128.806 213.667 128.806 214.61H126.881C126.875 214.124 126.679 213.74 126.292 213.459C125.905 213.172 125.398 213.028 124.771 213.028C124.191 213.028 123.723 213.148 123.365 213.389C123.008 213.629 122.829 213.951 122.829 214.355C122.829 214.578 122.876 214.763 122.97 214.909C123.069 215.05 123.251 215.164 123.515 215.252C123.784 215.334 123.998 215.39 124.156 215.419C124.314 215.448 124.607 215.486 125.035 215.533C125.158 215.551 125.249 215.562 125.308 215.568C125.589 215.604 125.838 215.639 126.055 215.674C126.277 215.709 126.523 215.762 126.793 215.832C127.062 215.902 127.297 215.984 127.496 216.078C127.695 216.166 127.897 216.28 128.103 216.421C128.308 216.562 128.475 216.723 128.604 216.904C128.732 217.086 128.835 217.303 128.911 217.555C128.993 217.807 129.034 218.085 129.034 218.39C129.034 219.321 128.683 220.048 127.979 220.569C127.276 221.085 126.298 221.343 125.044 221.343Z" fill="#18181B"/>
</svg>
