<svg width="15" height="8" viewBox="0 0 15 8" fill="none" xmlns="http://www.w3.org/2000/svg">
<path fill-rule="evenodd" clip-rule="evenodd" d="M6.79318 0.292787C6.98071 0.105316 7.23502 0 7.50018 0C7.76534 0 8.01965 0.105316 8.20718 0.292787L13.8642 5.94979C14.0463 6.13839 14.1471 6.39099 14.1449 6.65319C14.1426 6.91538 14.0374 7.1662 13.852 7.35161C13.6666 7.53701 13.4158 7.64218 13.1536 7.64446C12.8914 7.64674 12.6388 7.54594 12.4502 7.36379L7.50018 2.41379L2.55018 7.36379C2.36158 7.54594 2.10898 7.64674 1.84678 7.64446C1.58458 7.64218 1.33377 7.53701 1.14836 7.35161C0.962954 7.1662 0.857785 6.91538 0.855507 6.65319C0.853228 6.39099 0.954022 6.13839 1.13618 5.94979L6.79318 0.292787Z" fill="#3F3F46"/>
</svg>
