<svg width="15" height="8" viewBox="0 0 15 8" fill="none" xmlns="http://www.w3.org/2000/svg">
<path fill-rule="evenodd" clip-rule="evenodd" d="M8.20734 7.70685C8.01981 7.89433 7.76551 7.99964 7.50034 7.99964C7.23518 7.99964 6.98087 7.89433 6.79334 7.70685L1.13634 2.04985C1.04083 1.95761 0.964651 1.84726 0.912242 1.72526C0.859833 1.60326 0.832246 1.47204 0.831092 1.33926C0.829939 1.20648 0.855241 1.0748 0.905521 0.951901C0.955802 0.829005 1.03006 0.717352 1.12395 0.623459C1.21784 0.529567 1.32949 0.455314 1.45239 0.405033C1.57529 0.354752 1.70696 0.32945 1.83974 0.330604C1.97252 0.331758 2.10374 0.359344 2.22575 0.411753C2.34775 0.464162 2.4581 0.540344 2.55034 0.635854L7.50034 5.58586L12.4503 0.635854C12.6389 0.453696 12.8915 0.352902 13.1537 0.35518C13.4159 0.357459 13.6668 0.462628 13.8522 0.648036C14.0376 0.833444 14.1427 1.08426 14.145 1.34645C14.1473 1.60865 14.0465 1.86125 13.8643 2.04985L8.20734 7.70685Z" fill="#3C5C99"/>
</svg>
