<svg width="39" height="39" viewBox="0 0 39 39" fill="none" xmlns="http://www.w3.org/2000/svg">
<path d="M37.5976 19.4623C37.5976 29.4781 29.4781 37.5976 19.4623 37.5976C9.44642 37.5976 1.32697 29.4781 1.32697 19.4623C1.32697 9.44642 9.44642 1.32697 19.4623 1.32697C29.4781 1.32697 37.5976 9.44642 37.5976 19.4623Z" fill="#1C2A45" stroke="#223558" stroke-width="2.65395"/>
<g opacity="0.6">
<path d="M16.3333 14.0011C13.3941 14.0011 11 16.3833 11 19.3344V10.0899C12.5644 9.17735 14.3896 8.66772 16.3333 8.66772C22.2237 8.66772 27 13.444 27 19.3344H21.6667C21.6667 16.3833 19.2844 14.0011 16.3333 14.0011Z" fill="white"/>
<path d="M21.6667 24.6573C24.6059 24.6573 27 22.2751 27 19.324V28.5684C25.4356 29.481 23.6104 29.9906 21.6667 29.9906C15.7763 29.9906 11 25.2143 11 19.324H16.3333C16.3333 22.2632 18.7156 24.6573 21.6667 24.6573Z" fill="white"/>
</g>
</svg>
