<svg width="291" height="114" viewBox="0 0 291 114" fill="none" xmlns="http://www.w3.org/2000/svg">
<rect x="0.333008" y="14" width="290" height="100" rx="8" fill="#C6D7FF"/>
<rect x="14.333" width="28" height="28" rx="14" fill="#141F33"/>
<path d="M31.4619 18H24.7012V17.3164L28.8301 13.3516C29.3177 12.873 29.6322 12.5472 29.7734 12.374C30.1608 11.9001 30.3545 11.4238 30.3545 10.9453C30.3545 10.362 30.154 9.87663 29.7529 9.48926C29.3564 9.09733 28.862 8.90137 28.2695 8.90137C27.627 8.90137 27.0869 9.13835 26.6494 9.6123C26.2165 10.0817 25.9818 10.6787 25.9453 11.4033H24.7148C24.7148 10.3551 25.0498 9.48926 25.7197 8.80566C26.3896 8.12207 27.235 7.78027 28.2559 7.78027C29.2311 7.78027 30.0378 8.07194 30.6758 8.65527C31.3138 9.23405 31.6328 9.97005 31.6328 10.8633C31.6328 11.4147 31.4688 11.9411 31.1406 12.4424C30.8125 12.9437 30.2816 13.5407 29.5479 14.2334L26.8682 16.7422V16.8789H31.4619V18Z" fill="white"/>
<g opacity="0.6" filter="url(#filter0_f_21834_190387)">
<rect x="96.8252" y="92.3682" width="66.5679" height="2.71706" fill="url(#paint0_linear_21834_190387)"/>
</g>
<rect x="95.5127" y="56.7119" width="76.3272" height="34.4221" rx="4.07558" transform="rotate(-15 95.5127 56.7119)" fill="#709DFF"/>
<rect x="95.5127" y="56.7119" width="76.3272" height="34.4221" rx="4.07558" transform="rotate(-15 95.5127 56.7119)" fill="url(#paint1_linear_21834_190387)" fill-opacity="0.3"/>
<rect x="96.3446" y="57.1922" width="74.9687" height="33.0636" rx="3.39632" transform="rotate(-15 96.3446 57.1922)" stroke="url(#paint2_linear_21834_190387)" stroke-opacity="0.1" stroke-width="1.35853"/>
<rect x="96.3446" y="57.1922" width="74.9687" height="33.0636" rx="3.39632" transform="rotate(-15 96.3446 57.1922)" stroke="url(#paint3_linear_21834_190387)" stroke-opacity="0.3" stroke-width="1.35853"/>
<g filter="url(#filter1_d_21834_190387)">
<path d="M130.989 56.3675L133.605 66.1302L132.251 66.4929L125.37 60.6627L125.28 60.687L127.198 67.8469L125.725 68.2415L123.109 58.4789L124.473 58.1136L131.361 63.9521L131.452 63.9278L129.53 56.7584L130.989 56.3675ZM134.611 55.3971L137.227 65.1598L135.754 65.5544L133.138 55.7918L134.611 55.3971ZM144.636 52.711L147.252 62.4736L145.898 62.8364L139.017 57.0061L138.926 57.0304L140.845 64.1903L139.372 64.585L136.756 54.8223L138.119 54.457L145.007 60.2955L145.098 60.2713L143.177 53.1018L144.636 52.711Z" fill="white"/>
</g>
<g clip-path="url(#clip0_21834_190387)">
<path d="M155.024 80.312C158.508 79.3783 160.576 75.7966 159.642 72.312C158.709 68.8274 155.127 66.7595 151.642 67.6932C148.158 68.6269 146.09 72.2086 147.024 75.6932C147.957 79.1778 151.539 81.2457 155.024 80.312Z" fill="#F0F0F0"/>
<path d="M151.177 76.9316L152.723 80.5071C153.474 80.5776 154.251 80.5182 155.023 80.3114C157.735 79.5846 159.589 77.2527 159.837 74.6112L151.177 76.9316Z" fill="black"/>
<path d="M150.001 72.5435L149.552 68.6741C150.168 68.2373 150.87 67.9005 151.642 67.6937C154.354 66.9668 157.126 68.0593 158.661 70.2231L150.001 72.5435Z" fill="#6DA544"/>
<path d="M147.024 75.6933C147.751 78.4062 150.083 80.26 152.724 80.5077L149.553 68.6738C147.39 70.209 146.297 72.9805 147.024 75.6933Z" fill="#A2001D"/>
</g>
<rect x="145.645" y="69.5642" width="12.5537" height="12.5537" rx="6.27687" transform="rotate(-15 145.645 69.5642)" stroke="white" stroke-width="0.510211"/>
<g clip-path="url(#clip1_21834_190387)">
<path d="M134.024 87.311C137.508 86.3773 139.576 82.7956 138.642 79.311C137.709 75.8264 134.127 73.7585 130.642 74.6922C127.158 75.6259 125.09 79.2076 126.024 82.6922C126.957 86.1768 130.539 88.2447 134.024 87.311Z" fill="#F0F0F0"/>
<path d="M126.299 78.5008C125.976 79.2784 125.801 80.1217 125.8 80.9874L129.082 80.1079L126.299 78.5008Z" fill="#0052B4"/>
<path d="M137.984 77.7231C137.55 76.9741 136.977 76.331 136.309 75.819L134.702 78.6026L137.984 77.7231Z" fill="#0052B4"/>
<path d="M126.682 84.2798C127.116 85.0288 127.688 85.6719 128.357 86.1839L129.964 83.4003L126.682 84.2798Z" fill="#0052B4"/>
<path d="M134.833 74.967C134.056 74.6441 133.212 74.4695 132.347 74.4683L133.226 77.7506L134.833 74.967Z" fill="#0052B4"/>
<path d="M129.832 87.0352C130.61 87.358 131.453 87.5326 132.319 87.5339L131.44 84.2516L129.832 87.0352Z" fill="#0052B4"/>
<path d="M129.055 75.3502C128.306 75.7842 127.663 76.357 127.151 77.0254L129.934 78.6325L129.055 75.3502Z" fill="#0052B4"/>
<path d="M135.612 86.6519C136.361 86.2179 137.004 85.6451 137.516 84.9767L134.732 83.3696L135.612 86.6519Z" fill="#0052B4"/>
<path d="M135.584 81.8945L138.368 83.5017C138.69 82.7241 138.865 81.8807 138.866 81.015L135.584 81.8945Z" fill="#0052B4"/>
<path d="M138.368 78.5024L132.936 79.9581L132.935 79.9581L131.48 74.5251C131.201 74.5622 130.921 74.6175 130.642 74.6922C130.363 74.767 130.094 74.8589 129.834 74.9661L131.29 80.3991L131.29 80.3991L125.856 81.8549C125.894 82.1337 125.949 82.4133 126.024 82.6922C126.098 82.9712 126.19 83.2409 126.298 83.5009L131.731 82.0451L131.731 82.0451L133.186 87.4781C133.465 87.441 133.745 87.3858 134.024 87.311C134.303 87.2363 134.572 87.1444 134.832 87.0371L133.376 81.6041L133.376 81.6041L138.81 80.1483C138.772 79.8695 138.717 79.59 138.642 79.311C138.568 79.0321 138.476 78.7624 138.368 78.5024Z" fill="#D80027"/>
<path d="M134.42 82.2071L137.99 84.2681C138.085 84.104 138.172 83.9356 138.252 83.7637L135.196 81.9991L134.42 82.207L134.42 82.2071Z" fill="#D80027"/>
<path d="M131.128 83.0889L131.128 83.0889L129.067 86.6587C129.231 86.7535 129.399 86.8408 129.571 86.921L131.336 83.8647L131.128 83.0889Z" fill="#D80027"/>
<path d="M130.245 79.7967L130.245 79.7967L126.676 77.7356C126.581 77.8997 126.493 78.0682 126.413 78.24L129.47 80.0046L130.245 79.7967L130.245 79.7967Z" fill="#D80027"/>
<path d="M133.537 78.9149L135.598 75.345C135.434 75.2501 135.266 75.1629 135.094 75.0826L133.329 78.139L133.537 78.9149Z" fill="#D80027"/>
</g>
<rect x="124.645" y="76.5632" width="12.5537" height="12.5537" rx="6.27687" transform="rotate(-15 124.645 76.5632)" stroke="white" stroke-width="0.510211"/>
<g clip-path="url(#clip2_21834_190387)">
<path d="M144.86 87.949C150.075 86.5517 153.169 81.1912 151.772 75.9761C150.375 70.7611 145.014 67.6662 139.799 69.0636C134.584 70.461 131.489 75.8214 132.887 81.0365C134.284 86.2516 139.644 89.3464 144.86 87.949Z" fill="#6DA544"/>
<path d="M138.72 81.4541C138.902 82.1343 139.601 82.538 140.281 82.3557L143.976 81.3657C144.128 81.9325 144.711 82.2689 145.278 82.117L146.509 81.787C147.076 81.6351 147.413 81.0525 147.261 80.4856L146.931 79.254L138.72 81.4541Z" fill="#F0F0F0"/>
<path d="M145.437 73.2741L146.207 76.148C146.329 76.6008 146.059 77.0678 145.606 77.1891L145.936 78.4208C147.068 78.1175 147.742 76.9498 147.439 75.818L146.669 72.9441L145.437 73.2741Z" fill="#F0F0F0"/>
<path d="M137.381 78.5127C137.503 78.9655 137.233 79.4325 136.78 79.5539L137.11 80.7855C138.242 80.4822 138.916 79.3146 138.613 78.1827L137.843 75.3089L136.611 75.6389L137.381 78.5127Z" fill="#F0F0F0"/>
<path d="M144.823 73.439L143.592 73.769L144.362 76.6429L145.593 76.3129L144.823 73.439Z" fill="#F0F0F0"/>
<path d="M142.182 75.9062C142.213 76.0194 142.145 76.1362 142.032 76.1665C141.919 76.1968 141.802 76.1294 141.772 76.0162L141.332 74.374L140.1 74.704L140.54 76.3462C140.571 76.4594 140.503 76.5762 140.39 76.6065C140.277 76.6368 140.16 76.5694 140.13 76.4562L139.69 74.814L138.458 75.144L138.898 76.7863C139.11 77.5786 139.928 78.0505 140.72 77.8382C141.025 77.7564 141.282 77.5847 141.472 77.3594C141.748 77.4598 142.057 77.4799 142.362 77.3982C142.424 77.3817 142.483 77.3612 142.54 77.3377C142.549 77.7207 142.297 78.0755 141.911 78.179L142.241 79.4106C143.373 79.1073 144.047 77.9397 143.744 76.8078L143.414 75.5762L142.974 73.934L141.742 74.264L142.182 75.9062L142.182 75.9062Z" fill="#F0F0F0"/>
<path d="M141.297 78.3438L139.449 78.8389L139.779 80.0705L141.627 79.5755L141.297 78.3438Z" fill="#F0F0F0"/>
</g>
<rect x="130.824" y="71.8637" width="18.7881" height="18.7881" rx="9.39404" transform="rotate(-15 130.824 71.8637)" stroke="white" stroke-width="0.763588"/>
<rect x="80.833" y="37.5" width="31" height="31" rx="15.5" fill="#A9C4FF"/>
<rect x="80.833" y="37.5" width="31" height="31" rx="15.5" stroke="#C6D7FF"/>
<g clip-path="url(#clip3_21834_190387)">
<path d="M96.3405 45.0015C97.3174 45.0006 98.2609 45.3572 98.9929 46.0041C99.7249 46.651 100.195 47.5435 100.314 48.5131C100.433 49.4827 100.194 50.4624 99.6404 51.2674C99.087 52.0725 98.2581 52.6471 97.3101 52.8831L97.1405 52.9215V55.4015H98.7405C98.9444 55.4017 99.1405 55.4798 99.2888 55.6197C99.4371 55.7597 99.5263 55.951 99.5383 56.1546C99.5502 56.3581 99.484 56.5586 99.3531 56.7149C99.2222 56.8713 99.0366 56.9718 98.8341 56.9959L98.7405 57.0015H97.1405V57.8015H98.7405C98.9444 57.8017 99.1405 57.8798 99.2888 58.0197C99.4371 58.1597 99.5263 58.351 99.5383 58.5546C99.5502 58.7581 99.484 58.9586 99.3531 59.1149C99.2222 59.2713 99.0366 59.3718 98.8341 59.3959L98.7405 59.4015H97.1405V60.2015C97.1403 60.4054 97.0622 60.6015 96.9222 60.7498C96.7823 60.898 96.591 60.9873 96.3874 60.9992C96.1839 61.0112 95.9834 60.9449 95.8271 60.8141C95.6707 60.6832 95.5702 60.4975 95.5461 60.2951L95.5405 60.2015V52.9215C94.5714 52.7207 93.7111 52.168 93.1257 51.3701C92.5403 50.5721 92.2714 49.5855 92.3709 48.6009C92.4703 47.6163 92.9311 46.7034 93.6643 46.0386C94.3974 45.3739 95.3509 45.0044 96.3405 45.0015ZM96.3405 46.6015C96.0254 46.6015 95.7133 46.6635 95.4221 46.7842C95.1309 46.9048 94.8663 47.0815 94.6435 47.3044C94.4206 47.5273 94.2438 47.7918 94.1232 48.083C94.0026 48.3742 93.9405 48.6863 93.9405 49.0015C93.9405 49.3166 94.0026 49.6287 94.1232 49.9199C94.2438 50.2111 94.4206 50.4757 94.6435 50.6985C94.8663 50.9214 95.1309 51.0982 95.4221 51.2188C95.7133 51.3394 96.0254 51.4015 96.3405 51.4015C96.977 51.4015 97.5875 51.1486 98.0376 50.6985C98.4877 50.2484 98.7405 49.638 98.7405 49.0015C98.7405 48.3649 98.4877 47.7545 98.0376 47.3044C97.5875 46.8543 96.977 46.6015 96.3405 46.6015Z" fill="#283E66"/>
</g>
<defs>
<filter id="filter0_f_21834_190387" x="94.1081" y="89.6511" width="72.0025" height="8.1514" filterUnits="userSpaceOnUse" color-interpolation-filters="sRGB">
<feFlood flood-opacity="0" result="BackgroundImageFix"/>
<feBlend mode="normal" in="SourceGraphic" in2="BackgroundImageFix" result="shape"/>
<feGaussianBlur stdDeviation="1.35853" result="effect1_foregroundBlur_21834_190387"/>
</filter>
<filter id="filter1_d_21834_190387" x="123.109" y="52.7109" width="24.8218" height="16.21" filterUnits="userSpaceOnUse" color-interpolation-filters="sRGB">
<feFlood flood-opacity="0" result="BackgroundImageFix"/>
<feColorMatrix in="SourceAlpha" type="matrix" values="0 0 0 0 0 0 0 0 0 0 0 0 0 0 0 0 0 0 127 0" result="hardAlpha"/>
<feOffset dx="0.679264" dy="0.679264"/>
<feComposite in2="hardAlpha" operator="out"/>
<feColorMatrix type="matrix" values="0 0 0 0 0 0 0 0 0 0 0 0 0 0 0 0 0 0 0.25 0"/>
<feBlend mode="normal" in2="BackgroundImageFix" result="effect1_dropShadow_21834_190387"/>
<feBlend mode="normal" in="SourceGraphic" in2="effect1_dropShadow_21834_190387" result="shape"/>
</filter>
<linearGradient id="paint0_linear_21834_190387" x1="96.8252" y1="93.7267" x2="163.393" y2="93.7267" gradientUnits="userSpaceOnUse">
<stop stop-color="#11244F" stop-opacity="0"/>
<stop offset="0.197089" stop-color="#11244F"/>
<stop offset="1" stop-color="#11244F" stop-opacity="0"/>
</linearGradient>
<linearGradient id="paint1_linear_21834_190387" x1="121.343" y1="94.3726" x2="154.55" y2="51.4029" gradientUnits="userSpaceOnUse">
<stop stop-color="#002270"/>
<stop offset="1" stop-color="#002270" stop-opacity="0"/>
</linearGradient>
<linearGradient id="paint2_linear_21834_190387" x1="169.811" y1="58.3859" x2="154.707" y2="97.0907" gradientUnits="userSpaceOnUse">
<stop stop-opacity="0"/>
<stop offset="1"/>
</linearGradient>
<linearGradient id="paint3_linear_21834_190387" x1="171.653" y1="58.0808" x2="146.138" y2="100.935" gradientUnits="userSpaceOnUse">
<stop stop-color="white"/>
<stop offset="1" stop-color="white" stop-opacity="0"/>
</linearGradient>
<clipPath id="clip0_21834_190387">
<rect x="145.333" y="69.3838" width="13.0639" height="13.0639" rx="6.53197" transform="rotate(-15 145.333 69.3838)" fill="white"/>
</clipPath>
<clipPath id="clip1_21834_190387">
<rect x="124.333" y="76.3828" width="13.0639" height="13.0639" rx="6.53197" transform="rotate(-15 124.333 76.3828)" fill="white"/>
</clipPath>
<clipPath id="clip2_21834_190387">
<rect x="130.356" y="71.5938" width="19.5517" height="19.5517" rx="9.77583" transform="rotate(-15 130.356 71.5938)" fill="white"/>
</clipPath>
<clipPath id="clip3_21834_190387">
<rect width="19.2" height="19.2" fill="white" transform="translate(86.7334 43.3999)"/>
</clipPath>
</defs>
</svg>
