<svg width="34" height="28" viewBox="0 0 34 28" fill="none" xmlns="http://www.w3.org/2000/svg">
<path d="M2.15625 15.4785L9.23633 0.488281L14.0703 1.80664L9.04102 14.209C10.7012 14.5671 12.0195 15.3483 12.9961 16.5527C13.9727 17.7572 14.4609 19.2383 14.4609 20.9961C14.4609 22.9492 13.7936 24.5768 12.459 25.8789C11.1569 27.1484 9.51302 27.7832 7.52734 27.7832C5.47656 27.7832 3.80013 27.1484 2.49805 25.8789C1.19596 24.5768 0.544922 22.9492 0.544922 20.9961C0.544922 19.2383 1.08203 17.3991 2.15625 15.4785ZM20.9551 15.4785L28.0352 0.488281L32.9668 1.80664L27.9375 14.209C29.5651 14.5671 30.8672 15.3646 31.8438 16.6016C32.8529 17.806 33.3574 19.2708 33.3574 20.9961C33.3574 22.9492 32.6901 24.5768 31.3555 25.8789C30.0534 27.1484 28.4095 27.7832 26.4238 27.7832C24.373 27.7832 22.6966 27.1484 21.3945 25.8789C20.0924 24.5768 19.4414 22.9492 19.4414 20.9961C19.4414 19.401 19.946 17.5618 20.9551 15.4785Z" fill="#141F33"/>
</svg>
