<svg width="34" height="28" viewBox="0 0 34 28" fill="none" xmlns="http://www.w3.org/2000/svg">
<path d="M13.1426 12.8906L6.0625 27.8809L1.13086 26.6113L6.16016 14.209C4.53255 13.8509 3.21419 13.0697 2.20508 11.8652C1.22852 10.6283 0.740234 9.14714 0.740234 7.42188C0.740234 5.46875 1.39128 3.85742 2.69336 2.58789C3.99544 1.31836 5.63932 0.683594 7.625 0.683594C9.67578 0.683594 11.3522 1.31836 12.6543 2.58789C13.9889 3.85742 14.6562 5.46875 14.6562 7.42188C14.6562 8.98438 14.1517 10.8073 13.1426 12.8906ZM31.9414 12.8906L24.8613 27.8809L19.9297 26.6113L24.959 14.209C23.3314 13.8509 22.013 13.0697 21.0039 11.8652C20.0273 10.6283 19.5391 9.14714 19.5391 7.42188C19.5391 5.46875 20.1901 3.85742 21.4922 2.58789C22.8268 1.31836 24.5195 0.683594 26.5703 0.683594C28.556 0.683594 30.1999 1.31836 31.502 2.58789C32.804 3.85742 33.4551 5.46875 33.4551 7.42188C33.4551 8.98438 32.9505 10.8073 31.9414 12.8906Z" fill="#141F33"/>
</svg>
