<svg width="353" height="30" viewBox="0 0 353 30" fill="none" xmlns="http://www.w3.org/2000/svg">
<rect width="30" height="30" rx="15" fill="#3C5C99"/>
<path d="M11.152 20.266C10.2653 20.266 9.47667 20.0467 8.786 19.608C8.10467 19.16 7.57267 18.5393 7.19 17.746C6.80733 16.9433 6.616 16.0333 6.616 15.016C6.616 13.9987 6.80733 13.0933 7.19 12.3C7.57267 11.4973 8.10467 10.8767 8.786 10.438C9.47667 9.99 10.2653 9.766 11.152 9.766C12.0293 9.766 12.8133 9.99 13.504 10.438C14.1947 10.8767 14.7313 11.4973 15.114 12.3C15.4967 13.0933 15.688 13.9987 15.688 15.016C15.688 16.0333 15.4967 16.9433 15.114 17.746C14.7313 18.5393 14.1947 19.16 13.504 19.608C12.8133 20.0467 12.0293 20.266 11.152 20.266ZM11.152 18.264C11.5907 18.264 11.978 18.1287 12.314 17.858C12.65 17.5873 12.9067 17.2047 13.084 16.71C13.2707 16.2153 13.364 15.6507 13.364 15.016C13.364 14.3813 13.2707 13.8167 13.084 13.322C12.9067 12.8273 12.65 12.4447 12.314 12.174C11.978 11.9033 11.5907 11.768 11.152 11.768C10.7133 11.768 10.326 11.9033 9.99 12.174C9.654 12.4447 9.39267 12.8273 9.206 13.322C9.02867 13.8167 8.94 14.3813 8.94 15.016C8.94 15.6507 9.02867 16.2153 9.206 16.71C9.39267 17.2047 9.654 17.5873 9.99 17.858C10.326 18.1287 10.7133 18.264 11.152 18.264ZM19.1089 12.706H18.9549L16.6869 14.386V12.09L19.4309 10.032H21.3769V20H19.1089V12.706Z" fill="white"/>
<path d="M47.44 6.76H50.76V21H47.44V6.76ZM53.3509 10.76H56.3109V12.2H56.5109C57.2709 11.04 58.2643 10.46 59.4909 10.46C60.2509 10.46 60.9243 10.6467 61.5109 11.02C62.0976 11.38 62.5509 11.8867 62.8709 12.54C63.1909 13.18 63.3509 13.9067 63.3509 14.72V21H60.3909V15.14C60.3909 14.5 60.2176 13.9867 59.8709 13.6C59.5243 13.2 59.0576 13 58.4709 13C57.8709 13 57.3576 13.2133 56.9309 13.64C56.5176 14.0667 56.3109 14.6 56.3109 15.24V21H53.3509V10.76ZM67.0598 9.34C66.5398 9.34 66.1132 9.18 65.7798 8.86C65.4465 8.52667 65.2798 8.10667 65.2798 7.6C65.2798 7.09333 65.4465 6.68 65.7798 6.36C66.1132 6.02667 66.5398 5.86 67.0598 5.86C67.5798 5.86 68.0065 6.02667 68.3398 6.36C68.6732 6.68 68.8398 7.09333 68.8398 7.6C68.8398 8.10667 68.6732 8.52667 68.3398 8.86C68.0065 9.18 67.5798 9.34 67.0598 9.34ZM65.5798 10.76H68.5398V21H65.5798V10.76ZM75.0695 21.32C74.0429 21.32 73.2229 20.9867 72.6095 20.32C71.9962 19.6533 71.6895 18.78 71.6895 17.7V12.92H70.2495V10.76H71.7695L72.3495 7.52H74.6695L74.6495 10.76H76.9895V12.92H74.6495V17.58C74.6495 18.02 74.7695 18.3733 75.0095 18.64C75.2629 18.8933 75.5962 19.02 76.0095 19.02C76.3162 19.02 76.6695 18.9733 77.0695 18.88V21C76.7895 21.0933 76.4629 21.1667 76.0895 21.22C75.7162 21.2867 75.3762 21.32 75.0695 21.32ZM80.4778 9.34C79.9578 9.34 79.5311 9.18 79.1978 8.86C78.8645 8.52667 78.6978 8.10667 78.6978 7.6C78.6978 7.09333 78.8645 6.68 79.1978 6.36C79.5311 6.02667 79.9578 5.86 80.4778 5.86C80.9978 5.86 81.4245 6.02667 81.7578 6.36C82.0911 6.68 82.2578 7.09333 82.2578 7.6C82.2578 8.10667 82.0911 8.52667 81.7578 8.86C81.4245 9.18 80.9978 9.34 80.4778 9.34ZM78.9978 10.76H81.9578V21H78.9978V10.76ZM87.2075 21.26C86.1408 21.26 85.2808 21 84.6275 20.48C83.9875 19.9467 83.6675 19.2267 83.6675 18.32C83.6675 16.3867 85.2808 15.22 88.5075 14.82L90.6875 14.56V14.14C90.6875 13.6467 90.5208 13.2533 90.1875 12.96C89.8675 12.6533 89.4142 12.5 88.8275 12.5C88.2808 12.5 87.8408 12.6467 87.5075 12.94C87.1742 13.22 87.0142 13.6133 87.0275 14.12H84.1275C84.1275 13 84.5542 12.1067 85.4075 11.44C86.2742 10.7733 87.4275 10.44 88.8675 10.44C90.3208 10.44 91.4808 10.7867 92.3475 11.48C93.2142 12.16 93.6475 13.08 93.6475 14.24V21H90.6875V19.7H90.4875C90.1675 20.2067 89.7208 20.5933 89.1475 20.86C88.5875 21.1267 87.9408 21.26 87.2075 21.26ZM88.1875 19.32C88.9208 19.32 89.5208 19.1067 89.9875 18.68C90.4542 18.2533 90.6875 17.72 90.6875 17.08V16.36L88.5875 16.62C87.8942 16.7 87.3808 16.8733 87.0475 17.14C86.7275 17.3933 86.5675 17.7067 86.5675 18.08C86.5675 18.4667 86.7075 18.7733 86.9875 19C87.2808 19.2133 87.6808 19.32 88.1875 19.32ZM95.7528 6.16H98.7128V21H95.7528V6.16ZM113.37 21.38C111.823 21.38 110.45 21.0733 109.25 20.46C108.063 19.8333 107.137 18.9533 106.47 17.82C105.817 16.6867 105.49 15.3733 105.49 13.88C105.49 12.4 105.823 11.0933 106.49 9.96C107.157 8.82667 108.083 7.94667 109.27 7.32C110.47 6.69333 111.837 6.38 113.37 6.38C114.903 6.38 116.263 6.69333 117.45 7.32C118.65 7.94667 119.583 8.82667 120.25 9.96C120.917 11.0933 121.25 12.4 121.25 13.88C121.25 15.3733 120.917 16.6867 120.25 17.82C119.597 18.9533 118.67 19.8333 117.47 20.46C116.283 21.0733 114.917 21.38 113.37 21.38ZM113.37 18.62C114.25 18.62 115.037 18.42 115.73 18.02C116.423 17.62 116.963 17.06 117.35 16.34C117.737 15.62 117.93 14.8 117.93 13.88C117.93 12.96 117.737 12.1467 117.35 11.44C116.963 10.72 116.423 10.16 115.73 9.76C115.037 9.36 114.25 9.16 113.37 9.16C112.49 9.16 111.703 9.36 111.01 9.76C110.317 10.16 109.777 10.72 109.39 11.44C109.003 12.1467 108.81 12.96 108.81 13.88C108.81 14.8 109.003 15.62 109.39 16.34C109.777 17.06 110.317 17.62 111.01 18.02C111.703 18.42 112.49 18.62 113.37 18.62ZM124.016 12.92H122.576V10.76H124.016V9.54C124.016 8.43333 124.316 7.54 124.916 6.86C125.516 6.18 126.309 5.84 127.296 5.84C127.922 5.84 128.582 5.94667 129.276 6.16V8.52C128.929 8.42667 128.602 8.38 128.296 8.38C127.896 8.38 127.576 8.49333 127.336 8.72C127.096 8.94667 126.976 9.25333 126.976 9.64V10.76H129.276V12.92H126.976V21H124.016V12.92ZM131.457 12.92H130.017V10.76H131.457V9.54C131.457 8.43333 131.757 7.54 132.357 6.86C132.957 6.18 133.75 5.84 134.737 5.84C135.364 5.84 136.024 5.94667 136.717 6.16V8.52C136.37 8.42667 136.044 8.38 135.737 8.38C135.337 8.38 135.017 8.49333 134.777 8.72C134.537 8.94667 134.417 9.25333 134.417 9.64V10.76H136.717V12.92H134.417V21H131.457V12.92ZM143.278 21.32C142.184 21.32 141.204 21.0933 140.338 20.64C139.484 20.1733 138.818 19.52 138.338 18.68C137.858 17.84 137.618 16.88 137.618 15.8C137.618 14.7467 137.858 13.8133 138.338 13C138.818 12.1867 139.484 11.56 140.338 11.12C141.191 10.6667 142.164 10.44 143.258 10.44C144.338 10.44 145.291 10.6667 146.118 11.12C146.958 11.5733 147.604 12.2067 148.058 13.02C148.524 13.8333 148.758 14.7733 148.758 15.84C148.758 16.2933 148.744 16.5933 148.718 16.74H140.678C140.798 17.4733 141.098 18.0533 141.578 18.48C142.071 18.9067 142.678 19.12 143.398 19.12C143.958 19.12 144.451 18.9933 144.878 18.74C145.304 18.4867 145.631 18.1467 145.858 17.72L148.378 18.36C148.058 19.28 147.438 20.0067 146.518 20.54C145.598 21.06 144.518 21.32 143.278 21.32ZM145.738 14.9C145.644 14.2333 145.364 13.6933 144.898 13.28C144.431 12.8533 143.858 12.64 143.178 12.64C142.511 12.64 141.951 12.8467 141.498 13.26C141.058 13.66 140.778 14.2067 140.658 14.9H145.738ZM150.578 10.76H153.498V12.16H153.718C153.944 11.68 154.284 11.2933 154.738 11C155.204 10.7067 155.704 10.56 156.238 10.56C156.664 10.56 157.051 10.6467 157.398 10.82V13.48C157.131 13.36 156.838 13.2667 156.518 13.2C156.211 13.1333 155.944 13.1 155.718 13.1C155.064 13.1 154.538 13.3467 154.138 13.84C153.738 14.3333 153.538 14.9733 153.538 15.76V21H150.578V10.76Z" fill="#3C5C99"/>
</svg>
