<svg width="270" height="182" viewBox="0 0 270 182" fill="none" xmlns="http://www.w3.org/2000/svg">
<rect x="71.1836" y="0.535199" width="149.856" height="180.897" rx="5.88719" fill="url(#paint0_linear_22113_125)" stroke="url(#paint1_linear_22113_125)" stroke-width="1.0704"/>
<ellipse opacity="0.6" cx="95.6245" cy="26.0463" rx="12.1323" ry="12.1323" fill="#C4D7FE"/>
<path d="M100.469 26.093C100.479 25.9602 100.484 25.826 100.484 25.6906C100.484 24.8749 100.297 24.1029 99.9633 23.4152C99.3012 24.0437 98.5132 24.5408 97.6409 24.8646C97.6631 25.137 97.6744 25.4125 97.6744 25.6906C97.6744 26.28 97.6236 26.8575 97.5262 27.419C98.593 27.1505 99.586 26.6964 100.469 26.093Z" fill="#1E2F4E"/>
<path d="M96.6759 27.5907C96.8042 26.9775 96.8716 26.3419 96.8716 25.6906C96.8716 25.4935 96.8655 25.2978 96.8533 25.1037C96.344 25.225 95.8125 25.2892 95.266 25.2892C94.7196 25.2892 94.1881 25.225 93.6788 25.1037C93.6666 25.2978 93.6604 25.4935 93.6604 25.6906C93.6604 26.3419 93.7279 26.9775 93.8562 27.5907C94.3158 27.6611 94.7867 27.6976 95.266 27.6976C95.7454 27.6976 96.2162 27.6611 96.6759 27.5907Z" fill="#1E2F4E"/>
<path d="M94.0737 28.4303C94.4647 28.4766 94.8626 28.5004 95.266 28.5004C95.6695 28.5004 96.0674 28.4766 96.4583 28.4303C96.1834 29.3164 95.7785 30.1454 95.266 30.8949C94.7536 30.1454 94.3487 29.3164 94.0737 28.4303Z" fill="#1E2F4E"/>
<path d="M93.0059 27.419C92.9085 26.8575 92.8576 26.28 92.8576 25.6906C92.8576 25.4125 92.869 25.137 92.8912 24.8646C92.0189 24.5408 91.2309 24.0437 90.5688 23.4152C90.235 24.1029 90.0479 24.8749 90.0479 25.6906C90.0479 25.826 90.053 25.9602 90.0631 26.093C90.9461 26.6964 91.9391 27.1505 93.0059 27.419Z" fill="#1E2F4E"/>
<path d="M100.273 27.1638C99.7298 29.0145 98.1881 30.4382 96.2709 30.8122C96.7346 30.0323 97.0956 29.1844 97.3354 28.2868C98.3843 28.0669 99.3729 27.6833 100.273 27.1638Z" fill="#1E2F4E"/>
<path d="M90.2587 27.1638C91.1592 27.6833 92.1478 28.0669 93.1967 28.2868C93.4364 29.1844 93.7975 30.0324 94.2612 30.8122C92.344 30.4382 90.8023 29.0145 90.2587 27.1638Z" fill="#1E2F4E"/>
<path d="M96.2709 20.5691C97.6205 20.8324 98.784 21.6158 99.5442 22.7021C98.9777 23.2742 98.2973 23.7332 97.5397 24.0423C97.333 22.7914 96.8949 21.6185 96.2709 20.5691Z" fill="#1E2F4E"/>
<path d="M95.266 20.4863C96.0307 21.6047 96.5557 22.8998 96.7673 24.2978C96.2874 24.4209 95.7844 24.4864 95.266 24.4864C94.7477 24.4864 94.2447 24.4209 93.7648 24.2978C93.9764 22.8998 94.5014 21.6047 95.266 20.4863Z" fill="#1E2F4E"/>
<path d="M94.2612 20.5691C93.6372 21.6185 93.1991 22.7914 92.9924 24.0423C92.2348 23.7332 91.5544 23.2742 90.9878 22.7021C91.7481 21.6158 92.9116 20.8324 94.2612 20.5691Z" fill="#1E2F4E"/>
<rect x="0.535199" y="126.84" width="143.433" height="37.4639" rx="5.88719" fill="#F7FAFF" stroke="#E2EBFF" stroke-width="1.0704"/>
<path d="M46.9018 142.461H46.1135V140.89L44.5246 138.047H45.3434L46.4757 140.172H46.5396L47.6354 138.047H48.4724L46.9018 140.89V142.461ZM51.1479 142.105C50.8273 142.417 50.4113 142.574 49.9 142.574C49.3886 142.574 48.9726 142.417 48.652 142.105C48.3334 141.792 48.1741 141.383 48.1741 140.878C48.1741 140.373 48.3334 139.963 48.652 139.648C48.9706 139.334 49.3866 139.177 49.9 139.177C50.4093 139.177 50.8243 139.335 51.1449 139.651C51.4675 139.966 51.6289 140.375 51.6289 140.878C51.6289 141.383 51.4686 141.792 51.1479 142.105ZM49.9 141.956C50.1983 141.956 50.4428 141.855 50.6335 141.654C50.8263 141.451 50.9227 141.193 50.9227 140.878C50.9227 140.564 50.8263 140.304 50.6335 140.099C50.4408 139.894 50.1962 139.792 49.9 139.792C49.6017 139.792 49.3562 139.894 49.1634 140.099C48.9726 140.302 48.8773 140.562 48.8773 140.878C48.8773 141.193 48.9726 141.451 49.1634 141.654C49.3541 141.855 49.5997 141.956 49.9 141.956ZM54.5418 139.295H55.248V142.461H54.5418V142.038H54.4809C54.2435 142.391 53.9259 142.567 53.5282 142.567C53.1487 142.567 52.8413 142.441 52.6059 142.187C52.3726 141.931 52.2559 141.605 52.2559 141.207V139.295H52.9651V141.158C52.9651 141.394 53.03 141.584 53.1599 141.73C53.2898 141.877 53.4683 141.95 53.6956 141.95C53.931 141.95 54.1309 141.869 54.2953 141.709C54.4596 141.549 54.5418 141.349 54.5418 141.109V139.295ZM56.8034 142.461H56.0972V139.295H56.7912V139.712H56.8521C56.9231 139.57 57.0337 139.455 57.1838 139.365C57.336 139.276 57.4973 139.231 57.6678 139.231C57.82 139.231 57.9448 139.257 58.0422 139.308V139.95C57.8758 139.883 57.7114 139.849 57.5491 139.849C57.3279 139.849 57.1483 139.937 57.0103 140.111C56.8723 140.286 56.8034 140.514 56.8034 140.796V142.461ZM62.1453 142.598C61.5933 142.598 61.1408 142.425 60.7877 142.08C60.4346 141.733 60.2581 141.287 60.2581 140.741V138.047H61.0434V140.729C61.0434 141.08 61.1469 141.368 61.3539 141.593C61.5608 141.819 61.8246 141.931 62.1453 141.931C62.4659 141.931 62.7287 141.819 62.9336 141.593C63.1406 141.368 63.2441 141.08 63.2441 140.729V138.047H64.0294V140.741C64.0294 141.287 63.8528 141.733 63.4998 142.08C63.1467 142.425 62.6952 142.598 62.1453 142.598ZM65.2408 142.461H64.4738L66.0626 138.047H67.1675L68.7382 142.461H67.965L67.6424 141.569H65.5726L65.2408 142.461ZM66.5801 138.72L65.7704 140.963H67.4476L66.644 138.72H66.5801ZM72.6312 142.461H69.4382V138.047H72.5673V138.702H70.2175V139.88H72.3512V140.498H70.2175V141.8H72.6312V142.461ZM75.7572 142.461H74.9902V138.047H76.0007L77.8757 141.438H77.9396V138.047H78.7006V142.461H77.6961L75.8211 139.07H75.7572V142.461ZM80.5543 142.461H79.7689V138.047H80.5543V142.461ZM82.3927 142.461H81.6257V138.047H82.6362L84.5112 141.438H84.5751V138.047H85.3361V142.461H84.3316L82.4566 139.07H82.3927V142.461ZM86.5719 140.254C86.4461 140.254 86.3426 140.215 86.2614 140.135C86.1823 140.056 86.1427 139.955 86.1427 139.831C86.1427 139.707 86.1823 139.606 86.2614 139.527C86.3426 139.446 86.4461 139.405 86.5719 139.405C86.6997 139.405 86.8042 139.446 86.8854 139.527C86.9686 139.606 87.0102 139.707 87.0102 139.831C87.0102 139.955 86.9686 140.056 86.8854 140.135C86.8042 140.215 86.6997 140.254 86.5719 140.254ZM86.5719 142.537C86.4461 142.537 86.3426 142.497 86.2614 142.418C86.1823 142.337 86.1427 142.235 86.1427 142.111C86.1427 141.987 86.1823 141.886 86.2614 141.807C86.3426 141.727 86.4461 141.688 86.5719 141.688C86.6997 141.688 86.8042 141.727 86.8854 141.807C86.9686 141.886 87.0102 141.987 87.0102 142.111C87.0102 142.235 86.9686 142.337 86.8854 142.418C86.8042 142.497 86.6997 142.537 86.5719 142.537Z" fill="#6C80A4"/>
<path d="M45.65 153.201H44.883L46.4718 148.788H47.5767L49.1474 153.201H48.3742L48.0516 152.309H45.9818L45.65 153.201ZM46.9893 149.46L46.1796 151.704H47.8568L47.0532 149.46H46.9893ZM53.0404 153.201H49.8474V148.788H52.9765V149.442H50.6267V150.62H52.7604V151.238H50.6267V152.541H53.0404V153.201ZM55.5424 153.338C54.9539 153.338 54.4872 153.196 54.1423 152.912C53.7993 152.628 53.6279 152.244 53.6279 151.761H54.3888C54.3888 152.056 54.4913 152.286 54.6962 152.452C54.9032 152.619 55.1914 152.702 55.5607 152.702C55.8752 152.702 56.1187 152.642 56.2912 152.522C56.4657 152.401 56.553 152.232 56.553 152.017C56.553 151.944 56.5418 151.878 56.5195 151.819C56.4972 151.758 56.4698 151.707 56.4373 151.664C56.4048 151.621 56.3571 151.583 56.2942 151.548C56.2334 151.512 56.1765 151.482 56.1238 151.46C56.071 151.438 55.999 151.416 55.9077 151.396C55.8164 151.374 55.7392 151.358 55.6763 151.347C55.6155 151.335 55.5313 151.321 55.4237 151.305C55.3182 151.289 55.2289 151.274 55.1559 151.262C55.0828 151.25 54.9935 151.233 54.888 151.211C54.7845 151.186 54.6952 151.162 54.6201 151.137C54.5471 151.113 54.4659 151.082 54.3766 151.043C54.2873 151.005 54.2113 150.963 54.1483 150.918C54.0875 150.874 54.0256 150.821 53.9627 150.76C53.8998 150.697 53.849 150.629 53.8105 150.556C53.774 150.483 53.7435 150.399 53.7192 150.303C53.6968 150.208 53.6857 150.106 53.6857 149.996C53.6857 149.584 53.8399 149.256 54.1483 149.013C54.4568 148.767 54.8819 148.645 55.4237 148.645C55.9777 148.645 56.416 148.782 56.7386 149.055C57.0633 149.327 57.2256 149.696 57.2256 150.16H56.489C56.489 149.882 56.3967 149.666 56.2121 149.512C56.0274 149.358 55.7687 149.281 55.4359 149.281C55.1295 149.281 54.8921 149.342 54.7236 149.463C54.5552 149.583 54.471 149.744 54.471 149.947C54.471 150.018 54.4822 150.083 54.5045 150.142C54.5268 150.199 54.5542 150.248 54.5867 150.288C54.6212 150.329 54.6699 150.366 54.7328 150.401C54.7957 150.435 54.8535 150.464 54.9063 150.486C54.959 150.506 55.0321 150.528 55.1254 150.55C55.2188 150.57 55.2969 150.587 55.3598 150.599C55.4227 150.609 55.5089 150.622 55.6185 150.638C55.7261 150.655 55.8153 150.67 55.8864 150.684C55.9574 150.696 56.0457 150.714 56.1512 150.739C56.2567 150.761 56.345 150.784 56.416 150.809C56.487 150.833 56.5672 150.865 56.6565 150.903C56.7478 150.942 56.8228 150.983 56.8817 151.028C56.9405 151.073 57.0014 151.126 57.0643 151.189C57.1272 151.252 57.1769 151.321 57.2135 151.396C57.25 151.469 57.2794 151.553 57.3017 151.649C57.3261 151.744 57.3383 151.848 57.3383 151.959C57.3383 152.385 57.179 152.722 56.8604 152.97C56.5438 153.215 56.1045 153.338 55.5424 153.338ZM59.7094 153.201H58.1875V148.788H59.7094C60.2167 148.788 60.6631 148.879 61.0487 149.062C61.4363 149.244 61.7356 149.503 61.9466 149.838C62.1597 150.171 62.2662 150.556 62.2662 150.994C62.2662 151.431 62.1597 151.816 61.9466 152.151C61.7356 152.484 61.4363 152.743 61.0487 152.927C60.6611 153.11 60.2147 153.201 59.7094 153.201ZM58.9606 149.43V152.553H59.7094C60.2431 152.553 60.6723 152.412 60.9969 152.13C61.3236 151.848 61.487 151.469 61.487 150.994C61.487 150.518 61.3236 150.138 60.9969 149.856C60.6723 149.572 60.2431 149.43 59.7094 149.43H58.9606ZM66.9293 151.567H64.3725V150.964H66.9293V151.567ZM71.0385 153.338C70.655 153.338 70.3151 153.239 70.0188 153.04C69.7225 152.839 69.4932 152.561 69.3309 152.206C69.1686 151.851 69.0874 151.447 69.0874 150.994C69.0874 150.54 69.1686 150.135 69.3309 149.78C69.4932 149.423 69.7225 149.145 70.0188 148.946C70.3151 148.745 70.655 148.645 71.0385 148.645C71.3246 148.645 71.5884 148.703 71.8299 148.821C72.0734 148.937 72.2793 149.098 72.4478 149.305C72.6162 149.51 72.7471 149.759 72.8404 150.051C72.9358 150.341 72.9835 150.656 72.9835 150.994C72.9835 151.447 72.9023 151.851 72.74 152.206C72.5797 152.561 72.3514 152.839 72.0551 153.04C71.7589 153.239 71.42 153.338 71.0385 153.338ZM71.0385 152.659C71.3875 152.659 71.6686 152.504 71.8816 152.194C72.0967 151.883 72.2043 151.483 72.2043 150.994C72.2043 150.501 72.0967 150.1 71.8816 149.789C71.6686 149.479 71.3875 149.323 71.0385 149.323C70.6874 149.323 70.4054 149.479 70.1923 149.789C69.9792 150.097 69.8727 150.499 69.8727 150.994C69.8727 151.485 69.9792 151.886 70.1923 152.197C70.4054 152.505 70.6874 152.659 71.0385 152.659ZM75.2359 153.338C74.759 153.338 74.3583 153.181 74.0336 152.866C73.711 152.55 73.5405 152.152 73.5222 151.673H74.2741C74.2741 151.965 74.3644 152.209 74.545 152.404C74.7276 152.598 74.9538 152.696 75.2237 152.696C75.4875 152.696 75.7057 152.618 75.8781 152.462C76.0527 152.303 76.1399 152.103 76.1399 151.862C76.1399 151.618 76.0516 151.416 75.8751 151.256C75.7006 151.094 75.4814 151.013 75.2176 151.013C75.0675 151.013 74.9366 151.038 74.825 151.089L74.6241 150.583L75.6651 149.485V149.424H73.784V148.788H76.7365V149.275L75.5981 150.477C75.9735 150.528 76.284 150.684 76.5295 150.946C76.7771 151.207 76.9009 151.523 76.9009 151.892C76.9009 152.312 76.7436 152.658 76.4291 152.93C76.1166 153.202 75.7189 153.338 75.2359 153.338ZM79.0346 153.338C78.5577 153.338 78.157 153.181 77.8323 152.866C77.5096 152.55 77.3392 152.152 77.3209 151.673H78.0727C78.0727 151.965 78.163 152.209 78.3436 152.404C78.5263 152.598 78.7525 152.696 79.0224 152.696C79.2862 152.696 79.5043 152.618 79.6768 152.462C79.8513 152.303 79.9386 152.103 79.9386 151.862C79.9386 151.618 79.8503 151.416 79.6738 151.256C79.4993 151.094 79.2801 151.013 79.0163 151.013C78.8662 151.013 78.7353 151.038 78.6237 151.089L78.4228 150.583L79.4638 149.485V149.424H77.5827V148.788H80.5352V149.275L79.3968 150.477C79.7722 150.528 80.0827 150.684 80.3282 150.946C80.5758 151.207 80.6996 151.523 80.6996 151.892C80.6996 152.312 80.5423 152.658 80.2278 152.93C79.9153 153.202 79.5175 153.338 79.0346 153.338ZM83.2077 153.338C82.8241 153.338 82.4842 153.239 82.188 153.04C81.8917 152.839 81.6624 152.561 81.5001 152.206C81.3377 151.851 81.2566 151.447 81.2566 150.994C81.2566 150.54 81.3377 150.135 81.5001 149.78C81.6624 149.423 81.8917 149.145 82.188 148.946C82.4842 148.745 82.8241 148.645 83.2077 148.645C83.4938 148.645 83.7576 148.703 83.9991 148.821C84.2426 148.937 84.4485 149.098 84.6169 149.305C84.7854 149.51 84.9163 149.759 85.0096 150.051C85.105 150.341 85.1527 150.656 85.1527 150.994C85.1527 151.447 85.0715 151.851 84.9092 152.206C84.7488 152.561 84.5206 152.839 84.2243 153.04C83.928 153.239 83.5892 153.338 83.2077 153.338ZM83.2077 152.659C83.5567 152.659 83.8377 152.504 84.0508 152.194C84.2659 151.883 84.3734 151.483 84.3734 150.994C84.3734 150.501 84.2659 150.1 84.0508 149.789C83.8377 149.479 83.5567 149.323 83.2077 149.323C82.8566 149.323 82.5745 149.479 82.3615 149.789C82.1484 150.097 82.0419 150.499 82.0419 150.994C82.0419 151.485 82.1484 151.886 82.3615 152.197C82.5745 152.505 82.8566 152.659 83.2077 152.659ZM89.8736 151.567H87.3168V150.964H89.8736V151.567ZM95.1546 153.338C94.6778 153.338 94.277 153.181 93.9523 152.866C93.6297 152.55 93.4592 152.152 93.441 151.673H94.1928C94.1928 151.965 94.2831 152.209 94.4637 152.404C94.6463 152.598 94.8726 152.696 95.1425 152.696C95.4063 152.696 95.6244 152.618 95.7969 152.462C95.9714 152.303 96.0586 152.103 96.0586 151.862C96.0586 151.618 95.9704 151.416 95.7938 151.256C95.6193 151.094 95.4002 151.013 95.1364 151.013C94.9862 151.013 94.8553 151.038 94.7437 151.089L94.5428 150.583L95.5838 149.485V149.424H93.7027V148.788H96.6552V149.275L95.5168 150.477C95.8923 150.528 96.2027 150.684 96.4483 150.946C96.6958 151.207 96.8196 151.523 96.8196 151.892C96.8196 152.312 96.6623 152.658 96.3478 152.93C96.0353 153.202 95.6376 153.338 95.1546 153.338ZM100.156 153.201H99.3703V152.267H97.2183V151.804L99.002 148.788H100.156V151.631H100.685V152.267H100.156V153.201ZM99.3003 149.506L98.0615 151.631H99.3642V149.506H99.3003ZM104.07 153.201H103.285V152.267H101.133V151.804L102.916 148.788H104.07V151.631H104.6V152.267H104.07V153.201ZM103.215 149.506L101.976 151.631H103.279V149.506H103.215ZM108.353 153.201H105.211V152.784L107.056 151.055C107.072 151.041 107.095 151.02 107.123 150.991C107.224 150.896 107.299 150.823 107.348 150.772C107.397 150.721 107.453 150.657 107.516 150.577C107.578 150.496 107.622 150.418 107.646 150.343C107.673 150.268 107.686 150.188 107.686 150.103C107.686 149.873 107.607 149.684 107.449 149.533C107.292 149.381 107.099 149.305 106.867 149.305C106.612 149.305 106.396 149.399 106.222 149.588C106.049 149.777 105.957 150.019 105.945 150.316H105.217C105.215 149.999 105.284 149.713 105.424 149.457C105.567 149.202 105.763 149.003 106.015 148.861C106.269 148.717 106.553 148.645 106.867 148.645C107.32 148.645 107.693 148.776 107.987 149.04C108.284 149.302 108.432 149.634 108.432 150.036C108.434 150.279 108.363 150.509 108.219 150.727C108.077 150.944 107.848 151.199 107.534 151.494L106.432 152.504V152.565H108.353V153.201ZM113.055 151.567H110.499V150.964H113.055V151.567ZM116.79 153.338C116.313 153.338 115.912 153.181 115.588 152.866C115.265 152.55 115.095 152.152 115.076 151.673H115.828C115.828 151.965 115.919 152.209 116.099 152.404C116.282 152.598 116.508 152.696 116.778 152.696C117.042 152.696 117.26 152.618 117.432 152.462C117.607 152.303 117.694 152.103 117.694 151.862C117.694 151.618 117.606 151.416 117.429 151.256C117.255 151.094 117.036 151.013 116.772 151.013C116.622 151.013 116.491 151.038 116.379 151.089L116.178 150.583L117.219 149.485V149.424H115.338V148.788H118.291V149.275L117.152 150.477C117.528 150.528 117.838 150.684 118.084 150.946C118.331 151.207 118.455 151.523 118.455 151.892C118.455 152.312 118.298 152.658 117.983 152.93C117.671 153.202 117.273 153.338 116.79 153.338ZM121.791 153.201H121.006V152.267H118.854V151.804L120.637 148.788H121.791V151.631H122.321V152.267H121.791V153.201ZM120.936 149.506L119.697 151.631H121V149.506H120.936ZM124.671 153.201H123.897V149.768H123.837L122.82 150.532V149.692L124.028 148.788H124.671V153.201ZM127.121 153.338C126.644 153.338 126.243 153.181 125.918 152.866C125.596 152.55 125.425 152.152 125.407 151.673H126.159C126.159 151.965 126.249 152.209 126.43 152.404C126.612 152.598 126.839 152.696 127.109 152.696C127.372 152.696 127.591 152.618 127.763 152.462C127.938 152.303 128.025 152.103 128.025 151.862C128.025 151.618 127.937 151.416 127.76 151.256C127.585 151.094 127.366 151.013 127.103 151.013C126.952 151.013 126.821 151.038 126.71 151.089L126.509 150.583L127.55 149.485V149.424H125.669V148.788H128.621V149.275L127.483 150.477C127.858 150.528 128.169 150.684 128.414 150.946C128.662 151.207 128.786 151.523 128.786 151.892C128.786 152.312 128.628 152.658 128.314 152.93C128.001 153.202 127.604 153.338 127.121 153.338Z" fill="#1E2F4E"/>
<g opacity="0.6" filter="url(#filter0_f_22113_125)">
<rect x="11.207" y="156.133" width="24.8888" height="1.01587" fill="url(#paint2_linear_22113_125)"/>
</g>
<rect x="10.7031" y="144.844" width="23.057" height="12.846" rx="1.5238" transform="rotate(-15 10.7031 144.844)" fill="#709DFF"/>
<rect x="10.7031" y="144.844" width="23.057" height="12.846" rx="1.5238" transform="rotate(-15 10.7031 144.844)" fill="url(#paint3_linear_22113_125)" fill-opacity="0.3"/>
<rect x="11.0142" y="145.023" width="22.5491" height="12.3381" rx="1.26983" transform="rotate(-15 11.0142 145.023)" stroke="url(#paint4_linear_22113_125)" stroke-opacity="0.1" stroke-width="0.507934"/>
<rect x="11.0142" y="145.023" width="22.5491" height="12.3381" rx="1.26983" transform="rotate(-15 11.0142 145.023)" stroke="url(#paint5_linear_22113_125)" stroke-opacity="0.3" stroke-width="0.507934"/>
<g clip-path="url(#clip0_22113_125)">
<path d="M19.2905 152.36C20.763 151.966 21.6369 150.452 21.2423 148.98C20.8478 147.507 19.3342 146.633 17.8616 147.028C16.3891 147.422 15.5152 148.936 15.9097 150.408C16.3043 151.881 17.8179 152.755 19.2905 152.36Z" fill="#F0F0F0"/>
<path d="M17.665 150.931L18.3184 152.442C18.6359 152.472 18.9641 152.447 19.2902 152.359C20.4366 152.052 21.2201 151.067 21.3247 149.951L17.665 150.931Z" fill="black"/>
<path d="M17.1681 149.078L16.9784 147.443C17.2385 147.258 17.5353 147.116 17.8614 147.028C19.0078 146.721 20.179 147.183 20.8278 148.097L17.1681 149.078Z" fill="#6DA544"/>
<path d="M15.9093 150.409C16.2164 151.555 17.2019 152.338 18.3181 152.443L16.9781 147.442C16.0638 148.091 15.6021 149.262 15.9093 150.409Z" fill="#A2001D"/>
</g>
<g filter="url(#filter1_d_22113_125)">
<path d="M25.464 145.142L26.442 148.792L25.9358 148.928L23.3632 146.748L23.3293 146.757L24.0466 149.434L23.4959 149.582L22.5178 145.931L23.0276 145.795L25.603 147.978L25.6368 147.969L24.9186 145.288L25.464 145.142ZM26.818 144.779L27.7961 148.429L27.2454 148.577L26.2673 144.927L26.818 144.779ZM30.5662 143.775L31.5442 147.425L31.038 147.561L28.4654 145.381L28.4315 145.39L29.1488 148.067L28.5981 148.214L27.6201 144.564L28.1298 144.428L30.7052 146.611L30.739 146.602L30.0208 143.921L30.5662 143.775Z" fill="white"/>
</g>
<circle cx="18.3874" cy="149.626" r="2.79364" stroke="white" stroke-width="0.507934"/>
<circle cx="33.1456" cy="138.759" r="4.57141" fill="#E2EBFF"/>
<path fill-rule="evenodd" clip-rule="evenodd" d="M29.0977 138.747C29.0977 136.509 30.9118 134.695 33.1496 134.695C35.3874 134.695 37.2015 136.509 37.2015 138.747C37.2015 140.985 35.3874 142.799 33.1496 142.799C30.9118 142.799 29.0977 140.985 29.0977 138.747ZM34.65 137.993C34.75 137.853 34.7176 137.659 34.5775 137.559C34.4374 137.458 34.2428 137.491 34.1427 137.631L32.7981 139.513L32.1232 138.839C32.0015 138.717 31.8042 138.717 31.6824 138.839C31.5607 138.96 31.5607 139.158 31.6824 139.279L32.6175 140.214C32.6823 140.279 32.7723 140.312 32.8636 140.305C32.9549 140.297 33.0383 140.25 33.0915 140.175L34.65 137.993Z" fill="#219653"/>
<rect x="230.672" y="39.0664" width="38.5343" height="16.056" rx="2.67599" fill="#F1FCF5"/>
<rect x="230.672" y="39.0664" width="38.5343" height="16.056" rx="2.67599" stroke="#C0F2D4" stroke-width="1.0704"/>
<circle cx="240.841" cy="47.0944" r="1.6056" stroke="#219653" stroke-width="1.0704"/>
<path d="M250.806 49.5942H247.815V45.0471H248.624V48.8949H250.806V49.5942ZM251.829 45.7872C251.691 45.7872 251.578 45.7433 251.49 45.6555C251.404 45.5677 251.361 45.4548 251.361 45.3168C251.361 45.1809 251.404 45.0701 251.49 44.9844C251.578 44.8987 251.691 44.8558 251.829 44.8558C251.969 44.8558 252.083 44.8987 252.17 44.9844C252.26 45.0701 252.305 45.1809 252.305 45.3168C252.305 45.4548 252.26 45.5677 252.17 45.6555C252.083 45.7433 251.969 45.7872 251.829 45.7872ZM252.196 49.5942H251.471V46.3329H252.196V49.5942ZM254.955 49.5942H253.92L252.725 46.3329H253.484L254.403 49.011H254.466L255.391 46.3329H256.144L254.955 49.5942ZM258.166 49.7103C257.646 49.7103 257.219 49.5441 256.887 49.2117C256.554 48.8772 256.388 48.4486 256.388 47.9259C256.388 47.4263 256.552 47.0155 256.881 46.6935C257.211 46.3715 257.631 46.2106 258.141 46.2106C258.649 46.2106 259.065 46.3715 259.389 46.6935C259.713 47.0155 259.875 47.4284 259.875 47.9322C259.875 48.0493 259.873 48.1339 259.869 48.1862H257.141C257.181 48.4705 257.295 48.6974 257.483 48.8667C257.673 49.034 257.91 49.1176 258.195 49.1176C258.406 49.1176 258.595 49.0695 258.762 48.9733C258.931 48.8772 259.061 48.7454 259.151 48.5782L259.759 48.8103C259.64 49.0925 259.438 49.313 259.154 49.4719C258.872 49.6308 258.543 49.7103 258.166 49.7103ZM257.141 47.6468H259.126C259.084 47.3939 258.971 47.19 258.787 47.0353C258.605 46.8785 258.384 46.8001 258.122 46.8001C257.867 46.8001 257.651 46.8775 257.473 47.0322C257.298 47.1869 257.187 47.3918 257.141 47.6468Z" fill="#219653"/>
<rect x="199.629" y="11.2383" width="67.4351" height="16.056" rx="2.67599" fill="#F7FAFF"/>
<rect x="199.629" y="11.2383" width="67.4351" height="16.056" rx="2.67599" stroke="#C6D7FF" stroke-width="1.0704"/>
<circle cx="209.798" cy="19.2663" r="1.6056" stroke="#3C5C99" stroke-width="1.0704"/>
<path d="M218.898 21.9072C218.44 21.9072 218.029 21.8048 217.665 21.5999C217.304 21.395 217.02 21.1086 216.816 20.7407C216.611 20.3727 216.508 19.9567 216.508 19.4926C216.508 19.0284 216.61 18.6124 216.812 18.2445C217.017 17.8744 217.301 17.587 217.662 17.3821C218.026 17.1751 218.436 17.0716 218.892 17.0716C219.427 17.0716 219.9 17.2305 220.312 17.5483C220.726 17.8661 220.986 18.2706 221.093 18.7619L220.318 18.856C220.245 18.5382 220.075 18.2758 219.807 18.0689C219.54 17.8619 219.239 17.7584 218.904 17.7584C218.442 17.7584 218.062 17.9215 217.763 18.2476C217.466 18.5716 217.317 18.9866 217.317 19.4926C217.319 19.9964 217.469 20.4103 217.766 20.7344C218.065 21.0584 218.444 21.2205 218.904 21.2205C219.232 21.2205 219.53 21.1212 219.798 20.9225C220.065 20.7239 220.241 20.472 220.325 20.1668L221.087 20.2891C220.988 20.7595 220.733 21.1473 220.322 21.4525C219.91 21.7557 219.435 21.9072 218.898 21.9072ZM224.728 21.3992C224.397 21.7212 223.969 21.8821 223.442 21.8821C222.915 21.8821 222.486 21.7212 222.156 21.3992C221.828 21.0773 221.664 20.656 221.664 20.1354C221.664 19.6149 221.828 19.1926 222.156 18.8685C222.484 18.5445 222.913 18.3824 223.442 18.3824C223.967 18.3824 224.394 18.5455 224.724 18.8716C225.057 19.1957 225.223 19.617 225.223 20.1354C225.223 20.656 225.058 21.0773 224.728 21.3992ZM223.442 21.2455C223.749 21.2455 224.001 21.1421 224.198 20.9351C224.396 20.726 224.495 20.4595 224.495 20.1354C224.495 19.8114 224.396 19.5438 224.198 19.3326C223.999 19.1215 223.747 19.0159 223.442 19.0159C223.134 19.0159 222.881 19.1215 222.683 19.3326C222.486 19.5417 222.388 19.8093 222.388 20.1354C222.388 20.4595 222.486 20.726 222.683 20.9351C222.879 21.1421 223.132 21.2455 223.442 21.2455ZM226.659 21.7661H225.925V18.5047H226.64V18.9532H226.703C226.797 18.7776 226.927 18.6385 227.092 18.5361C227.257 18.4337 227.442 18.3824 227.647 18.3824C227.864 18.3824 228.067 18.4389 228.255 18.5518C228.446 18.6647 228.586 18.8131 228.676 18.9971H228.738C228.851 18.8068 228.999 18.6584 229.181 18.5518C229.362 18.4431 229.57 18.3887 229.805 18.3887C230.179 18.3887 230.486 18.5204 230.727 18.7838C230.969 19.0473 231.09 19.3839 231.09 19.7936V21.7661H230.363V19.8595C230.363 19.617 230.294 19.4163 230.156 19.2574C230.018 19.0985 229.841 19.018 229.626 19.0159C229.402 19.0159 229.218 19.0953 229.074 19.2542C228.932 19.4131 228.861 19.6149 228.861 19.8595V21.7661H228.13V19.8595C228.13 19.6044 228.064 19.4006 227.932 19.248C227.801 19.0933 227.626 19.0159 227.409 19.0159C227.181 19.0159 226.999 19.0933 226.863 19.248C226.727 19.4006 226.659 19.6044 226.659 19.8595V21.7661ZM232.307 17.9591C232.169 17.9591 232.056 17.9152 231.968 17.8274C231.883 17.7396 231.84 17.6267 231.84 17.4887C231.84 17.3528 231.883 17.242 231.968 17.1563C232.056 17.0706 232.169 17.0277 232.307 17.0277C232.447 17.0277 232.561 17.0706 232.649 17.1563C232.739 17.242 232.784 17.3528 232.784 17.4887C232.784 17.6267 232.739 17.7396 232.649 17.8274C232.561 17.9152 232.447 17.9591 232.307 17.9591ZM232.674 21.7661H231.95V18.5047H232.674V21.7661ZM234.317 21.7661H233.59V18.5047H234.317V18.9406H234.38C234.62 18.5769 234.949 18.395 235.365 18.395C235.756 18.395 236.071 18.5257 236.312 18.787C236.552 19.0462 236.672 19.3797 236.672 19.7873V21.7661H235.942V19.8469C235.942 19.6044 235.875 19.4079 235.741 19.2574C235.607 19.1068 235.423 19.0316 235.189 19.0316C234.949 19.0316 234.743 19.1142 234.571 19.2793C234.402 19.4424 234.317 19.6462 234.317 19.8908V21.7661ZM239.096 23.3592C238.655 23.3592 238.284 23.263 237.983 23.0707C237.684 22.8804 237.483 22.6107 237.381 22.2616L238.102 22.0609C238.18 22.2804 238.304 22.4497 238.475 22.5689C238.647 22.6881 238.856 22.7477 239.103 22.7477C239.418 22.7477 239.668 22.6536 239.852 22.4654C240.038 22.2794 240.131 22.0254 240.131 21.7034V21.3177H240.068C239.78 21.6584 239.411 21.8288 238.962 21.8288C238.485 21.8288 238.094 21.671 237.789 21.3553C237.483 21.0396 237.331 20.633 237.331 20.1354C237.331 19.6232 237.483 19.2051 237.789 18.8811C238.094 18.557 238.485 18.395 238.962 18.395C239.424 18.395 239.799 18.5727 240.087 18.9281H240.15V18.5047H240.865V21.7159C240.865 22.2219 240.705 22.6222 240.385 22.917C240.067 23.2118 239.638 23.3592 239.096 23.3592ZM238.353 20.91C238.552 21.1128 238.804 21.2142 239.109 21.2142C239.414 21.2142 239.666 21.1128 239.865 20.91C240.063 20.7051 240.163 20.4469 240.163 20.1354C240.163 19.8114 240.063 19.5438 239.865 19.3326C239.666 19.1215 239.414 19.0159 239.109 19.0159C238.804 19.0159 238.552 19.1215 238.353 19.3326C238.157 19.5438 238.058 19.8114 238.058 20.1354C238.058 20.4469 238.157 20.7051 238.353 20.91ZM244.713 21.8884C244.234 21.8884 243.861 21.7807 243.593 21.5654C243.328 21.3501 243.195 21.049 243.195 20.6623H243.863C243.867 20.8692 243.946 21.0354 244.098 21.1609C244.253 21.2863 244.464 21.349 244.732 21.349C244.949 21.349 245.12 21.3062 245.246 21.2205C245.373 21.1347 245.437 21.0187 245.437 20.8724C245.437 20.7867 245.418 20.7166 245.381 20.6623C245.345 20.6079 245.279 20.5651 245.183 20.5337C245.087 20.5023 245.007 20.4814 244.942 20.471C244.879 20.4584 244.771 20.4438 244.619 20.4271C244.615 20.4271 244.61 20.4271 244.606 20.4271C244.604 20.425 244.601 20.4239 244.597 20.4239C244.496 20.4135 244.408 20.403 244.33 20.3926C244.253 20.38 244.164 20.3623 244.064 20.3393C243.965 20.3163 243.88 20.2901 243.807 20.2609C243.735 20.2295 243.662 20.1887 243.587 20.1386C243.512 20.0884 243.45 20.0319 243.402 19.9692C243.356 19.9065 243.317 19.8302 243.286 19.7403C243.257 19.6504 243.242 19.5511 243.242 19.4424C243.242 19.1142 243.367 18.8549 243.618 18.6647C243.871 18.4723 244.206 18.3762 244.622 18.3762C245.046 18.3762 245.391 18.4776 245.657 18.6804C245.922 18.8811 246.055 19.1497 246.055 19.4863H245.368C245.366 19.3128 245.296 19.1758 245.158 19.0755C245.02 18.973 244.839 18.9218 244.616 18.9218C244.409 18.9218 244.241 18.9647 244.114 19.0504C243.986 19.1361 243.923 19.2511 243.923 19.3953C243.923 19.4748 243.939 19.5406 243.973 19.5929C244.008 19.6431 244.073 19.6839 244.167 19.7152C244.263 19.7445 244.34 19.7643 244.396 19.7748C244.453 19.7852 244.557 19.7988 244.71 19.8156C244.754 19.8218 244.786 19.826 244.807 19.8281C244.907 19.8407 244.996 19.8532 245.073 19.8657C245.153 19.8783 245.241 19.8971 245.337 19.9222C245.433 19.9473 245.517 19.9765 245.588 20.01C245.659 20.0414 245.731 20.0821 245.804 20.1323C245.877 20.1825 245.937 20.24 245.983 20.3048C246.029 20.3696 246.065 20.4469 246.093 20.5368C246.122 20.6267 246.137 20.726 246.137 20.8347C246.137 21.1672 246.011 21.4264 245.76 21.6125C245.509 21.7964 245.16 21.8884 244.713 21.8884ZM249.784 21.3992C249.453 21.7212 249.025 21.8821 248.498 21.8821C247.971 21.8821 247.542 21.7212 247.212 21.3992C246.884 21.0773 246.72 20.656 246.72 20.1354C246.72 19.6149 246.884 19.1926 247.212 18.8685C247.54 18.5445 247.969 18.3824 248.498 18.3824C249.023 18.3824 249.45 18.5455 249.78 18.8716C250.113 19.1957 250.279 19.617 250.279 20.1354C250.279 20.656 250.114 21.0773 249.784 21.3992ZM248.498 21.2455C248.805 21.2455 249.057 21.1421 249.254 20.9351C249.452 20.726 249.552 20.4595 249.552 20.1354C249.552 19.8114 249.452 19.5438 249.254 19.3326C249.055 19.1215 248.803 19.0159 248.498 19.0159C248.191 19.0159 247.938 19.1215 247.739 19.3326C247.542 19.5417 247.444 19.8093 247.444 20.1354C247.444 20.4595 247.542 20.726 247.739 20.9351C247.935 21.1421 248.188 21.2455 248.498 21.2455ZM253.904 21.3992C253.574 21.7212 253.145 21.8821 252.618 21.8821C252.092 21.8821 251.663 21.7212 251.333 21.3992C251.005 21.0773 250.84 20.656 250.84 20.1354C250.84 19.6149 251.005 19.1926 251.333 18.8685C251.661 18.5445 252.09 18.3824 252.618 18.3824C253.143 18.3824 253.571 18.5455 253.901 18.8716C254.233 19.1957 254.4 19.617 254.4 20.1354C254.4 20.656 254.235 21.0773 253.904 21.3992ZM252.618 21.2455C252.926 21.2455 253.178 21.1421 253.374 20.9351C253.573 20.726 253.672 20.4595 253.672 20.1354C253.672 19.8114 253.573 19.5438 253.374 19.3326C253.176 19.1215 252.924 19.0159 252.618 19.0159C252.311 19.0159 252.058 19.1215 251.86 19.3326C251.663 19.5417 251.565 19.8093 251.565 20.1354C251.565 20.4595 251.663 20.726 251.86 20.9351C252.056 21.1421 252.309 21.2455 252.618 21.2455ZM255.836 21.7661H255.108V18.5047H255.836V18.9406H255.899C256.139 18.5769 256.467 18.395 256.883 18.395C257.274 18.395 257.59 18.5257 257.83 18.787C258.071 19.0462 258.191 19.3797 258.191 19.7873V21.7661H257.46V19.8469C257.46 19.6044 257.393 19.4079 257.26 19.2574C257.126 19.1068 256.942 19.0316 256.708 19.0316C256.467 19.0316 256.261 19.1142 256.09 19.2793C255.921 19.4424 255.836 19.6462 255.836 19.8908V21.7661Z" fill="#3C5C99"/>
<rect opacity="0.2" x="83.4922" y="47.0938" width="66.0776" height="4.98699" rx="2.49349" fill="#709DFF"/>
<rect opacity="0.1" x="83.4922" y="58.3125" width="115.947" height="5.61036" rx="2.49349" fill="#709DFF"/>
<path d="M85.115 83H84.1711V77.695H85.115V83ZM87.3321 83H86.4102V77.695H88.6273C89.2371 77.695 89.7236 77.8463 90.0871 78.1487C90.4505 78.4512 90.631 78.8646 90.6285 79.389C90.6261 79.9061 90.4407 80.3183 90.0724 80.6256C89.7041 80.9305 89.22 81.0829 88.62 81.0829H87.3321V83ZM87.3321 78.4597V80.3109H88.5834C88.9224 80.3109 89.1919 80.228 89.3919 80.0622C89.5919 79.8963 89.6919 79.6719 89.6919 79.389C89.6919 79.1036 89.5907 78.878 89.3883 78.7121C89.1883 78.5438 88.92 78.4597 88.5834 78.4597H87.3321ZM94.1261 83.1646C93.5627 83.1646 93.0603 83.0476 92.6188 82.8134C92.1798 82.5768 91.8371 82.2451 91.5907 81.8183C91.3468 81.389 91.2249 80.8988 91.2249 80.3475C91.2249 79.7963 91.3468 79.306 91.5907 78.8768C91.8371 78.4475 92.1798 78.1146 92.6188 77.878C93.0603 77.6414 93.5627 77.5231 94.1261 77.5231C94.5457 77.5231 94.9347 77.5926 95.2932 77.7316C95.6518 77.8682 95.9567 78.0597 96.2079 78.306C96.4615 78.5524 96.6591 78.8512 96.8006 79.2024C96.9445 79.5536 97.0164 79.9353 97.0164 80.3475C97.0164 80.7597 96.9445 81.1414 96.8006 81.4927C96.6591 81.8414 96.4615 82.139 96.2079 82.3854C95.9567 82.6293 95.6518 82.8207 95.2932 82.9598C94.9347 83.0963 94.5457 83.1646 94.1261 83.1646ZM92.7176 81.8C93.0834 82.1756 93.553 82.3634 94.1261 82.3634C94.6993 82.3634 95.1676 82.1756 95.531 81.8C95.8969 81.4244 96.0798 80.9402 96.0798 80.3475C96.0798 79.7548 95.8969 79.2695 95.531 78.8914C95.1676 78.5134 94.6993 78.3243 94.1261 78.3243C93.553 78.3243 93.0834 78.5134 92.7176 78.8914C92.3517 79.2695 92.1688 79.7548 92.1688 80.3475C92.1688 80.9402 92.3517 81.4244 92.7176 81.8ZM103.112 82.5719C102.726 82.9476 102.226 83.1354 101.612 83.1354C100.997 83.1354 100.497 82.9476 100.112 82.5719C99.7287 82.1963 99.5372 81.7049 99.5372 81.0975C99.5372 80.4902 99.7287 79.9975 100.112 79.6195C100.495 79.2414 100.995 79.0524 101.612 79.0524C102.224 79.0524 102.723 79.2426 103.108 79.6231C103.496 80.0012 103.69 80.4926 103.69 81.0975C103.69 81.7049 103.497 82.1963 103.112 82.5719ZM101.612 82.3927C101.97 82.3927 102.264 82.2719 102.493 82.0305C102.725 81.7866 102.841 81.4756 102.841 81.0975C102.841 80.7195 102.725 80.4073 102.493 80.1609C102.262 79.9146 101.968 79.7914 101.612 79.7914C101.253 79.7914 100.958 79.9146 100.726 80.1609C100.497 80.4048 100.382 80.717 100.382 81.0975C100.382 81.4756 100.497 81.7866 100.726 82.0305C100.956 82.2719 101.251 82.3927 101.612 82.3927ZM106.726 79.0524C107.27 79.0524 107.724 79.2451 108.087 79.6304C108.451 80.0134 108.632 80.5024 108.632 81.0975C108.632 81.6902 108.452 82.178 108.091 82.561C107.73 82.9439 107.278 83.1354 106.734 83.1354C106.451 83.1354 106.197 83.0805 105.973 82.9707C105.751 82.861 105.573 82.7037 105.438 82.4988H105.365V84.7232H104.509V79.1951H105.365V79.7109H105.438C105.721 79.2719 106.151 79.0524 106.726 79.0524ZM106.554 79.7914C106.201 79.7914 105.907 79.917 105.673 80.1683C105.441 80.417 105.325 80.7268 105.325 81.0975C105.325 81.4634 105.441 81.7707 105.673 82.0195C105.907 82.2683 106.201 82.3927 106.554 82.3927C106.908 82.3927 107.199 82.2695 107.429 82.0232C107.66 81.7744 107.776 81.4658 107.776 81.0975C107.776 80.7244 107.66 80.4134 107.429 80.1646C107.197 79.9158 106.906 79.7914 106.554 79.7914ZM111.38 83.1354C110.773 83.1354 110.275 82.9415 109.887 82.5537C109.5 82.1634 109.306 81.6634 109.306 81.0536C109.306 80.4707 109.497 79.9914 109.88 79.6158C110.265 79.2402 110.756 79.0524 111.351 79.0524C111.943 79.0524 112.429 79.2402 112.807 79.6158C113.185 79.9914 113.374 80.4731 113.374 81.0609C113.374 81.1975 113.372 81.2963 113.367 81.3573H110.184C110.23 81.689 110.363 81.9536 110.582 82.1512C110.804 82.3463 111.081 82.4439 111.413 82.4439C111.659 82.4439 111.88 82.3878 112.075 82.2756C112.273 82.1634 112.424 82.0097 112.529 81.8146L113.239 82.0854C113.1 82.4146 112.864 82.6719 112.532 82.8573C112.203 83.0427 111.819 83.1354 111.38 83.1354ZM110.184 80.728H112.5C112.451 80.4329 112.319 80.1951 112.104 80.0146C111.892 79.8317 111.634 79.7402 111.329 79.7402C111.031 79.7402 110.779 79.8304 110.571 80.0109C110.367 80.1914 110.237 80.4305 110.184 80.728ZM115.061 83H114.212V79.1951H115.061V79.7036H115.134C115.414 79.2792 115.797 79.067 116.283 79.067C116.739 79.067 117.107 79.2195 117.387 79.5243C117.668 79.8268 117.808 80.2158 117.808 80.6914V83H116.956V80.7609C116.956 80.478 116.878 80.2487 116.722 80.0731C116.565 79.8975 116.351 79.8097 116.078 79.8097C115.797 79.8097 115.557 79.9061 115.357 80.0987C115.159 80.289 115.061 80.5268 115.061 80.8122V83ZM120.377 83.1427C119.818 83.1427 119.383 83.0171 119.07 82.7659C118.761 82.5146 118.606 82.1634 118.606 81.7122H119.385C119.39 81.9536 119.481 82.1475 119.659 82.2939C119.84 82.4402 120.086 82.5134 120.398 82.5134C120.652 82.5134 120.852 82.4634 120.998 82.3634C121.147 82.2634 121.222 82.128 121.222 81.9573C121.222 81.8573 121.2 81.7756 121.156 81.7122C121.114 81.6488 121.037 81.5988 120.925 81.5622C120.813 81.5256 120.719 81.5012 120.644 81.489C120.57 81.4744 120.445 81.4573 120.267 81.4378C120.262 81.4378 120.257 81.4378 120.252 81.4378C120.25 81.4353 120.246 81.4341 120.241 81.4341C120.124 81.4219 120.02 81.4097 119.93 81.3975C119.84 81.3829 119.736 81.3622 119.619 81.3353C119.505 81.3085 119.405 81.278 119.319 81.2439C119.236 81.2073 119.151 81.1597 119.063 81.1012C118.975 81.0427 118.903 80.9768 118.847 80.9036C118.794 80.8305 118.748 80.7414 118.712 80.6366C118.678 80.5317 118.661 80.4158 118.661 80.289C118.661 79.9061 118.807 79.6036 119.1 79.3817C119.395 79.1573 119.785 79.0451 120.27 79.0451C120.766 79.0451 121.168 79.1634 121.478 79.4C121.787 79.6341 121.942 79.9475 121.942 80.3402H121.141C121.139 80.1378 121.057 79.978 120.896 79.8609C120.735 79.7414 120.524 79.6817 120.263 79.6817C120.022 79.6817 119.826 79.7317 119.678 79.8317C119.529 79.9317 119.455 80.0658 119.455 80.2341C119.455 80.3268 119.474 80.4036 119.513 80.4646C119.555 80.5231 119.63 80.5707 119.74 80.6073C119.852 80.6414 119.941 80.6646 120.007 80.6768C120.073 80.689 120.195 80.7048 120.373 80.7244C120.424 80.7317 120.462 80.7366 120.486 80.739C120.603 80.7536 120.707 80.7683 120.797 80.7829C120.89 80.7975 120.992 80.8195 121.105 80.8488C121.217 80.878 121.314 80.9122 121.397 80.9512C121.48 80.9878 121.564 81.0353 121.65 81.0939C121.735 81.1524 121.805 81.2195 121.858 81.2951C121.912 81.3707 121.955 81.461 121.986 81.5658C122.02 81.6707 122.037 81.7866 122.037 81.9134C122.037 82.3012 121.891 82.6037 121.598 82.8207C121.306 83.0354 120.898 83.1427 120.377 83.1427ZM125.235 78.5585C125.074 78.5585 124.942 78.5073 124.84 78.4048C124.74 78.3024 124.69 78.1707 124.69 78.0097C124.69 77.8511 124.74 77.7219 124.84 77.6219C124.942 77.5219 125.074 77.4719 125.235 77.4719C125.399 77.4719 125.531 77.5219 125.634 77.6219C125.739 77.7219 125.791 77.8511 125.791 78.0097C125.791 78.1707 125.739 78.3024 125.634 78.4048C125.531 78.5073 125.399 78.5585 125.235 78.5585ZM125.663 83H124.818V79.1951H125.663V83ZM127.58 83H126.731V79.1951H127.58V79.7036H127.653C127.934 79.2792 128.317 79.067 128.802 79.067C129.258 79.067 129.627 79.2195 129.907 79.5243C130.188 79.8268 130.328 80.2158 130.328 80.6914V83H129.475V80.7609C129.475 80.478 129.397 80.2487 129.241 80.0731C129.085 79.8975 128.871 79.8097 128.597 79.8097C128.317 79.8097 128.077 79.9061 127.877 80.0987C127.679 80.289 127.58 80.5268 127.58 80.8122V83ZM131.612 80.3475C131.461 80.3475 131.336 80.3 131.239 80.2048C131.144 80.1097 131.096 79.9878 131.096 79.839C131.096 79.6902 131.144 79.5682 131.239 79.4731C131.336 79.3756 131.461 79.3268 131.612 79.3268C131.766 79.3268 131.891 79.3756 131.989 79.4731C132.089 79.5682 132.139 79.6902 132.139 79.839C132.139 79.9878 132.089 80.1097 131.989 80.2048C131.891 80.3 131.766 80.3475 131.612 80.3475ZM131.612 83.0915C131.461 83.0915 131.336 83.0439 131.239 82.9488C131.144 82.8512 131.096 82.728 131.096 82.5793C131.096 82.4305 131.144 82.3085 131.239 82.2134C131.336 82.1183 131.461 82.0707 131.612 82.0707C131.766 82.0707 131.891 82.1183 131.989 82.2134C132.089 82.3085 132.139 82.4305 132.139 82.5793C132.139 82.728 132.089 82.8512 131.989 82.9488C131.891 83.0439 131.766 83.0915 131.612 83.0915Z" fill="#1E2F4E"/>
<rect x="83.4922" y="89.9868" width="27.7012" height="18.6104" rx="2.49349" fill="#E2EBFF"/>
<path d="M99.2385 99.4805H95.469V98.9801L97.6825 96.9054C97.7019 96.8884 97.7287 96.8628 97.7628 96.8287C97.8846 96.7142 97.9747 96.6266 98.0331 96.5657C98.0916 96.5048 98.1585 96.4269 98.234 96.3319C98.3095 96.2345 98.3618 96.1408 98.3911 96.0507C98.4227 95.9606 98.4385 95.8644 98.4385 95.7621C98.4385 95.487 98.3436 95.2593 98.1536 95.0791C97.9661 94.8965 97.7336 94.8052 97.456 94.8052C97.1492 94.8052 96.8911 94.9184 96.6817 95.1449C96.4747 95.3713 96.3639 95.6623 96.3493 96.0178H95.4763C95.4739 95.638 95.5567 95.2946 95.7247 94.9878C95.8951 94.681 96.1313 94.4423 96.4333 94.2719C96.7377 94.099 97.0786 94.0126 97.456 94.0126C97.999 94.0126 98.4471 94.1708 98.8002 94.4874C99.1557 94.8015 99.3334 95.1996 99.3334 95.6818C99.3359 95.974 99.2506 96.2504 99.0777 96.5109C98.9073 96.7715 98.6334 97.0783 98.2559 97.4314L96.9337 98.644V98.7171H99.2385V99.4805Z" fill="#1E2F4E"/>
<path d="M94.2216 105.178C94.0853 105.178 93.9562 105.153 93.8345 105.102C93.7139 105.051 93.6098 104.981 93.5222 104.892C93.4357 104.802 93.3669 104.693 93.3158 104.567C93.2659 104.439 93.2409 104.302 93.2409 104.157C93.2409 103.964 93.2835 103.789 93.3688 103.633C93.4552 103.478 93.5727 103.356 93.7212 103.27C93.8698 103.183 94.0354 103.14 94.218 103.14C94.3702 103.14 94.5059 103.171 94.6253 103.233C94.7458 103.294 94.8408 103.381 94.9102 103.495H94.9467V102.355H95.2572V105.104H94.9467V104.811H94.9102C94.8395 104.928 94.7452 105.019 94.6271 105.083C94.509 105.147 94.3738 105.178 94.2216 105.178ZM94.2545 104.897C94.4554 104.897 94.6222 104.826 94.7549 104.683C94.8876 104.541 94.954 104.366 94.954 104.157C94.954 103.949 94.8876 103.775 94.7549 103.633C94.6222 103.491 94.4554 103.42 94.2545 103.42C94.0524 103.42 93.8844 103.491 93.7505 103.633C93.6178 103.775 93.5514 103.949 93.5514 104.157C93.5514 104.369 93.6178 104.546 93.7505 104.687C93.8844 104.827 94.0524 104.897 94.2545 104.897ZM96.3566 105.164C96.1532 105.164 95.9895 105.114 95.8653 105.016C95.7423 104.917 95.6808 104.787 95.6808 104.625C95.6808 104.455 95.7527 104.313 95.8964 104.2C96.0412 104.086 96.2513 104.014 96.5264 103.982L97.0487 103.918V103.843C97.0487 103.716 97.0049 103.614 96.9172 103.538C96.8296 103.462 96.7091 103.423 96.5556 103.423C96.412 103.423 96.2975 103.457 96.2123 103.524C96.1283 103.59 96.0869 103.681 96.0881 103.798H95.774C95.774 103.598 95.8452 103.439 95.9877 103.321C96.1301 103.203 96.3207 103.144 96.5593 103.144C96.804 103.144 96.9982 103.208 97.1419 103.336C97.2868 103.464 97.3592 103.635 97.3592 103.851V105.104H97.0487V104.826H97.0159C96.8759 105.051 96.6561 105.164 96.3566 105.164ZM96.4022 104.904C96.5934 104.904 96.7486 104.853 96.8679 104.749C96.9885 104.645 97.0487 104.512 97.0487 104.351V104.183L96.5264 104.243C96.3426 104.266 96.2074 104.312 96.121 104.378C96.0345 104.444 95.9913 104.524 95.9913 104.618C95.9913 104.707 96.0278 104.777 96.1009 104.828C96.1739 104.879 96.2744 104.904 96.4022 104.904ZM98.0769 105.942C97.9722 105.942 97.8724 105.922 97.7774 105.882V105.608C97.876 105.645 97.9595 105.664 98.0276 105.664C98.0617 105.664 98.094 105.659 98.1244 105.65C98.1549 105.64 98.181 105.628 98.203 105.613C98.2261 105.6 98.2486 105.58 98.2705 105.555C98.2924 105.529 98.3107 105.505 98.3253 105.482C98.3399 105.46 98.3558 105.43 98.3728 105.394C98.3898 105.357 98.4032 105.326 98.413 105.301C98.4239 105.275 98.4379 105.241 98.455 105.198C98.472 105.156 98.4854 105.123 98.4952 105.1L97.6551 103.215H97.9801L98.6267 104.693H98.665L99.2184 103.215H99.5508L98.802 105.133C98.7094 105.363 98.637 105.522 98.5846 105.609C98.4739 105.796 98.3387 105.903 98.1792 105.933C98.1463 105.939 98.1122 105.942 98.0769 105.942ZM100.659 105.178C100.389 105.178 100.178 105.116 100.027 104.99C99.8777 104.865 99.8028 104.69 99.8028 104.464H100.1C100.103 104.601 100.155 104.71 100.256 104.793C100.357 104.876 100.495 104.917 100.67 104.917C100.814 104.917 100.928 104.889 101.012 104.833C101.096 104.776 101.138 104.698 101.138 104.599C101.138 104.562 101.133 104.528 101.123 104.499C101.113 104.47 101.093 104.445 101.063 104.426C101.034 104.405 101.009 104.389 100.99 104.377C100.972 104.363 100.935 104.351 100.88 104.34C100.827 104.329 100.79 104.322 100.769 104.32C100.749 104.316 100.705 104.31 100.636 104.302C100.617 104.299 100.604 104.298 100.595 104.296C100.528 104.288 100.468 104.279 100.415 104.269C100.362 104.259 100.305 104.245 100.243 104.227C100.181 104.209 100.127 104.186 100.082 104.159C100.037 104.131 99.9945 104.098 99.9544 104.061C99.9154 104.022 99.8856 103.974 99.8649 103.918C99.8454 103.862 99.8357 103.8 99.8357 103.73C99.8357 103.549 99.9051 103.405 100.044 103.299C100.183 103.193 100.366 103.14 100.595 103.14C100.833 103.14 101.024 103.199 101.169 103.316C101.315 103.431 101.388 103.586 101.388 103.779H101.085C101.084 103.664 101.038 103.572 100.948 103.504C100.858 103.436 100.739 103.401 100.592 103.401C100.454 103.401 100.343 103.431 100.258 103.489C100.174 103.546 100.132 103.623 100.132 103.719C100.132 103.756 100.137 103.788 100.148 103.816C100.159 103.844 100.178 103.868 100.205 103.887C100.231 103.907 100.256 103.923 100.279 103.935C100.304 103.947 100.34 103.958 100.387 103.968C100.436 103.977 100.474 103.984 100.502 103.988C100.53 103.991 100.575 103.997 100.636 104.004C100.649 104.005 100.659 104.007 100.667 104.008C100.725 104.015 100.777 104.023 100.822 104.031C100.867 104.039 100.917 104.05 100.972 104.064C101.028 104.079 101.076 104.096 101.116 104.115C101.157 104.134 101.199 104.158 101.24 104.189C101.281 104.218 101.315 104.251 101.341 104.289C101.367 104.326 101.389 104.37 101.404 104.422C101.421 104.473 101.43 104.531 101.43 104.594C101.43 104.779 101.362 104.923 101.225 105.025C101.09 105.127 100.902 105.178 100.659 105.178Z" fill="#1E2F4E"/>
<g opacity="0.4">
<circle cx="113.375" cy="98.3571" r="0.311687" fill="#657186"/>
<circle cx="113.375" cy="100.227" r="0.311687" fill="#657186"/>
</g>
<rect x="115.557" y="89.9868" width="29.7012" height="18.6104" rx="2.49349" fill="#E2EBFF"/>
<path d="M128.924 99.4805H127.997V95.3604H127.923L126.704 96.2772V95.269L128.154 94.1842H128.924V99.4805ZM131.974 99.6448C131.37 99.6448 130.872 99.4756 130.48 99.1371C130.091 98.7987 129.896 98.3774 129.896 97.8733C129.896 97.4131 130.088 96.9237 130.473 96.405L132.142 94.1842L133.223 94.1769L131.737 96.1603C131.897 96.0994 132.069 96.069 132.252 96.069C132.778 96.069 133.211 96.2321 133.552 96.5584C133.893 96.8823 134.063 97.295 134.063 97.7966C134.063 98.3372 133.867 98.7804 133.475 99.1262C133.086 99.4719 132.585 99.6448 131.974 99.6448ZM132 98.8522C132.328 98.8522 132.598 98.7536 132.807 98.5564C133.016 98.3591 133.121 98.1059 133.121 97.7966C133.121 97.4971 133.015 97.2524 132.803 97.0625C132.594 96.8701 132.326 96.7739 132 96.7739C131.664 96.769 131.385 96.864 131.163 97.0588C130.942 97.2512 130.831 97.4971 130.831 97.7966C130.831 98.1083 130.941 98.364 131.16 98.5637C131.381 98.7609 131.661 98.8571 132 98.8522Z" fill="#1E2F4E"/>
<path d="M125.785 105.104H125.474V102.355H125.785V103.454H125.821C125.89 103.355 125.975 103.277 126.077 103.222C126.179 103.168 126.293 103.14 126.417 103.14C126.653 103.14 126.843 103.218 126.987 103.372C127.13 103.527 127.202 103.726 127.202 103.969V105.104H126.892V103.969C126.892 103.806 126.845 103.674 126.753 103.573C126.66 103.471 126.534 103.42 126.375 103.42C126.213 103.42 126.074 103.475 125.958 103.586C125.843 103.697 125.785 103.835 125.785 104V105.104ZM128.654 105.178C128.357 105.178 128.113 105.083 127.923 104.893C127.735 104.702 127.64 104.457 127.64 104.157C127.64 103.859 127.735 103.615 127.923 103.425C128.113 103.235 128.357 103.14 128.654 103.14C128.95 103.14 129.193 103.236 129.383 103.427C129.573 103.617 129.668 103.86 129.668 104.157C129.668 104.457 129.573 104.702 129.383 104.893C129.193 105.083 128.95 105.178 128.654 105.178ZM128.654 104.897C128.857 104.897 129.025 104.828 129.158 104.689C129.291 104.55 129.357 104.373 129.357 104.157C129.357 103.944 129.291 103.768 129.158 103.63C129.025 103.49 128.857 103.42 128.654 103.42C128.449 103.42 128.281 103.49 128.148 103.63C128.017 103.768 127.951 103.944 127.951 104.157C127.951 104.373 128.017 104.55 128.148 104.689C128.28 104.828 128.448 104.897 128.654 104.897ZM131.518 103.215H131.828V105.104H131.518V104.846H131.481C131.415 104.949 131.331 105.03 131.227 105.087C131.125 105.143 131.012 105.171 130.889 105.171C130.652 105.171 130.461 105.094 130.318 104.939C130.175 104.785 130.104 104.585 130.104 104.34V103.215H130.415V104.34C130.415 104.504 130.46 104.637 130.552 104.738C130.643 104.839 130.768 104.89 130.928 104.89C131.09 104.89 131.228 104.835 131.344 104.725C131.46 104.615 131.518 104.478 131.518 104.315V103.215ZM132.717 105.104H132.407V103.215H132.71V103.469H132.743C132.786 103.384 132.854 103.314 132.948 103.259C133.043 103.204 133.142 103.177 133.247 103.177C133.338 103.177 133.416 103.193 133.479 103.226V103.515C133.393 103.477 133.299 103.458 133.2 103.458C133.057 103.458 132.941 103.516 132.851 103.633C132.762 103.749 132.717 103.9 132.717 104.086V105.104ZM134.653 105.178C134.383 105.178 134.172 105.116 134.021 104.99C133.872 104.865 133.797 104.69 133.797 104.464H134.095C134.097 104.601 134.149 104.71 134.25 104.793C134.351 104.876 134.489 104.917 134.664 104.917C134.808 104.917 134.922 104.889 135.006 104.833C135.09 104.776 135.132 104.698 135.132 104.599C135.132 104.562 135.127 104.528 135.117 104.499C135.107 104.47 135.087 104.445 135.057 104.426C135.028 104.405 135.003 104.389 134.984 104.377C134.966 104.363 134.929 104.351 134.874 104.34C134.821 104.329 134.784 104.322 134.763 104.32C134.743 104.316 134.699 104.31 134.63 104.302C134.611 104.299 134.598 104.298 134.589 104.296C134.522 104.288 134.462 104.279 134.409 104.269C134.356 104.259 134.299 104.245 134.237 104.227C134.175 104.209 134.121 104.186 134.076 104.159C134.031 104.131 133.989 104.098 133.948 104.061C133.909 104.022 133.88 103.974 133.859 103.918C133.839 103.862 133.83 103.8 133.83 103.73C133.83 103.549 133.899 103.405 134.038 103.299C134.177 103.193 134.361 103.14 134.589 103.14C134.827 103.14 135.018 103.199 135.163 103.316C135.309 103.431 135.382 103.586 135.382 103.779H135.079C135.078 103.664 135.032 103.572 134.942 103.504C134.852 103.436 134.733 103.401 134.586 103.401C134.448 103.401 134.337 103.431 134.252 103.489C134.168 103.546 134.126 103.623 134.126 103.719C134.126 103.756 134.131 103.788 134.142 103.816C134.153 103.844 134.172 103.868 134.199 103.887C134.225 103.907 134.25 103.923 134.273 103.935C134.298 103.947 134.334 103.958 134.381 103.968C134.43 103.977 134.468 103.984 134.496 103.988C134.524 103.991 134.569 103.997 134.63 104.004C134.643 104.005 134.653 104.007 134.661 104.008C134.719 104.015 134.771 104.023 134.816 104.031C134.861 104.039 134.911 104.05 134.966 104.064C135.022 104.079 135.07 104.096 135.11 104.115C135.151 104.134 135.193 104.158 135.234 104.189C135.276 104.218 135.309 104.251 135.335 104.289C135.361 104.326 135.383 104.37 135.398 104.422C135.416 104.473 135.424 104.531 135.424 104.594C135.424 104.779 135.356 104.923 135.219 105.025C135.084 105.127 134.896 105.178 134.653 105.178Z" fill="#1E2F4E"/>
<g opacity="0.4">
<circle cx="147.44" cy="98.3571" r="0.311687" fill="#657186"/>
<circle cx="147.44" cy="100.227" r="0.311687" fill="#657186"/>
</g>
<rect x="149.622" y="89.9868" width="28.7012" height="18.6104" rx="2.49349" fill="#E2EBFF"/>
<path d="M161.712 99.6448C161.139 99.6448 160.659 99.4561 160.269 99.0787C159.882 98.6988 159.677 98.2215 159.655 97.6469H160.557C160.557 97.9975 160.666 98.2897 160.883 98.5235C161.102 98.7573 161.373 98.8741 161.697 98.8741C162.014 98.8741 162.275 98.7804 162.482 98.5929C162.692 98.403 162.797 98.1631 162.797 97.8733C162.797 97.5811 162.691 97.3388 162.479 97.1465C162.269 96.9517 162.006 96.8543 161.69 96.8543C161.51 96.8543 161.353 96.8847 161.219 96.9456L160.978 96.3393L162.227 95.0207V94.9476H159.969V94.1842H163.512V94.7686L162.146 96.2114C162.597 96.2723 162.969 96.4598 163.264 96.7739C163.561 97.088 163.71 97.4667 163.71 97.9099C163.71 98.4139 163.521 98.8291 163.144 99.1554C162.769 99.4817 162.291 99.6448 161.712 99.6448ZM168.148 99.4805H164.378V98.9801L166.592 96.9054C166.611 96.8884 166.638 96.8628 166.672 96.8287C166.794 96.7142 166.884 96.6266 166.942 96.5657C167.001 96.5048 167.068 96.4269 167.143 96.3319C167.219 96.2345 167.271 96.1408 167.3 96.0507C167.332 95.9606 167.348 95.8644 167.348 95.7621C167.348 95.487 167.253 95.2593 167.063 95.0791C166.875 94.8965 166.643 94.8052 166.365 94.8052C166.058 94.8052 165.8 94.9184 165.591 95.1449C165.384 95.3713 165.273 95.6623 165.258 96.0178H164.385C164.383 95.638 164.466 95.2946 164.634 94.9878C164.804 94.681 165.04 94.4423 165.342 94.2719C165.647 94.099 165.988 94.0126 166.365 94.0126C166.908 94.0126 167.356 94.1708 167.709 94.4874C168.065 94.8015 168.243 95.1996 168.243 95.6818C168.245 95.974 168.16 96.2504 167.987 96.5109C167.816 96.7715 167.542 97.0783 167.165 97.4314L165.843 98.644V98.7171H168.148V99.4805Z" fill="#1E2F4E"/>
<path d="M161.231 105.104H160.921V103.215H161.22V103.465H161.257C161.311 103.365 161.385 103.286 161.482 103.228C161.578 103.169 161.686 103.14 161.807 103.14C161.939 103.14 162.062 103.174 162.174 103.241C162.287 103.308 162.37 103.397 162.424 103.507H162.457C162.525 103.393 162.613 103.304 162.72 103.241C162.828 103.176 162.952 103.144 163.091 103.144C163.313 103.144 163.496 103.222 163.638 103.378C163.781 103.534 163.852 103.734 163.852 103.979V105.104H163.542V103.975C163.542 103.814 163.495 103.681 163.403 103.577C163.312 103.472 163.195 103.42 163.052 103.42C162.901 103.42 162.777 103.472 162.68 103.577C162.583 103.681 162.535 103.814 162.535 103.975V105.104H162.225V103.975C162.225 103.808 162.18 103.674 162.092 103.573C162.003 103.471 161.885 103.42 161.739 103.42C161.586 103.42 161.463 103.471 161.37 103.573C161.278 103.674 161.231 103.808 161.231 103.975V105.104ZM164.736 102.793C164.696 102.835 164.643 102.855 164.577 102.855C164.511 102.855 164.457 102.835 164.415 102.793C164.373 102.751 164.353 102.696 164.353 102.631C164.353 102.567 164.373 102.516 164.415 102.475C164.457 102.434 164.511 102.413 164.577 102.413C164.643 102.413 164.696 102.433 164.736 102.474C164.777 102.514 164.798 102.566 164.798 102.631C164.798 102.696 164.777 102.751 164.736 102.793ZM164.731 105.104H164.42V103.215H164.731V105.104ZM165.647 105.104H165.337V103.215H165.647V103.473H165.684C165.752 103.367 165.837 103.286 165.94 103.23C166.042 103.173 166.155 103.144 166.279 103.144C166.515 103.144 166.705 103.222 166.849 103.378C166.993 103.534 167.065 103.733 167.065 103.975V105.104H166.754V103.975C166.754 103.813 166.708 103.681 166.615 103.579C166.523 103.475 166.397 103.423 166.237 103.423C166.077 103.423 165.938 103.479 165.821 103.591C165.705 103.702 165.647 103.839 165.647 104V105.104Z" fill="#1E2F4E"/>
<g opacity="0.4">
<circle cx="180.505" cy="98.3571" r="0.311687" fill="#657186"/>
<circle cx="180.505" cy="100.227" r="0.311687" fill="#657186"/>
</g>
<rect x="182.687" y="89.9868" width="28.7012" height="18.6104" rx="2.49349" fill="#E2EBFF"/>
<path d="M194.659 99.6448C194.087 99.6448 193.606 99.4573 193.217 99.0823C192.829 98.7073 192.625 98.2337 192.603 97.6615H193.509C193.509 98.0048 193.617 98.2934 193.834 98.5271C194.053 98.7585 194.323 98.8741 194.645 98.8741C194.961 98.8741 195.223 98.7792 195.43 98.5892C195.639 98.3969 195.744 98.1558 195.744 97.866C195.744 97.5543 195.635 97.3023 195.415 97.1099C195.196 96.9151 194.897 96.8177 194.517 96.8177H193.03L193.301 94.1842H196.223V94.9476H194.016L193.907 96.0909H194.699C195.286 96.0909 195.756 96.2565 196.109 96.5876C196.465 96.9188 196.643 97.3449 196.643 97.866C196.643 98.3847 196.455 98.8108 196.08 99.1444C195.708 99.478 195.234 99.6448 194.659 99.6448ZM199.408 99.6448C198.804 99.6448 198.306 99.4756 197.914 99.1371C197.524 98.7987 197.329 98.3774 197.329 97.8733C197.329 97.4131 197.522 96.9237 197.906 96.405L199.576 94.1842L200.657 94.1769L199.17 96.1603C199.331 96.0994 199.503 96.069 199.685 96.069C200.211 96.069 200.645 96.2321 200.986 96.5584C201.326 96.8823 201.497 97.295 201.497 97.7966C201.497 98.3372 201.301 98.7804 200.909 99.1262C200.519 99.4719 200.019 99.6448 199.408 99.6448ZM199.433 98.8522C199.762 98.8522 200.031 98.7536 200.24 98.5564C200.45 98.3591 200.555 98.1059 200.555 97.7966C200.555 97.4971 200.449 97.2524 200.237 97.0625C200.027 96.8701 199.759 96.7739 199.433 96.7739C199.097 96.769 198.818 96.864 198.597 97.0588C198.375 97.2512 198.264 97.4971 198.264 97.7966C198.264 98.1083 198.374 98.364 198.593 98.5637C198.815 98.7609 199.095 98.8571 199.433 98.8522Z" fill="#1E2F4E"/>
<path d="M194.749 105.178C194.478 105.178 194.268 105.116 194.117 104.99C193.967 104.865 193.892 104.69 193.892 104.464H194.19C194.192 104.601 194.244 104.71 194.345 104.793C194.446 104.876 194.584 104.917 194.76 104.917C194.903 104.917 195.017 104.889 195.101 104.833C195.185 104.776 195.227 104.698 195.227 104.599C195.227 104.562 195.222 104.528 195.213 104.499C195.203 104.47 195.183 104.445 195.152 104.426C195.123 104.405 195.099 104.389 195.079 104.377C195.061 104.363 195.025 104.351 194.97 104.34C194.916 104.329 194.879 104.322 194.858 104.32C194.839 104.316 194.794 104.31 194.725 104.302C194.707 104.299 194.693 104.298 194.685 104.296C194.618 104.288 194.558 104.279 194.504 104.269C194.452 104.259 194.394 104.245 194.332 104.227C194.27 104.209 194.217 104.186 194.172 104.159C194.127 104.131 194.084 104.098 194.044 104.061C194.005 104.022 193.975 103.974 193.954 103.918C193.935 103.862 193.925 103.8 193.925 103.73C193.925 103.549 193.995 103.405 194.133 103.299C194.272 103.193 194.456 103.14 194.685 103.14C194.922 103.14 195.113 103.199 195.258 103.316C195.404 103.431 195.477 103.586 195.477 103.779H195.174C195.173 103.664 195.127 103.572 195.037 103.504C194.947 103.436 194.829 103.401 194.681 103.401C194.544 103.401 194.432 103.431 194.347 103.489C194.263 103.546 194.221 103.623 194.221 103.719C194.221 103.756 194.226 103.788 194.237 103.816C194.248 103.844 194.267 103.868 194.294 103.887C194.321 103.907 194.346 103.923 194.369 103.935C194.393 103.947 194.429 103.958 194.477 103.968C194.525 103.977 194.564 103.984 194.592 103.988C194.62 103.991 194.664 103.997 194.725 104.004C194.738 104.005 194.749 104.007 194.756 104.008C194.815 104.015 194.866 104.023 194.911 104.031C194.956 104.039 195.006 104.05 195.061 104.064C195.117 104.079 195.165 104.096 195.205 104.115C195.247 104.134 195.288 104.158 195.33 104.189C195.371 104.218 195.404 104.251 195.43 104.289C195.457 104.326 195.478 104.37 195.494 104.422C195.511 104.473 195.519 104.531 195.519 104.594C195.519 104.779 195.451 104.923 195.315 105.025C195.18 105.127 194.991 105.178 194.749 105.178ZM196.933 105.178C196.637 105.178 196.393 105.08 196.201 104.884C196.01 104.688 195.914 104.439 195.914 104.136C195.914 103.847 196.008 103.609 196.197 103.422C196.386 103.234 196.626 103.14 196.917 103.14C197.204 103.14 197.441 103.235 197.627 103.423C197.815 103.611 197.908 103.849 197.908 104.139C197.908 104.193 197.907 104.234 197.905 104.262H196.234C196.257 104.453 196.332 104.607 196.46 104.724C196.588 104.839 196.748 104.897 196.94 104.897C197.08 104.897 197.208 104.865 197.322 104.8C197.438 104.735 197.526 104.645 197.587 104.532L197.844 104.662C197.768 104.822 197.648 104.949 197.486 105.041C197.326 105.133 197.141 105.178 196.933 105.178ZM196.237 103.989H197.583C197.555 103.819 197.479 103.681 197.355 103.577C197.232 103.472 197.081 103.42 196.902 103.42C196.729 103.42 196.582 103.472 196.46 103.577C196.338 103.681 196.264 103.819 196.237 103.989ZM199.272 105.178C198.986 105.178 198.75 105.082 198.564 104.89C198.379 104.697 198.287 104.453 198.288 104.157C198.288 103.862 198.381 103.618 198.566 103.427C198.751 103.236 198.986 103.14 199.272 103.14C199.504 103.14 199.706 103.206 199.879 103.337C200.053 103.468 200.158 103.634 200.193 103.836L199.89 103.876C199.857 103.741 199.783 103.632 199.667 103.548C199.553 103.462 199.422 103.42 199.276 103.42C199.081 103.42 198.919 103.489 198.79 103.628C198.661 103.765 198.597 103.942 198.599 104.157C198.599 104.375 198.662 104.553 198.789 104.691C198.916 104.828 199.078 104.897 199.272 104.897C199.42 104.897 199.551 104.856 199.665 104.773C199.78 104.69 199.856 104.582 199.893 104.45L200.2 104.49C200.158 104.69 200.049 104.855 199.873 104.985C199.699 105.114 199.499 105.178 199.272 105.178Z" fill="#1E2F4E"/>
<defs>
<filter id="filter0_f_22113_125" x="9.4967" y="154.422" width="28.3093" height="4.43628" filterUnits="userSpaceOnUse" color-interpolation-filters="sRGB">
<feFlood flood-opacity="0" result="BackgroundImageFix"/>
<feBlend mode="normal" in="SourceGraphic" in2="BackgroundImageFix" result="shape"/>
<feGaussianBlur stdDeviation="0.855164" result="effect1_foregroundBlur_22113_125"/>
</filter>
<filter id="filter1_d_22113_125" x="22.5176" y="143.775" width="9.28033" height="6.06061" filterUnits="userSpaceOnUse" color-interpolation-filters="sRGB">
<feFlood flood-opacity="0" result="BackgroundImageFix"/>
<feColorMatrix in="SourceAlpha" type="matrix" values="0 0 0 0 0 0 0 0 0 0 0 0 0 0 0 0 0 0 127 0" result="hardAlpha"/>
<feOffset dx="0.253967" dy="0.253967"/>
<feComposite in2="hardAlpha" operator="out"/>
<feColorMatrix type="matrix" values="0 0 0 0 0 0 0 0 0 0 0 0 0 0 0 0 0 0 0.25 0"/>
<feBlend mode="normal" in2="BackgroundImageFix" result="effect1_dropShadow_22113_125"/>
<feBlend mode="normal" in="SourceGraphic" in2="effect1_dropShadow_22113_125" result="shape"/>
</filter>
<linearGradient id="paint0_linear_22113_125" x1="146.111" y1="181.968" x2="146.111" y2="0" gradientUnits="userSpaceOnUse">
<stop stop-color="#F7FAFF"/>
<stop offset="1" stop-color="#EBF1FF"/>
</linearGradient>
<linearGradient id="paint1_linear_22113_125" x1="146.111" y1="0" x2="146.111" y2="181.968" gradientUnits="userSpaceOnUse">
<stop stop-color="#96AFDF"/>
<stop offset="1" stop-color="#F7FAFF"/>
</linearGradient>
<linearGradient id="paint2_linear_22113_125" x1="11.207" y1="156.641" x2="36.0958" y2="156.641" gradientUnits="userSpaceOnUse">
<stop stop-color="#11244F" stop-opacity="0"/>
<stop offset="0.197089" stop-color="#11244F"/>
<stop offset="1" stop-color="#11244F" stop-opacity="0"/>
</linearGradient>
<linearGradient id="paint3_linear_22113_125" x1="18.5059" y1="158.898" x2="31.2987" y2="145.499" gradientUnits="userSpaceOnUse">
<stop stop-color="#002270"/>
<stop offset="1" stop-color="#002270" stop-opacity="0"/>
</linearGradient>
<linearGradient id="paint4_linear_22113_125" x1="33.1474" y1="145.468" x2="26.6365" y2="158.974" gradientUnits="userSpaceOnUse">
<stop stop-opacity="0"/>
<stop offset="1"/>
</linearGradient>
<linearGradient id="paint5_linear_22113_125" x1="33.7037" y1="145.355" x2="23.3641" y2="159.411" gradientUnits="userSpaceOnUse">
<stop stop-color="white"/>
<stop offset="1" stop-color="white" stop-opacity="0"/>
</linearGradient>
<clipPath id="clip0_22113_125">
<rect width="5.52069" height="5.52069" fill="white" transform="translate(15.1953 147.742) rotate(-15)"/>
</clipPath>
</defs>
</svg>
