<svg width="353" height="30" viewBox="0 0 353 30" fill="none" xmlns="http://www.w3.org/2000/svg">
<circle cx="15" cy="15" r="15" fill="#3C5C99"/>
<path d="M53.16 21.38C51.8933 21.38 50.78 21.1733 49.82 20.76C48.8733 20.3333 48.1333 19.74 47.6 18.98C47.08 18.22 46.82 17.3333 46.82 16.32H49.98C49.9933 17.1067 50.2867 17.7267 50.86 18.18C51.4333 18.6333 52.2333 18.86 53.26 18.86C54.1133 18.86 54.78 18.7 55.26 18.38C55.7533 18.06 56 17.6133 56 17.04C56 16.6133 55.86 16.28 55.58 16.04C55.3133 15.7867 54.9667 15.6 54.54 15.48C54.1133 15.36 53.5467 15.2467 52.84 15.14C51.64 14.9667 50.6533 14.7733 49.88 14.56C49.1067 14.3333 48.4267 13.9333 47.84 13.36C47.2533 12.7733 46.96 11.9533 46.96 10.9C46.96 9.99333 47.2 9.2 47.68 8.52C48.16 7.84 48.84 7.31333 49.72 6.94C50.6133 6.56667 51.66 6.38 52.86 6.38C54.0733 6.38 55.1333 6.58667 56.04 7C56.96 7.4 57.6667 7.97333 58.16 8.72C58.6533 9.46667 58.9 10.3333 58.9 11.32H55.84C55.8533 10.56 55.6 9.96667 55.08 9.54C54.56 9.11333 53.8467 8.9 52.94 8.9C52.1133 8.9 51.46 9.06 50.98 9.38C50.5133 9.7 50.28 10.1267 50.28 10.66C50.28 11.0867 50.4267 11.4267 50.72 11.68C51.0133 11.92 51.3867 12.1 51.84 12.22C52.2933 12.3267 52.9067 12.4333 53.68 12.54C54.8133 12.7133 55.76 12.92 56.52 13.16C57.2933 13.4 57.9533 13.8133 58.5 14.4C59.0467 14.9867 59.32 15.8 59.32 16.84C59.32 17.76 59.0667 18.56 58.56 19.24C58.0667 19.92 57.3533 20.4467 56.42 20.82C55.5 21.1933 54.4133 21.38 53.16 21.38ZM71.1206 21H68.1606V19.56H67.9606C67.2006 20.72 66.2073 21.3 64.9806 21.3C64.2206 21.3 63.5473 21.12 62.9606 20.76C62.374 20.3867 61.9206 19.88 61.6006 19.24C61.2806 18.5867 61.1206 17.8533 61.1206 17.04V10.76H64.0806V16.62C64.0806 17.26 64.254 17.78 64.6006 18.18C64.9473 18.5667 65.414 18.76 66.0006 18.76C66.6006 18.76 67.1073 18.5467 67.5206 18.12C67.9473 17.6933 68.1606 17.16 68.1606 16.52V10.76H71.1206V21ZM79.7895 21.32C78.3762 21.32 77.2962 20.78 76.5495 19.7H76.3495V21H73.3895V6.16H76.3495V12.04H76.5495C76.9095 11.52 77.3629 11.1267 77.9095 10.86C78.4695 10.58 79.0962 10.44 79.7895 10.44C80.7095 10.44 81.5362 10.6733 82.2695 11.14C83.0162 11.5933 83.5962 12.2333 84.0095 13.06C84.4229 13.8733 84.6295 14.8133 84.6295 15.88C84.6295 16.9467 84.4229 17.8933 84.0095 18.72C83.5962 19.5467 83.0229 20.1867 82.2895 20.64C81.5562 21.0933 80.7229 21.32 79.7895 21.32ZM78.9495 18.8C79.7229 18.8 80.3629 18.52 80.8695 17.96C81.3895 17.4 81.6495 16.7067 81.6495 15.88C81.6495 15.0533 81.3962 14.3667 80.8895 13.82C80.3829 13.26 79.7362 12.98 78.9495 12.98C78.1629 12.98 77.5095 13.26 76.9895 13.82C76.4829 14.3667 76.2295 15.0533 76.2295 15.88C76.2295 16.7067 76.4829 17.4 76.9895 17.96C77.5095 18.52 78.1629 18.8 78.9495 18.8ZM90.9164 21.36C89.3964 21.36 88.2031 21.0267 87.3364 20.36C86.4697 19.68 86.0364 18.7533 86.0364 17.58H88.6564C88.6564 18.1267 88.8631 18.5667 89.2764 18.9C89.7031 19.2333 90.2764 19.4 90.9964 19.4C91.5564 19.4 92.0031 19.2867 92.3364 19.06C92.6831 18.8333 92.8564 18.5267 92.8564 18.14C92.8564 17.7133 92.6697 17.4333 92.2964 17.3C91.9231 17.1533 91.3431 17.04 90.5564 16.96C89.6897 16.8667 88.9564 16.7467 88.3564 16.6C87.7697 16.44 87.2564 16.14 86.8164 15.7C86.3764 15.26 86.1564 14.6333 86.1564 13.82C86.1564 12.78 86.5697 11.9533 87.3964 11.34C88.2364 10.7133 89.3431 10.4 90.7164 10.4C91.6231 10.4 92.4364 10.54 93.1564 10.82C93.8764 11.1 94.4364 11.5067 94.8364 12.04C95.2364 12.56 95.4364 13.1667 95.4364 13.86H92.7364C92.7231 13.4067 92.5297 13.0467 92.1564 12.78C91.7964 12.5 91.3164 12.36 90.7164 12.36C90.1697 12.36 89.7297 12.4733 89.3964 12.7C89.0631 12.9133 88.8964 13.2067 88.8964 13.58C88.8964 13.8733 89.0097 14.1 89.2364 14.26C89.4764 14.4067 89.7431 14.5067 90.0364 14.56C90.3431 14.6133 90.8564 14.68 91.5764 14.76C92.3631 14.8533 93.0497 14.9933 93.6364 15.18C94.2364 15.3533 94.7364 15.66 95.1364 16.1C95.5497 16.5267 95.7564 17.12 95.7564 17.88C95.7564 18.9733 95.3231 19.8267 94.4564 20.44C93.6031 21.0533 92.4231 21.36 90.9164 21.36ZM102.728 21.32C101.648 21.32 100.688 21.0933 99.8483 20.64C99.0083 20.1867 98.3483 19.5467 97.8683 18.72C97.4016 17.8933 97.1683 16.9467 97.1683 15.88C97.1683 14.8 97.4016 13.8533 97.8683 13.04C98.3349 12.2133 98.9883 11.5733 99.8283 11.12C100.668 10.6667 101.635 10.44 102.728 10.44C103.648 10.44 104.482 10.6067 105.228 10.94C105.988 11.26 106.608 11.72 107.088 12.32C107.568 12.92 107.862 13.62 107.968 14.42L105.208 14.78C105.075 14.22 104.775 13.7667 104.308 13.42C103.855 13.06 103.342 12.88 102.768 12.88C102.008 12.88 101.375 13.16 100.868 13.72C100.375 14.28 100.128 15 100.128 15.88C100.128 16.76 100.375 17.48 100.868 18.04C101.362 18.6 101.988 18.88 102.748 18.88C103.335 18.88 103.855 18.7067 104.308 18.36C104.762 18 105.062 17.5467 105.208 17L107.988 17.34C107.868 18.14 107.562 18.84 107.068 19.44C106.588 20.04 105.968 20.5067 105.208 20.84C104.462 21.16 103.635 21.32 102.728 21.32ZM109.816 10.76H112.736V12.16H112.956C113.182 11.68 113.522 11.2933 113.976 11C114.442 10.7067 114.942 10.56 115.476 10.56C115.902 10.56 116.289 10.6467 116.636 10.82V13.48C116.369 13.36 116.076 13.2667 115.756 13.2C115.449 13.1333 115.182 13.1 114.956 13.1C114.302 13.1 113.776 13.3467 113.376 13.84C112.976 14.3333 112.776 14.9733 112.776 15.76V21H109.816V10.76ZM119.794 9.34C119.274 9.34 118.848 9.18 118.514 8.86C118.181 8.52667 118.014 8.10667 118.014 7.6C118.014 7.09333 118.181 6.68 118.514 6.36C118.848 6.02667 119.274 5.86 119.794 5.86C120.314 5.86 120.741 6.02667 121.074 6.36C121.408 6.68 121.574 7.09333 121.574 7.6C121.574 8.10667 121.408 8.52667 121.074 8.86C120.741 9.18 120.314 9.34 119.794 9.34ZM118.314 10.76H121.274V21H118.314V10.76ZM130.024 10.44C130.957 10.44 131.791 10.6667 132.524 11.12C133.257 11.5733 133.831 12.2133 134.244 13.04C134.657 13.8667 134.864 14.8133 134.864 15.88C134.864 16.9467 134.657 17.8933 134.244 18.72C133.831 19.5333 133.251 20.1733 132.504 20.64C131.771 21.0933 130.944 21.32 130.024 21.32C129.331 21.32 128.704 21.1867 128.144 20.92C127.597 20.64 127.144 20.24 126.784 19.72H126.584V25.6H123.624V10.76H126.584V12.06H126.784C127.531 10.98 128.611 10.44 130.024 10.44ZM129.184 12.98C128.397 12.98 127.744 13.26 127.224 13.82C126.717 14.3667 126.464 15.0533 126.464 15.88C126.464 16.7067 126.717 17.4 127.224 17.96C127.744 18.52 128.397 18.8 129.184 18.8C129.971 18.8 130.617 18.52 131.124 17.96C131.631 17.4 131.884 16.7067 131.884 15.88C131.884 15.0533 131.624 14.3667 131.104 13.82C130.597 13.26 129.957 12.98 129.184 12.98ZM140.616 21.32C139.59 21.32 138.77 20.9867 138.156 20.32C137.543 19.6533 137.236 18.78 137.236 17.7V12.92H135.796V10.76H137.316L137.896 7.52H140.216L140.196 10.76H142.536V12.92H140.196V17.58C140.196 18.02 140.316 18.3733 140.556 18.64C140.81 18.8933 141.143 19.02 141.556 19.02C141.863 19.02 142.216 18.9733 142.616 18.88V21C142.336 21.0933 142.01 21.1667 141.636 21.22C141.263 21.2867 140.923 21.32 140.616 21.32ZM146.025 9.34C145.505 9.34 145.078 9.18 144.745 8.86C144.411 8.52667 144.245 8.10667 144.245 7.6C144.245 7.09333 144.411 6.68 144.745 6.36C145.078 6.02667 145.505 5.86 146.025 5.86C146.545 5.86 146.971 6.02667 147.305 6.36C147.638 6.68 147.805 7.09333 147.805 7.6C147.805 8.10667 147.638 8.52667 147.305 8.86C146.971 9.18 146.545 9.34 146.025 9.34ZM144.545 10.76H147.505V21H144.545V10.76ZM155.074 21.32C153.941 21.32 152.948 21.1 152.094 20.66C151.241 20.2067 150.574 19.5733 150.094 18.76C149.628 17.9333 149.394 16.9733 149.394 15.88C149.394 14.7867 149.628 13.8333 150.094 13.02C150.574 12.1933 151.241 11.56 152.094 11.12C152.948 10.6667 153.941 10.44 155.074 10.44C156.194 10.44 157.181 10.6667 158.034 11.12C158.901 11.56 159.568 12.1933 160.034 13.02C160.514 13.8333 160.754 14.7867 160.754 15.88C160.754 16.9733 160.514 17.9333 160.034 18.76C159.568 19.5733 158.901 20.2067 158.034 20.66C157.181 21.1 156.194 21.32 155.074 21.32ZM155.074 18.8C155.861 18.8 156.508 18.5267 157.014 17.98C157.521 17.4333 157.774 16.7333 157.774 15.88C157.774 15.0267 157.521 14.3333 157.014 13.8C156.508 13.2533 155.861 12.98 155.074 12.98C154.274 12.98 153.621 13.2533 153.114 13.8C152.608 14.3333 152.354 15.0267 152.354 15.88C152.354 16.7333 152.608 17.4333 153.114 17.98C153.621 18.5267 154.274 18.8 155.074 18.8ZM162.55 10.76H165.51V12.2H165.71C166.47 11.04 167.463 10.46 168.69 10.46C169.45 10.46 170.123 10.6467 170.71 11.02C171.297 11.38 171.75 11.8867 172.07 12.54C172.39 13.18 172.55 13.9067 172.55 14.72V21H169.59V15.14C169.59 14.5 169.417 13.9867 169.07 13.6C168.723 13.2 168.257 13 167.67 13C167.07 13 166.557 13.2133 166.13 13.64C165.717 14.0667 165.51 14.6 165.51 15.24V21H162.55V10.76Z" fill="#3C5C99"/>
<path d="M10.152 20.266C9.26533 20.266 8.47667 20.0467 7.786 19.608C7.10467 19.16 6.57267 18.5393 6.19 17.746C5.80733 16.9433 5.616 16.0333 5.616 15.016C5.616 13.9987 5.80733 13.0933 6.19 12.3C6.57267 11.4973 7.10467 10.8767 7.786 10.438C8.47667 9.99 9.26533 9.766 10.152 9.766C11.0293 9.766 11.8133 9.99 12.504 10.438C13.1947 10.8767 13.7313 11.4973 14.114 12.3C14.4967 13.0933 14.688 13.9987 14.688 15.016C14.688 16.0333 14.4967 16.9433 14.114 17.746C13.7313 18.5393 13.1947 19.16 12.504 19.608C11.8133 20.0467 11.0293 20.266 10.152 20.266ZM10.152 18.264C10.5907 18.264 10.978 18.1287 11.314 17.858C11.65 17.5873 11.9067 17.2047 12.084 16.71C12.2707 16.2153 12.364 15.6507 12.364 15.016C12.364 14.3813 12.2707 13.8167 12.084 13.322C11.9067 12.8273 11.65 12.4447 11.314 12.174C10.978 11.9033 10.5907 11.768 10.152 11.768C9.71333 11.768 9.326 11.9033 8.99 12.174C8.654 12.4447 8.39267 12.8273 8.206 13.322C8.02867 13.8167 7.94 14.3813 7.94 15.016C7.94 15.6507 8.02867 16.2153 8.206 16.71C8.39267 17.2047 8.654 17.5873 8.99 17.858C9.326 18.1287 9.71333 18.264 10.152 18.264ZM15.9109 18.712L20.0549 15.03C20.3816 14.7313 20.6243 14.5027 20.7829 14.344C20.9509 14.176 21.0863 13.994 21.1889 13.798C21.3009 13.5927 21.3569 13.3733 21.3569 13.14C21.3569 12.7107 21.2076 12.356 20.9089 12.076C20.6103 11.7867 20.2416 11.642 19.8029 11.642C19.2989 11.642 18.8789 11.8287 18.5429 12.202C18.2069 12.566 18.0296 13.0513 18.0109 13.658H15.9389C15.9203 12.9207 16.0743 12.258 16.4009 11.67C16.7276 11.0727 17.1896 10.606 17.7869 10.27C18.3936 9.934 19.0749 9.766 19.8309 9.766C20.5309 9.766 21.1609 9.906 21.7209 10.186C22.2809 10.4567 22.7196 10.8347 23.0369 11.32C23.3543 11.796 23.5129 12.3373 23.5129 12.944C23.5129 13.504 23.3496 14.0267 23.0229 14.512C22.6963 14.9973 22.2016 15.5247 21.5389 16.094L19.2289 18.096V18.236H23.2889V20H15.9109V18.712Z" fill="white"/>
</svg>
