<svg width="244" height="204" viewBox="0 0 244 204" fill="none" xmlns="http://www.w3.org/2000/svg">
<rect x="39.6364" y="14.5583" width="156.323" height="188.704" rx="6.14126" fill="url(#paint0_linear_22113_198)" stroke="url(#paint1_linear_22113_198)" stroke-width="1.11659"/>
<rect opacity="0.2" x="52.4805" y="84.3438" width="68.9293" height="5.20221" rx="2.6011" fill="#709DFF"/>
<rect opacity="0.1" x="52.4805" y="93.8047" width="120.951" height="5.85249" rx="2.6011" fill="#709DFF"/>
<ellipse opacity="0.6" cx="65.1363" cy="40.0543" rx="12.6559" ry="12.6558" fill="#C4D7FE"/>
<path d="M70.1853 40.1142C70.1959 39.9757 70.2012 39.8358 70.2012 39.6945C70.2012 38.8436 70.006 38.0383 69.6578 37.3209C68.9672 37.9765 68.1451 38.495 67.2352 38.8329C67.2584 39.117 67.2702 39.4044 67.2702 39.6945C67.2702 40.3093 67.2172 40.9117 67.1155 41.4975C68.2284 41.2174 69.2643 40.7437 70.1853 40.1142Z" fill="#1E2F4E"/>
<path d="M66.2286 41.6765C66.3624 41.0369 66.4327 40.3739 66.4327 39.6945C66.4327 39.4889 66.4263 39.2847 66.4136 39.0822C65.8823 39.2088 65.3279 39.2758 64.7578 39.2758C64.1878 39.2758 63.6334 39.2088 63.1021 39.0822C63.0894 39.2847 63.083 39.4889 63.083 39.6945C63.083 40.3739 63.1533 41.0369 63.2871 41.6765C63.7666 41.75 64.2578 41.7881 64.7578 41.7881C65.2579 41.7881 65.7491 41.75 66.2286 41.6765Z" fill="#1E2F4E"/>
<path d="M63.5141 42.5525C63.9219 42.6007 64.337 42.6256 64.7578 42.6256C65.1787 42.6256 65.5937 42.6007 66.0016 42.5525C65.7147 43.4768 65.2924 44.3415 64.7578 45.1234C64.2233 44.3415 63.8009 43.4768 63.5141 42.5525Z" fill="#1E2F4E"/>
<path d="M62.4002 41.4975C62.2985 40.9117 62.2455 40.3093 62.2455 39.6945C62.2455 39.4044 62.2573 39.117 62.2805 38.8329C61.3706 38.495 60.5485 37.9765 59.8579 37.3209C59.5097 38.0383 59.3145 38.8436 59.3145 39.6945C59.3145 39.8358 59.3198 39.9757 59.3304 40.1142C60.2514 40.7437 61.2873 41.2174 62.4002 41.4975Z" fill="#1E2F4E"/>
<path d="M69.9813 41.2313C69.4142 43.1618 67.806 44.6469 65.8061 45.0371C66.2898 44.2236 66.6664 43.339 66.9165 42.4028C68.0106 42.1734 69.042 41.7732 69.9813 41.2313Z" fill="#1E2F4E"/>
<path d="M59.5344 41.2313C60.4737 41.7732 61.5051 42.1734 62.5992 42.4028C62.8493 43.339 63.2259 44.2236 63.7096 45.0371C61.7097 44.6469 60.1014 43.1618 59.5344 41.2313Z" fill="#1E2F4E"/>
<path d="M65.8061 34.352C67.2139 34.6266 68.4276 35.4438 69.2207 36.577C68.6297 37.1738 67.9199 37.6526 67.1296 37.9751C66.914 36.6702 66.457 35.4467 65.8061 34.352Z" fill="#1E2F4E"/>
<path d="M64.7578 34.2656C65.5555 35.4322 66.1032 36.7833 66.3238 38.2416C65.8232 38.37 65.2985 38.4384 64.7578 38.4384C64.2172 38.4384 63.6924 38.37 63.1918 38.2416C63.4125 36.7833 63.9602 35.4322 64.7578 34.2656Z" fill="#1E2F4E"/>
<path d="M63.7096 34.352C63.0587 35.4467 62.6017 36.6702 62.386 37.9751C61.5958 37.6526 60.886 37.1738 60.295 36.577C61.0881 35.4438 62.3018 34.6266 63.7096 34.352Z" fill="#1E2F4E"/>
<rect x="52.4805" y="158.039" width="130.641" height="25.6816" rx="6.69956" fill="#C6D7FF"/>
<path d="M97.9892 173.576C97.1459 173.576 96.4771 173.373 95.9828 172.966C95.4914 172.558 95.2457 172.009 95.2457 171.317H96.3361C96.3361 171.738 96.4829 172.068 96.7766 172.307C97.0732 172.545 97.4861 172.665 98.0153 172.665C98.4661 172.665 98.815 172.579 99.0622 172.407C99.3122 172.233 99.4373 171.991 99.4373 171.683C99.4373 171.579 99.4213 171.484 99.3893 171.4C99.3573 171.312 99.318 171.238 99.2715 171.177C99.225 171.116 99.1567 171.061 99.0665 171.011C98.9793 170.959 98.8979 170.917 98.8223 170.885C98.7467 170.853 98.6434 170.822 98.5126 170.793C98.3817 170.761 98.2712 170.738 98.1811 170.724C98.0939 170.706 97.9732 170.686 97.8191 170.663C97.6679 170.639 97.5399 170.619 97.4352 170.601C97.3306 170.584 97.2026 170.559 97.0514 170.527C96.9031 170.492 96.7752 170.458 96.6676 170.423C96.5629 170.388 96.4466 170.343 96.3186 170.287C96.1907 170.232 96.0817 170.173 95.9915 170.109C95.9043 170.045 95.8156 169.969 95.7255 169.882C95.6353 169.792 95.5626 169.694 95.5074 169.59C95.455 169.485 95.4114 169.364 95.3765 169.228C95.3445 169.091 95.3285 168.944 95.3285 168.787C95.3285 168.197 95.5495 167.727 95.9915 167.378C96.4335 167.026 97.0427 166.85 97.8191 166.85C98.6129 166.85 99.241 167.047 99.7033 167.439C100.169 167.829 100.401 168.357 100.401 169.023H99.3457C99.3457 168.624 99.2134 168.315 98.9487 168.094C98.6841 167.873 98.3134 167.762 97.8365 167.762C97.3974 167.762 97.0572 167.849 96.8159 168.024C96.5745 168.195 96.4539 168.426 96.4539 168.717C96.4539 168.819 96.4699 168.912 96.5018 168.996C96.5338 169.078 96.5731 169.148 96.6196 169.206C96.669 169.264 96.7388 169.318 96.829 169.367C96.9191 169.417 97.002 169.457 97.0776 169.489C97.1532 169.518 97.2579 169.549 97.3916 169.581C97.5254 169.61 97.6373 169.633 97.7275 169.651C97.8176 169.665 97.9412 169.684 98.0982 169.707C98.2523 169.731 98.3803 169.752 98.482 169.773C98.5838 169.79 98.7103 169.816 98.8615 169.851C99.0127 169.883 99.1392 169.917 99.241 169.952C99.3428 169.986 99.4576 170.032 99.5856 170.087C99.7164 170.142 99.824 170.202 99.9083 170.266C99.9926 170.33 100.08 170.407 100.17 170.497C100.26 170.587 100.331 170.686 100.384 170.793C100.436 170.898 100.478 171.019 100.51 171.155C100.545 171.292 100.563 171.44 100.563 171.6C100.563 172.211 100.334 172.694 99.8778 173.048C99.4242 173.4 98.7946 173.576 97.9892 173.576ZM104.806 168.844H105.818V173.38H104.806V172.774H104.719C104.379 173.28 103.924 173.533 103.354 173.533C102.81 173.533 102.37 173.351 102.032 172.987C101.698 172.621 101.531 172.153 101.531 171.583V168.844H102.547V171.513C102.547 171.85 102.64 172.124 102.826 172.333C103.012 172.542 103.268 172.647 103.594 172.647C103.931 172.647 104.218 172.532 104.453 172.303C104.689 172.073 104.806 171.786 104.806 171.443V168.844ZM109.67 173.541C108.986 173.541 108.475 173.282 108.134 172.765H108.047V173.38H107.027V166.789H108.047V169.433H108.134C108.297 169.188 108.511 169.001 108.776 168.87C109.043 168.739 109.344 168.674 109.679 168.674C110.327 168.674 110.866 168.903 111.297 169.363C111.727 169.819 111.942 170.402 111.942 171.112C111.942 171.821 111.726 172.404 111.292 172.861C110.859 173.314 110.318 173.541 109.67 173.541ZM109.465 172.656C109.884 172.656 110.231 172.51 110.507 172.22C110.783 171.926 110.922 171.557 110.922 171.112C110.922 170.67 110.783 170.301 110.507 170.004C110.234 169.704 109.886 169.555 109.465 169.555C109.043 169.555 108.693 169.704 108.414 170.004C108.137 170.301 107.999 170.67 107.999 171.112C107.999 171.548 108.137 171.914 108.414 172.211C108.693 172.508 109.043 172.656 109.465 172.656ZM114.873 173.55C114.207 173.55 113.688 173.4 113.316 173.101C112.947 172.801 112.762 172.383 112.762 171.845H113.691C113.697 172.132 113.806 172.364 114.018 172.538C114.234 172.713 114.527 172.8 114.899 172.8C115.202 172.8 115.44 172.74 115.615 172.621C115.792 172.502 115.881 172.34 115.881 172.137C115.881 172.018 115.855 171.92 115.802 171.845C115.753 171.769 115.661 171.709 115.528 171.666C115.394 171.622 115.282 171.593 115.192 171.579C115.104 171.561 114.955 171.541 114.742 171.517C114.737 171.517 114.731 171.517 114.725 171.517C114.722 171.515 114.718 171.513 114.712 171.513C114.572 171.499 114.449 171.484 114.341 171.469C114.234 171.452 114.11 171.427 113.97 171.395C113.834 171.363 113.715 171.327 113.613 171.286C113.514 171.243 113.412 171.186 113.307 171.116C113.203 171.046 113.117 170.968 113.05 170.881C112.986 170.793 112.932 170.687 112.889 170.562C112.848 170.437 112.828 170.299 112.828 170.148C112.828 169.691 113.002 169.331 113.351 169.066C113.703 168.799 114.168 168.665 114.747 168.665C115.337 168.665 115.817 168.806 116.186 169.088C116.555 169.367 116.74 169.741 116.74 170.209H115.785C115.782 169.968 115.685 169.777 115.493 169.638C115.301 169.495 115.049 169.424 114.738 169.424C114.45 169.424 114.218 169.483 114.04 169.603C113.863 169.722 113.774 169.882 113.774 170.082C113.774 170.193 113.797 170.285 113.844 170.357C113.893 170.427 113.983 170.484 114.114 170.527C114.248 170.568 114.354 170.596 114.433 170.61C114.511 170.625 114.657 170.644 114.869 170.667C114.93 170.676 114.975 170.681 115.004 170.684C115.144 170.702 115.267 170.719 115.375 170.737C115.485 170.754 115.607 170.78 115.741 170.815C115.875 170.85 115.991 170.891 116.09 170.937C116.189 170.981 116.289 171.038 116.391 171.107C116.493 171.177 116.576 171.257 116.64 171.347C116.704 171.437 116.755 171.545 116.792 171.67C116.833 171.795 116.853 171.933 116.853 172.084C116.853 172.547 116.679 172.907 116.33 173.166C115.981 173.422 115.496 173.55 114.873 173.55ZM120.077 173.541C119.373 173.541 118.796 173.316 118.345 172.865C117.897 172.412 117.673 171.827 117.673 171.112C117.673 170.394 117.897 169.808 118.345 169.354C118.796 168.9 119.373 168.674 120.077 168.674C120.661 168.674 121.164 168.834 121.586 169.153C122.01 169.473 122.263 169.885 122.345 170.388L121.381 170.514C121.308 170.229 121.151 169.997 120.91 169.816C120.669 169.636 120.394 169.546 120.085 169.546C119.684 169.546 119.35 169.693 119.082 169.986C118.818 170.28 118.685 170.655 118.685 171.112C118.685 171.568 118.818 171.943 119.082 172.237C119.347 172.528 119.681 172.673 120.085 172.673C120.397 172.673 120.671 172.585 120.91 172.407C121.148 172.23 121.308 171.997 121.39 171.709L122.354 171.836C122.261 172.339 122 172.749 121.573 173.066C121.148 173.383 120.65 173.541 120.077 173.541ZM124.369 173.38H123.357V168.844H124.351V169.441H124.438C124.54 169.238 124.699 169.072 124.914 168.944C125.132 168.816 125.363 168.752 125.607 168.752C125.825 168.752 126.004 168.788 126.144 168.861V169.781C125.905 169.686 125.67 169.638 125.437 169.638C125.12 169.638 124.863 169.763 124.665 170.013C124.468 170.263 124.369 170.59 124.369 170.994V173.38ZM127.548 168.085C127.356 168.085 127.199 168.024 127.077 167.902C126.958 167.779 126.898 167.622 126.898 167.431C126.898 167.242 126.958 167.087 127.077 166.968C127.199 166.849 127.356 166.789 127.548 166.789C127.743 166.789 127.902 166.849 128.024 166.968C128.149 167.087 128.211 167.242 128.211 167.431C128.211 167.622 128.149 167.779 128.024 167.902C127.902 168.024 127.743 168.085 127.548 168.085ZM128.059 173.38H127.051V168.844H128.059V173.38ZM131.967 173.541C131.283 173.541 130.772 173.282 130.431 172.765H130.344V173.38H129.324V166.789H130.344V169.433H130.431C130.594 169.188 130.808 169.001 131.073 168.87C131.34 168.739 131.641 168.674 131.975 168.674C132.624 168.674 133.163 168.903 133.594 169.363C134.024 169.819 134.239 170.402 134.239 171.112C134.239 171.821 134.023 172.404 133.589 172.861C133.156 173.314 132.615 173.541 131.967 173.541ZM131.762 172.656C132.18 172.656 132.528 172.51 132.804 172.22C133.08 171.926 133.219 171.557 133.219 171.112C133.219 170.67 133.08 170.301 132.804 170.004C132.531 169.704 132.183 169.555 131.762 169.555C131.34 169.555 130.99 169.704 130.711 170.004C130.434 170.301 130.296 170.67 130.296 171.112C130.296 171.548 130.434 171.914 130.711 172.211C130.99 172.508 131.34 172.656 131.762 172.656ZM137.515 173.541C136.791 173.541 136.198 173.31 135.735 172.848C135.273 172.383 135.042 171.786 135.042 171.059C135.042 170.365 135.27 169.793 135.727 169.345C136.186 168.898 136.77 168.674 137.48 168.674C138.187 168.674 138.765 168.898 139.216 169.345C139.667 169.793 139.892 170.367 139.892 171.068C139.892 171.231 139.889 171.349 139.883 171.421H136.089C136.144 171.817 136.302 172.132 136.564 172.368C136.829 172.601 137.159 172.717 137.554 172.717C137.848 172.717 138.111 172.65 138.344 172.516C138.579 172.383 138.759 172.199 138.884 171.967L139.731 172.289C139.565 172.682 139.284 172.989 138.889 173.21C138.496 173.431 138.038 173.541 137.515 173.541ZM136.089 170.671H138.849C138.791 170.319 138.634 170.036 138.378 169.821C138.125 169.603 137.817 169.494 137.454 169.494C137.099 169.494 136.798 169.601 136.551 169.816C136.307 170.032 136.153 170.317 136.089 170.671Z" fill="black"/>
<path d="M53.1236 65.7649H54.6065V72.125H53.1236V65.7649ZM55.9066 65.7649H58.7025C59.2147 65.7649 59.6613 65.8512 60.0425 66.0239C60.4295 66.1966 60.7273 66.4438 60.9357 66.7654C61.1442 67.081 61.2484 67.4532 61.2484 67.8819C61.2484 68.3167 61.1442 68.6978 60.9357 69.0253C60.7273 69.3469 60.4295 69.597 60.0425 69.7757C59.6554 69.9543 59.2058 70.0437 58.6936 70.0437H57.3716V72.125H55.9066V65.7649ZM58.5775 68.9181C58.9407 68.9181 59.2296 68.8258 59.444 68.6412C59.6583 68.4566 59.7655 68.2095 59.7655 67.8998C59.7655 67.5901 59.6583 67.346 59.444 67.1673C59.2296 66.9827 58.9407 66.8904 58.5775 66.8904H57.3716V68.9181H58.5775ZM65.3505 72.2947C64.6597 72.2947 64.0463 72.1578 63.5103 71.8838C62.9803 71.6039 62.5664 71.2109 62.2687 70.7047C61.9769 70.1985 61.831 69.6119 61.831 68.9449C61.831 68.2839 61.9798 67.7003 62.2776 67.1941C62.5754 66.6879 62.9892 66.2949 63.5192 66.015C64.0552 65.7351 64.6656 65.5952 65.3505 65.5952C66.0353 65.5952 66.6427 65.7351 67.1727 66.015C67.7087 66.2949 68.1256 66.6879 68.4233 67.1941C68.7211 67.7003 68.87 68.2839 68.87 68.9449C68.87 69.6119 68.7211 70.1985 68.4233 70.7047C68.1315 71.2109 67.7176 71.6039 67.1817 71.8838C66.6517 72.1578 66.0413 72.2947 65.3505 72.2947ZM65.3505 71.062C65.7435 71.062 66.0949 70.9727 66.4045 70.794C66.7142 70.6154 66.9554 70.3652 67.1281 70.0437C67.3008 69.7221 67.3871 69.3559 67.3871 68.9449C67.3871 68.534 67.3008 68.1708 67.1281 67.8551C66.9554 67.5336 66.7142 67.2835 66.4045 67.1048C66.0949 66.9261 65.7435 66.8368 65.3505 66.8368C64.9574 66.8368 64.6061 66.9261 64.2964 67.1048C63.9867 67.2835 63.7455 67.5336 63.5728 67.8551C63.4001 68.1708 63.3138 68.534 63.3138 68.9449C63.3138 69.3559 63.4001 69.7221 63.5728 70.0437C63.7455 70.3652 63.9867 70.6154 64.2964 70.794C64.6061 70.9727 64.9574 71.062 65.3505 71.062ZM75.1441 72.2947C74.495 72.2947 73.9114 72.1548 73.3933 71.8749C72.8811 71.589 72.4792 71.193 72.1874 70.6868C71.8955 70.1747 71.7496 69.5941 71.7496 68.9449C71.7496 68.2958 71.8955 67.7182 72.1874 67.212C72.4792 66.6998 72.8811 66.3038 73.3933 66.0239C73.9114 65.7381 74.495 65.5952 75.1441 65.5952C75.6681 65.5952 76.1535 65.6994 76.6001 65.9078C77.0527 66.1103 77.4279 66.3961 77.7257 66.7654C78.0234 67.1346 78.211 67.5544 78.2884 68.0249L76.9038 68.1857C76.8145 67.7926 76.6061 67.471 76.2785 67.2209C75.957 66.9649 75.5877 66.8368 75.1709 66.8368C74.7957 66.8368 74.4592 66.9261 74.1615 67.1048C73.8697 67.2835 73.6404 67.5336 73.4737 67.8551C73.3129 68.1708 73.2325 68.534 73.2325 68.9449C73.2325 69.3559 73.3129 69.7221 73.4737 70.0437C73.6404 70.3652 73.8697 70.6154 74.1615 70.794C74.4592 70.9727 74.7957 71.062 75.1709 71.062C75.5758 71.062 75.9391 70.9399 76.2607 70.6958C76.5882 70.4456 76.8026 70.127 76.9038 69.74L78.2973 69.9275C78.2259 70.3861 78.0413 70.797 77.7435 71.1603C77.4517 71.5176 77.0795 71.7975 76.6269 71.9999C76.1743 72.1965 75.6801 72.2947 75.1441 72.2947ZM81.4736 72.2679C80.9674 72.2679 80.5237 72.1697 80.1426 71.9731C79.7615 71.7707 79.4637 71.4878 79.2493 71.1245C79.0409 70.7553 78.9367 70.3265 78.9367 69.8382C78.9367 69.3499 79.0409 68.9241 79.2493 68.5608C79.4637 68.1916 79.7615 67.9087 80.1426 67.7122C80.5237 67.5098 80.9674 67.4085 81.4736 67.4085C81.9738 67.4085 82.4145 67.5098 82.7956 67.7122C83.1827 67.9087 83.4805 68.1916 83.6889 68.5608C83.9033 68.9241 84.0105 69.3499 84.0105 69.8382C84.0105 70.3265 83.9033 70.7553 83.6889 71.1245C83.4805 71.4878 83.1827 71.7707 82.7956 71.9731C82.4145 72.1697 81.9738 72.2679 81.4736 72.2679ZM81.4736 71.1424C81.8249 71.1424 82.1137 71.0203 82.34 70.7762C82.5663 70.532 82.6795 70.2193 82.6795 69.8382C82.6795 69.4571 82.5663 69.1474 82.34 68.9092C82.1137 68.6651 81.8249 68.543 81.4736 68.543C81.1163 68.543 80.8245 68.6651 80.5982 68.9092C80.3719 69.1474 80.2587 69.4571 80.2587 69.8382C80.2587 70.2193 80.3719 70.532 80.5982 70.7762C80.8245 71.0203 81.1163 71.1424 81.4736 71.1424ZM84.8036 67.5514H86.1167V68.2303H86.206C86.337 67.9802 86.5187 67.7807 86.7509 67.6318C86.9832 67.483 87.2422 67.4085 87.5281 67.4085C87.8258 67.4085 88.1028 67.4889 88.3588 67.6497C88.6208 67.8045 88.8114 68.013 88.9305 68.275H89.0198C89.1628 68.007 89.3563 67.7986 89.6005 67.6497C89.8506 67.4949 90.1364 67.4174 90.458 67.4174C90.7915 67.4174 91.0893 67.4978 91.3513 67.6586C91.6133 67.8135 91.8188 68.0338 91.9677 68.3197C92.1165 68.6055 92.191 68.9301 92.191 69.2933V72.125H90.8689V69.5166C90.8689 69.2367 90.7885 69.0075 90.6277 68.8288C90.4669 68.6442 90.2615 68.5489 90.0114 68.543C89.7553 68.543 89.5439 68.6353 89.3772 68.8199C89.2164 68.9985 89.136 69.2308 89.136 69.5166V72.125H87.805V69.5166C87.805 69.2189 87.7306 68.9837 87.5817 68.811C87.4328 68.6323 87.2333 68.543 86.9832 68.543C86.7212 68.543 86.5127 68.6323 86.3579 68.811C86.2031 68.9896 86.1256 69.2248 86.1256 69.5166V72.125H84.8036V67.5514ZM95.9842 67.4085C96.401 67.4085 96.7732 67.5098 97.1008 67.7122C97.4283 67.9147 97.6844 68.2005 97.869 68.5698C98.0536 68.939 98.1459 69.3618 98.1459 69.8382C98.1459 70.3146 98.0536 70.7374 97.869 71.1067C97.6844 71.4699 97.4253 71.7558 97.0918 71.9642C96.7643 72.1667 96.3951 72.2679 95.9842 72.2679C95.6745 72.2679 95.3946 72.2084 95.1445 72.0893C94.9003 71.9642 94.6979 71.7856 94.5371 71.5533H94.4477V74.1795H93.1257V67.5514H94.4477V68.1321H94.5371C94.8706 67.6497 95.3529 67.4085 95.9842 67.4085ZM95.609 68.543C95.2576 68.543 94.9658 68.668 94.7336 68.9181C94.5073 69.1623 94.3941 69.469 94.3941 69.8382C94.3941 70.2074 94.5073 70.5171 94.7336 70.7672C94.9658 71.0173 95.2576 71.1424 95.609 71.1424C95.9604 71.1424 96.2492 71.0173 96.4755 70.7672C96.7018 70.5171 96.8149 70.2074 96.8149 69.8382C96.8149 69.469 96.6988 69.1623 96.4665 68.9181C96.2402 68.668 95.9544 68.543 95.609 68.543ZM100.248 72.2411C99.7718 72.2411 99.3876 72.125 99.0958 71.8927C98.81 71.6545 98.6671 71.333 98.6671 70.928C98.6671 70.0645 99.3876 69.5434 100.829 69.3648L101.802 69.2487V69.0611C101.802 68.8407 101.728 68.6651 101.579 68.534C101.436 68.3971 101.234 68.3286 100.972 68.3286C100.728 68.3286 100.531 68.3941 100.382 68.5251C100.233 68.6502 100.162 68.8258 100.168 69.0521H98.8725C98.8725 68.5519 99.0631 68.1529 99.4442 67.8551C99.8313 67.5574 100.346 67.4085 100.99 67.4085C101.639 67.4085 102.157 67.5633 102.544 67.873C102.931 68.1767 103.125 68.5876 103.125 69.1057V72.125H101.802V71.5444H101.713C101.57 71.7707 101.371 71.9434 101.115 72.0625C100.865 72.1816 100.576 72.2411 100.248 72.2411ZM100.686 71.3746C101.013 71.3746 101.281 71.2794 101.49 71.0888C101.698 70.8982 101.802 70.66 101.802 70.3742V70.0526L100.865 70.1687C100.555 70.2045 100.326 70.2819 100.177 70.401C100.034 70.5141 99.9623 70.6541 99.9623 70.8208C99.9623 70.9935 100.025 71.1305 100.15 71.2317C100.281 71.327 100.46 71.3746 100.686 71.3746ZM104.074 67.5514H105.396V68.1946H105.485C105.825 67.6765 106.268 67.4174 106.816 67.4174C107.156 67.4174 107.456 67.5008 107.718 67.6676C107.98 67.8284 108.183 68.0546 108.326 68.3465C108.469 68.6323 108.54 68.9569 108.54 69.3201V72.125H107.218V69.5077C107.218 69.2219 107.141 68.9926 106.986 68.8199C106.831 68.6412 106.623 68.5519 106.361 68.5519C106.093 68.5519 105.863 68.6472 105.673 68.8378C105.488 69.0283 105.396 69.2665 105.396 69.5524V72.125H104.074V67.5514ZM110.334 74.1885C110.185 74.1885 110.022 74.1736 109.843 74.1438C109.664 74.114 109.512 74.0753 109.387 74.0277L109.396 72.9647C109.492 73.0064 109.602 73.0391 109.727 73.0629C109.858 73.0868 109.974 73.0987 110.075 73.0987C110.331 73.0987 110.528 73.0183 110.665 72.8575C110.802 72.6967 110.93 72.4674 111.049 72.1697L108.896 67.5514H110.316L111.54 70.4724H111.629L112.621 67.5514H113.997L112.228 72.2858C111.99 72.923 111.728 73.3994 111.442 73.715C111.162 74.0307 110.793 74.1885 110.334 74.1885ZM116.892 65.7649H118.607L121.018 70.2045H121.108V65.7649H122.519V72.125H120.804L118.392 67.6944H118.303V72.125H116.892V65.7649ZM124.961 72.2411C124.485 72.2411 124.101 72.125 123.809 71.8927C123.523 71.6545 123.38 71.333 123.38 70.928C123.38 70.0645 124.101 69.5434 125.542 69.3648L126.516 69.2487V69.0611C126.516 68.8407 126.441 68.6651 126.292 68.534C126.15 68.3971 125.947 68.3286 125.685 68.3286C125.441 68.3286 125.244 68.3941 125.095 68.5251C124.947 68.6502 124.875 68.8258 124.881 69.0521H123.586C123.586 68.5519 123.776 68.1529 124.158 67.8551C124.545 67.5574 125.06 67.4085 125.703 67.4085C126.352 67.4085 126.87 67.5633 127.257 67.873C127.644 68.1767 127.838 68.5876 127.838 69.1057V72.125H126.516V71.5444H126.426C126.284 71.7707 126.084 71.9434 125.828 72.0625C125.578 72.1816 125.289 72.2411 124.961 72.2411ZM125.399 71.3746C125.727 71.3746 125.995 71.2794 126.203 71.0888C126.412 70.8982 126.516 70.66 126.516 70.3742V70.0526L125.578 70.1687C125.268 70.2045 125.039 70.2819 124.89 70.401C124.747 70.5141 124.676 70.6541 124.676 70.8208C124.676 70.9935 124.738 71.1305 124.863 71.2317C124.994 71.327 125.173 71.3746 125.399 71.3746ZM128.778 67.5514H130.091V68.2303H130.181C130.312 67.9802 130.493 67.7807 130.725 67.6318C130.958 67.483 131.217 67.4085 131.503 67.4085C131.8 67.4085 132.077 67.4889 132.333 67.6497C132.595 67.8045 132.786 68.013 132.905 68.275H132.994C133.137 68.007 133.331 67.7986 133.575 67.6497C133.825 67.4949 134.111 67.4174 134.433 67.4174C134.766 67.4174 135.064 67.4978 135.326 67.6586C135.588 67.8135 135.793 68.0338 135.942 68.3197C136.091 68.6055 136.166 68.9301 136.166 69.2933V72.125H134.843V69.5166C134.843 69.2367 134.763 69.0075 134.602 68.8288C134.442 68.6442 134.236 68.5489 133.986 68.543C133.73 68.543 133.518 68.6353 133.352 68.8199C133.191 68.9985 133.111 69.2308 133.111 69.5166V72.125H131.78V69.5166C131.78 69.2189 131.705 68.9837 131.556 68.811C131.407 68.6323 131.208 68.543 130.958 68.543C130.696 68.543 130.487 68.6323 130.332 68.811C130.178 68.9896 130.1 69.2248 130.1 69.5166V72.125H128.778V67.5514ZM139.432 72.2679C138.943 72.2679 138.506 72.1667 138.119 71.9642C137.737 71.7558 137.44 71.464 137.225 71.0888C137.011 70.7136 136.904 70.2849 136.904 69.8025C136.904 69.332 137.011 68.9152 137.225 68.5519C137.44 68.1886 137.737 67.9087 138.119 67.7122C138.5 67.5098 138.934 67.4085 139.423 67.4085C139.905 67.4085 140.331 67.5098 140.7 67.7122C141.075 67.9147 141.364 68.1976 141.567 68.5608C141.775 68.9241 141.879 69.3439 141.879 69.8204C141.879 70.0228 141.873 70.1568 141.861 70.2223H138.27C138.324 70.5499 138.458 70.8089 138.672 70.9995C138.893 71.19 139.164 71.2853 139.485 71.2853C139.735 71.2853 139.956 71.2287 140.146 71.1156C140.337 71.0025 140.483 70.8506 140.584 70.66L141.71 70.9459C141.567 71.3568 141.29 71.6813 140.879 71.9195C140.468 72.1518 139.986 72.2679 139.432 72.2679ZM140.53 69.4005C140.489 69.1028 140.364 68.8616 140.155 68.677C139.947 68.4864 139.691 68.3911 139.387 68.3911C139.089 68.3911 138.839 68.4834 138.637 68.668C138.44 68.8467 138.315 69.0908 138.262 69.4005H140.53Z" fill="black"/>
<rect x="53.0388" y="119.519" width="59.1794" height="18.9821" rx="3.90807" stroke="#C6D7FF" stroke-width="1.11659"/>
<rect x="118.918" y="119.519" width="59.1794" height="18.9821" rx="3.90807" stroke="#C6D7FF" stroke-width="1.11659"/>
<rect x="151.558" y="0.558296" width="91.5606" height="39.0807" rx="6.14126" fill="#F7FAFF" stroke="#E2EBFF" stroke-width="1.11659"/>
<path d="M168.117 15.8472C168.117 16.4502 167.906 16.9493 167.484 17.3446C167.062 17.7399 166.479 17.9844 165.735 18.0782V19.1535H164.198V18.0581C163.468 17.9375 162.891 17.6595 162.469 17.224C162.054 16.7818 161.846 16.2358 161.846 15.586H163.434C163.434 15.9812 163.578 16.2928 163.866 16.5205C164.154 16.7483 164.556 16.8622 165.072 16.8622C165.501 16.8622 165.836 16.7818 166.077 16.621C166.325 16.4602 166.449 16.2358 166.449 15.9477C166.449 15.7333 166.378 15.5659 166.238 15.4453C166.104 15.318 165.93 15.2242 165.715 15.1639C165.501 15.1036 165.216 15.0466 164.861 14.993C164.258 14.906 163.762 14.8088 163.374 14.7016C162.985 14.5877 162.643 14.3867 162.349 14.0987C162.054 13.8039 161.907 13.3919 161.907 12.8626C161.907 12.2663 162.108 11.7706 162.51 11.3753C162.918 10.98 163.481 10.7321 164.198 10.6316V9.69705H165.735V10.6718C166.412 10.8058 166.941 11.0839 167.323 11.5059C167.712 11.928 167.906 12.4506 167.906 13.0736H166.368C166.375 12.6917 166.248 12.3936 165.987 12.1792C165.725 11.9648 165.367 11.8577 164.911 11.8577C164.496 11.8577 164.168 11.938 163.926 12.0988C163.692 12.2596 163.575 12.474 163.575 12.742C163.575 12.9564 163.648 13.1272 163.796 13.2545C163.943 13.3751 164.131 13.4655 164.359 13.5258C164.586 13.5794 164.895 13.633 165.283 13.6866C165.853 13.7737 166.328 13.8776 166.71 13.9982C167.099 14.1188 167.43 14.3264 167.705 14.6212C167.98 14.916 168.117 15.3247 168.117 15.8472ZM171.396 17.013L174.37 14.37C174.605 14.1556 174.779 13.9915 174.893 13.8776C175.013 13.757 175.11 13.6263 175.184 13.4856C175.265 13.3383 175.305 13.1808 175.305 13.0133C175.305 12.7051 175.198 12.4506 174.983 12.2496C174.769 12.0419 174.504 11.938 174.189 11.938C173.827 11.938 173.526 12.072 173.285 12.34C173.044 12.6013 172.916 12.9497 172.903 13.3852H171.416C171.402 12.8559 171.513 12.3802 171.747 11.9581C171.982 11.5294 172.313 11.1944 172.742 10.9532C173.178 10.712 173.667 10.5914 174.209 10.5914C174.712 10.5914 175.164 10.6919 175.566 10.8929C175.968 11.0872 176.283 11.3585 176.511 11.7069C176.738 12.0486 176.852 12.4372 176.852 12.8726C176.852 13.2746 176.735 13.6498 176.501 13.9982C176.266 14.3465 175.911 14.7251 175.435 15.1337L173.777 16.5708V16.6713H176.692V17.9375H171.396V17.013ZM180.433 18.1184C179.85 18.1184 179.334 18.0313 178.886 17.8571C178.443 17.6762 178.102 17.4283 177.861 17.1135C177.619 16.7919 177.499 16.4201 177.499 15.998C177.499 15.5491 177.626 15.1672 177.881 14.8524C178.142 14.5375 178.48 14.3331 178.896 14.2393V14.1389C178.574 14.0049 178.309 13.8039 178.102 13.5359C177.901 13.2612 177.8 12.9396 177.8 12.5712C177.8 12.1759 177.907 11.8275 178.122 11.526C178.343 11.2245 178.651 10.9934 179.046 10.8326C179.448 10.6718 179.911 10.5914 180.433 10.5914C180.942 10.5914 181.395 10.6752 181.79 10.8427C182.192 11.0102 182.503 11.2446 182.724 11.5461C182.946 11.8476 183.056 12.1893 183.056 12.5712C183.056 12.9396 182.952 13.2612 182.745 13.5359C182.544 13.8039 182.279 14.0049 181.951 14.1389V14.2393C182.366 14.3331 182.704 14.5375 182.966 14.8524C183.227 15.1672 183.358 15.5491 183.358 15.998C183.358 16.4134 183.234 16.7818 182.986 17.1034C182.745 17.425 182.403 17.6762 181.961 17.8571C181.519 18.0313 181.009 18.1184 180.433 18.1184ZM180.433 13.6866C180.741 13.6866 180.996 13.6029 181.197 13.4354C181.405 13.2612 181.508 13.0435 181.508 12.7822C181.508 12.5209 181.405 12.3099 181.197 12.1491C180.996 11.9816 180.741 11.8979 180.433 11.8979C180.118 11.8979 179.857 11.9816 179.649 12.1491C179.448 12.3099 179.348 12.5209 179.348 12.7822C179.348 13.0502 179.448 13.2679 179.649 13.4354C179.857 13.6029 180.118 13.6866 180.433 13.6866ZM180.433 16.812C180.782 16.812 181.066 16.7182 181.287 16.5306C181.515 16.343 181.629 16.0985 181.629 15.797C181.629 15.4955 181.515 15.251 181.287 15.0634C181.06 14.8691 180.775 14.772 180.433 14.772C180.078 14.772 179.787 14.8691 179.559 15.0634C179.338 15.251 179.227 15.4955 179.227 15.797C179.227 16.0985 179.338 16.343 179.559 16.5306C179.787 16.7182 180.078 16.812 180.433 16.812ZM184.956 18.0581C184.702 18.0581 184.491 17.981 184.323 17.827C184.163 17.6662 184.082 17.4618 184.082 17.2139C184.082 16.9661 184.163 16.7651 184.323 16.611C184.491 16.4502 184.702 16.3698 184.956 16.3698C185.211 16.3698 185.419 16.4502 185.58 16.611C185.74 16.7651 185.821 16.9661 185.821 17.2139C185.821 17.4618 185.74 17.6662 185.58 17.827C185.419 17.981 185.211 18.0581 184.956 18.0581ZM189.588 18.1284C188.952 18.1284 188.386 17.971 187.89 17.6561C187.401 17.3345 187.019 16.889 186.744 16.3196C186.469 15.7434 186.332 15.0902 186.332 14.3599C186.332 13.6297 186.469 12.9798 186.744 12.4104C187.019 11.8342 187.401 11.3887 187.89 11.0738C188.386 10.7522 188.952 10.5914 189.588 10.5914C190.218 10.5914 190.781 10.7522 191.276 11.0738C191.772 11.3887 192.157 11.8342 192.432 12.4104C192.707 12.9798 192.844 13.6297 192.844 14.3599C192.844 15.0902 192.707 15.7434 192.432 16.3196C192.157 16.889 191.772 17.3345 191.276 17.6561C190.781 17.971 190.218 18.1284 189.588 18.1284ZM189.588 16.6914C189.903 16.6914 190.181 16.5942 190.422 16.4C190.663 16.2057 190.848 15.931 190.975 15.5759C191.109 15.2208 191.176 14.8155 191.176 14.3599C191.176 13.9044 191.109 13.499 190.975 13.144C190.848 12.7889 190.663 12.5142 190.422 12.3199C190.181 12.1256 189.903 12.0285 189.588 12.0285C189.273 12.0285 188.995 12.1256 188.754 12.3199C188.513 12.5142 188.325 12.7889 188.191 13.144C188.064 13.499 188 13.9044 188 14.3599C188 14.8155 188.064 15.2208 188.191 15.5759C188.325 15.931 188.513 16.2057 188.754 16.4C188.995 16.5942 189.273 16.6914 189.588 16.6914ZM196.978 18.1284C196.341 18.1284 195.775 17.971 195.28 17.6561C194.791 17.3345 194.409 16.889 194.134 16.3196C193.859 15.7434 193.722 15.0902 193.722 14.3599C193.722 13.6297 193.859 12.9798 194.134 12.4104C194.409 11.8342 194.791 11.3887 195.28 11.0738C195.775 10.7522 196.341 10.5914 196.978 10.5914C197.608 10.5914 198.17 10.7522 198.666 11.0738C199.162 11.3887 199.547 11.8342 199.822 12.4104C200.097 12.9798 200.234 13.6297 200.234 14.3599C200.234 15.0902 200.097 15.7434 199.822 16.3196C199.547 16.889 199.162 17.3345 198.666 17.6561C198.17 17.971 197.608 18.1284 196.978 18.1284ZM196.978 16.6914C197.293 16.6914 197.571 16.5942 197.812 16.4C198.053 16.2057 198.237 15.931 198.365 15.5759C198.499 15.2208 198.566 14.8155 198.566 14.3599C198.566 13.9044 198.499 13.499 198.365 13.144C198.237 12.7889 198.053 12.5142 197.812 12.3199C197.571 12.1256 197.293 12.0285 196.978 12.0285C196.663 12.0285 196.385 12.1256 196.144 12.3199C195.903 12.5142 195.715 12.7889 195.581 13.144C195.454 13.499 195.39 13.9044 195.39 14.3599C195.39 14.8155 195.454 15.2208 195.581 15.5759C195.715 15.931 195.903 16.2057 196.144 16.4C196.385 16.5942 196.663 16.6914 196.978 16.6914Z" fill="#1E2F4E"/>
<path d="M165.985 27.4544C165.985 27.8687 165.843 28.2057 165.557 28.4652C165.273 28.7225 164.878 28.8752 164.369 28.9232V29.5938H163.594V28.9036C163.097 28.8338 162.707 28.6517 162.423 28.3573C162.139 28.0628 161.998 27.6888 161.998 27.2352H162.816C162.816 27.5558 162.926 27.8055 163.146 27.9843C163.366 28.1632 163.676 28.2526 164.075 28.2526C164.413 28.2526 164.675 28.1882 164.86 28.0596C165.048 27.9287 165.141 27.7477 165.141 27.5165C165.141 27.438 165.129 27.3672 165.105 27.3039C165.081 27.2385 165.052 27.1829 165.017 27.1371C164.982 27.0913 164.931 27.0498 164.863 27.0128C164.798 26.9735 164.737 26.9419 164.68 26.9179C164.623 26.8939 164.546 26.871 164.448 26.8492C164.35 26.8252 164.267 26.8078 164.199 26.7969C164.134 26.7838 164.043 26.7685 163.928 26.7511C163.814 26.7336 163.718 26.7184 163.64 26.7053C163.561 26.6922 163.465 26.6736 163.352 26.6497C163.241 26.6235 163.145 26.5973 163.064 26.5711C162.986 26.545 162.898 26.5112 162.802 26.4697C162.707 26.4283 162.625 26.3836 162.557 26.3356C162.492 26.2876 162.425 26.2309 162.358 26.1655C162.29 26.0979 162.235 26.0248 162.194 25.9463C162.155 25.8678 162.122 25.7773 162.096 25.6748C162.072 25.5723 162.06 25.4622 162.06 25.3444C162.06 24.9453 162.194 24.6182 162.462 24.363C162.733 24.1079 163.11 23.9552 163.594 23.9051V23.2966H164.369V23.9247C164.836 23.9923 165.201 24.1668 165.465 24.4481C165.731 24.7294 165.864 25.0871 165.864 25.5211H165.073C165.073 25.2223 164.973 24.99 164.775 24.8243C164.577 24.6585 164.299 24.5757 163.941 24.5757C163.612 24.5757 163.356 24.6411 163.175 24.7719C162.994 24.9006 162.904 25.074 162.904 25.2921C162.904 25.3684 162.916 25.4382 162.94 25.5014C162.964 25.5625 162.993 25.6148 163.028 25.6585C163.065 25.7021 163.118 25.7424 163.185 25.7795C163.253 25.8166 163.315 25.8471 163.372 25.8711C163.428 25.8929 163.507 25.9158 163.607 25.9398C163.708 25.9616 163.791 25.979 163.859 25.9921C163.927 26.003 164.019 26.0172 164.137 26.0347C164.253 26.0521 164.349 26.0685 164.425 26.0837C164.501 26.0968 164.596 26.1164 164.71 26.1426C164.823 26.1666 164.918 26.1917 164.994 26.2178C165.071 26.244 165.157 26.2778 165.253 26.3193C165.351 26.3607 165.431 26.4054 165.495 26.4534C165.558 26.5014 165.623 26.5591 165.691 26.6268C165.759 26.6944 165.812 26.7685 165.851 26.8492C165.891 26.9277 165.922 27.0182 165.946 27.1207C165.972 27.2232 165.985 27.3344 165.985 27.4544ZM170.402 25.2594C170.888 25.2594 171.294 25.4317 171.619 25.7762C171.943 26.1186 172.106 26.5559 172.106 27.088C172.106 27.6179 171.945 28.0541 171.622 28.3965C171.299 28.7389 170.894 28.9101 170.408 28.9101C170.155 28.9101 169.928 28.861 169.728 28.7629C169.529 28.6648 169.37 28.5241 169.25 28.3409H169.185V30.3298H168.419V25.3869H169.185V25.8482H169.25C169.503 25.4556 169.887 25.2594 170.402 25.2594ZM170.248 25.9202C169.932 25.9202 169.669 26.0325 169.459 26.2571C169.252 26.4795 169.149 26.7565 169.149 27.088C169.149 27.4151 169.252 27.6899 169.459 27.9124C169.669 28.1348 169.932 28.246 170.248 28.246C170.564 28.246 170.825 28.1359 171.03 27.9156C171.237 27.6932 171.34 27.4173 171.34 27.088C171.34 26.7543 171.237 26.4763 171.03 26.2538C170.823 26.0314 170.562 25.9202 170.248 25.9202ZM174.563 28.9101C174.02 28.9101 173.575 28.7367 173.228 28.39C172.881 28.041 172.708 27.594 172.708 27.0487C172.708 26.5275 172.879 26.099 173.221 25.7631C173.566 25.4273 174.004 25.2594 174.536 25.2594C175.066 25.2594 175.5 25.4273 175.838 25.7631C176.176 26.099 176.346 26.5297 176.346 27.0553C176.346 27.1774 176.343 27.2657 176.339 27.3203H173.493C173.534 27.6169 173.653 27.8535 173.85 28.0301C174.048 28.2046 174.296 28.2918 174.592 28.2918C174.812 28.2918 175.01 28.2417 175.184 28.1414C175.361 28.041 175.496 27.9036 175.59 27.7292L176.224 27.9712C176.1 28.2657 175.89 28.4957 175.593 28.6615C175.299 28.8272 174.955 28.9101 174.563 28.9101ZM173.493 26.7576H175.564C175.52 26.4937 175.402 26.2811 175.21 26.1197C175.021 25.9561 174.789 25.8744 174.517 25.8744C174.251 25.8744 174.025 25.9551 173.84 26.1164C173.657 26.2778 173.541 26.4915 173.493 26.7576ZM177.854 28.7891H177.095V25.3869H177.84V25.8351H177.906C177.982 25.6824 178.101 25.5581 178.262 25.4622C178.426 25.3662 178.599 25.3182 178.783 25.3182C178.946 25.3182 179.08 25.3455 179.185 25.4V26.0903C179.006 26.0183 178.829 25.9823 178.655 25.9823C178.417 25.9823 178.224 26.0761 178.076 26.2636C177.928 26.4512 177.854 26.6965 177.854 26.9997V28.7891ZM182.927 28.9166C182.428 28.9166 182.039 28.8043 181.759 28.5797C181.482 28.3551 181.344 28.041 181.344 27.6376H182.041C182.045 27.8535 182.127 28.0269 182.286 28.1577C182.448 28.2886 182.668 28.354 182.947 28.354C183.174 28.354 183.353 28.3093 183.483 28.2199C183.616 28.1304 183.683 28.0094 183.683 27.8568C183.683 27.7673 183.663 27.6943 183.624 27.6376C183.587 27.5809 183.518 27.5362 183.418 27.5035C183.318 27.4707 183.234 27.4489 183.166 27.438C183.101 27.4249 182.988 27.4097 182.829 27.3922C182.825 27.3922 182.82 27.3922 182.816 27.3922C182.814 27.3901 182.811 27.389 182.806 27.389C182.702 27.3781 182.609 27.3672 182.528 27.3562C182.448 27.3432 182.355 27.3246 182.25 27.3006C182.148 27.2766 182.058 27.2494 181.982 27.2189C181.908 27.1861 181.831 27.1436 181.753 27.0913C181.674 27.0389 181.61 26.9801 181.56 26.9146C181.512 26.8492 181.472 26.7696 181.439 26.6758C181.408 26.582 181.393 26.4785 181.393 26.3651C181.393 26.0227 181.524 25.7522 181.786 25.5538C182.05 25.3531 182.398 25.2528 182.832 25.2528C183.275 25.2528 183.635 25.3586 183.912 25.5701C184.189 25.7795 184.327 26.0597 184.327 26.4109H183.611C183.609 26.2298 183.536 26.087 183.392 25.9823C183.248 25.8755 183.059 25.822 182.826 25.822C182.61 25.822 182.436 25.8667 182.302 25.9561C182.169 26.0456 182.103 26.1655 182.103 26.316C182.103 26.3989 182.12 26.4676 182.155 26.5221C182.192 26.5744 182.26 26.6169 182.358 26.6497C182.458 26.6802 182.538 26.7009 182.597 26.7118C182.656 26.7227 182.765 26.7369 182.924 26.7543C182.97 26.7609 183.004 26.7652 183.025 26.7674C183.13 26.7805 183.223 26.7936 183.303 26.8067C183.386 26.8198 183.478 26.8394 183.578 26.8656C183.679 26.8917 183.766 26.9223 183.84 26.9572C183.914 26.9899 183.989 27.0324 184.066 27.0847C184.142 27.1371 184.204 27.197 184.252 27.2647C184.3 27.3323 184.338 27.4129 184.367 27.5067C184.397 27.6005 184.412 27.7041 184.412 27.8175C184.412 28.1643 184.282 28.4347 184.02 28.6288C183.758 28.8207 183.394 28.9166 182.927 28.9166ZM185.953 28.7891H185.188V23.8462H185.953V25.8155H186.019C186.278 25.4447 186.618 25.2594 187.039 25.2594C187.449 25.2594 187.779 25.3957 188.027 25.6683C188.278 25.9409 188.403 26.2909 188.403 26.7184V28.7891H187.648V26.774C187.648 26.521 187.577 26.316 187.435 26.159C187.293 25.9998 187.1 25.9202 186.856 25.9202C186.605 25.9202 186.392 26.0074 186.215 26.1819C186.04 26.3541 185.953 26.5711 185.953 26.8328V28.7891ZM190.222 28.8839C189.856 28.8839 189.561 28.7956 189.339 28.619C189.119 28.4401 189.009 28.2024 189.009 27.9058C189.009 27.5918 189.142 27.3333 189.408 27.1305C189.674 26.9277 190.062 26.7969 190.572 26.738L191.416 26.6464V26.5123C191.416 26.3138 191.348 26.1557 191.21 26.0379C191.075 25.9202 190.888 25.8613 190.651 25.8613C190.426 25.8613 190.247 25.9147 190.114 26.0216C189.983 26.1284 189.919 26.2756 189.921 26.4632H189.172C189.172 26.0946 189.306 25.8024 189.575 25.5865C189.845 25.3684 190.206 25.2594 190.657 25.2594C191.122 25.2594 191.49 25.3739 191.763 25.6028C192.036 25.8318 192.172 26.1415 192.172 26.5319V28.7891H191.416V28.3278H191.354C191.119 28.6986 190.741 28.8839 190.222 28.8839ZM190.412 28.3278C190.709 28.3278 190.95 28.246 191.135 28.0825C191.322 27.9167 191.416 27.7074 191.416 27.4544V27.1894L190.585 27.281C190.302 27.3115 190.092 27.3791 189.957 27.4838C189.822 27.5885 189.754 27.715 189.754 27.8633C189.754 28.0072 189.812 28.1206 189.928 28.2035C190.046 28.2864 190.207 28.3278 190.412 28.3278ZM193.778 28.7891H193.019V25.3869H193.765V25.8351H193.83C193.907 25.6824 194.026 25.5581 194.187 25.4622C194.351 25.3662 194.524 25.3182 194.707 25.3182C194.871 25.3182 195.005 25.3455 195.11 25.4V26.0903C194.931 26.0183 194.754 25.9823 194.58 25.9823C194.342 25.9823 194.149 26.0761 194.001 26.2636C193.852 26.4512 193.778 26.6965 193.778 26.9997V28.7891ZM197.318 28.9101C196.775 28.9101 196.33 28.7367 195.983 28.39C195.636 28.041 195.463 27.594 195.463 27.0487C195.463 26.5275 195.634 26.099 195.976 25.7631C196.321 25.4273 196.759 25.2594 197.291 25.2594C197.821 25.2594 198.255 25.4273 198.593 25.7631C198.931 26.099 199.1 26.5297 199.1 27.0553C199.1 27.1774 199.098 27.2657 199.094 27.3203H196.248C196.289 27.6169 196.408 27.8535 196.604 28.0301C196.803 28.2046 197.05 28.2918 197.347 28.2918C197.567 28.2918 197.765 28.2417 197.939 28.1414C198.116 28.041 198.251 27.9036 198.345 27.7292L198.979 27.9712C198.855 28.2657 198.645 28.4957 198.348 28.6615C198.054 28.8272 197.71 28.9101 197.318 28.9101ZM196.248 26.7576H198.319C198.275 26.4937 198.157 26.2811 197.965 26.1197C197.776 25.9561 197.544 25.8744 197.272 25.8744C197.006 25.8744 196.78 25.9551 196.595 26.1164C196.411 26.2778 196.296 26.4915 196.248 26.7576Z" fill="#6C80A4"/>
<rect x="0.558296" y="100.535" width="97.1435" height="39.0807" rx="6.14126" fill="#F7FAFF" stroke="#E2EBFF" stroke-width="1.11659"/>
<path fill-rule="evenodd" clip-rule="evenodd" d="M10.4033 114.56C10.4033 113.481 11.2782 112.606 12.3574 112.606H21.1505C22.2297 112.606 23.1046 113.481 23.1046 114.56V120.911C23.1046 121.99 22.2297 122.865 21.1505 122.865H19.1965V123.032C19.1965 123.421 19.3509 123.794 19.6257 124.069L20.0304 124.473C20.1701 124.613 20.2119 124.823 20.1363 125.006C20.0607 125.188 19.8826 125.307 19.685 125.307H13.8229C13.6253 125.307 13.4472 125.188 13.3716 125.006C13.2959 124.823 13.3377 124.613 13.4775 124.473L13.8822 124.069C14.157 123.794 14.3114 123.421 14.3114 123.032V122.865H12.3574C11.2782 122.865 10.4033 121.99 10.4033 120.911V114.56ZM11.3803 114.56V119.445C11.3803 119.985 11.8178 120.422 12.3574 120.422H21.1505C21.6901 120.422 22.1275 119.985 22.1275 119.445V114.56C22.1275 114.02 21.6901 113.583 21.1505 113.583H12.3574C11.8178 113.583 11.3803 114.02 11.3803 114.56Z" fill="#3C5C99"/>
<path d="M33.6095 112.896H31.5817V111.663H37.12V112.896H35.0923V118.023H33.6095V112.896ZM39.2441 118.166C38.7557 118.166 38.318 118.065 37.931 117.863C37.5498 117.654 37.2521 117.362 37.0377 116.987C36.8233 116.612 36.7161 116.183 36.7161 115.701C36.7161 115.23 36.8233 114.814 37.0377 114.45C37.2521 114.087 37.5498 113.807 37.931 113.611C38.3121 113.408 38.7468 113.307 39.2351 113.307C39.7175 113.307 40.1433 113.408 40.5125 113.611C40.8877 113.813 41.1765 114.096 41.379 114.459C41.5874 114.823 41.6916 115.242 41.6916 115.719C41.6916 115.921 41.6857 116.055 41.6738 116.121H38.0828C38.1364 116.448 38.2704 116.707 38.4848 116.898C38.7051 117.088 38.9761 117.184 39.2977 117.184C39.5478 117.184 39.7681 117.127 39.9587 117.014C40.1492 116.901 40.2952 116.749 40.3964 116.558L41.5219 116.844C41.379 117.255 41.1021 117.58 40.6912 117.818C40.2803 118.05 39.7979 118.166 39.2441 118.166ZM40.3428 115.299C40.3011 115.001 40.176 114.76 39.9676 114.575C39.7592 114.385 39.5031 114.29 39.1994 114.29C38.9016 114.29 38.6515 114.382 38.4491 114.566C38.2525 114.745 38.1275 114.989 38.0739 115.299H40.3428ZM44.8173 118.166C44.3349 118.166 43.9061 118.065 43.5309 117.863C43.1558 117.66 42.861 117.374 42.6466 117.005C42.4382 116.636 42.334 116.213 42.334 115.737C42.334 115.254 42.4382 114.831 42.6466 114.468C42.855 114.099 43.1468 113.813 43.522 113.611C43.8972 113.408 44.3289 113.307 44.8173 113.307C45.2282 113.307 45.6004 113.381 45.9339 113.53C46.2733 113.673 46.5502 113.879 46.7646 114.147C46.979 114.415 47.11 114.727 47.1576 115.085L45.9249 115.245C45.8654 114.995 45.7314 114.793 45.5229 114.638C45.3205 114.477 45.0912 114.397 44.8351 114.397C44.4957 114.397 44.2128 114.522 43.9865 114.772C43.7662 115.022 43.656 115.344 43.656 115.737C43.656 116.13 43.7662 116.451 43.9865 116.701C44.2069 116.952 44.4867 117.077 44.8262 117.077C45.0882 117.077 45.3205 116.999 45.5229 116.844C45.7254 116.684 45.8594 116.481 45.9249 116.237L47.1666 116.389C47.113 116.746 46.976 117.059 46.7557 117.327C46.5413 117.595 46.2644 117.803 45.9249 117.952C45.5914 118.095 45.2222 118.166 44.8173 118.166ZM47.9828 111.395H49.3048V114.066H49.3942C49.7455 113.56 50.1892 113.307 50.7251 113.307C51.0646 113.307 51.3653 113.39 51.6274 113.557C51.8894 113.718 52.0919 113.941 52.2348 114.227C52.3837 114.513 52.4581 114.837 52.4581 115.201V118.023H51.1361V115.397C51.1361 115.111 51.0557 114.882 50.8949 114.709C50.74 114.531 50.5316 114.441 50.2696 114.441C50.0016 114.441 49.7723 114.537 49.5818 114.727C49.3971 114.918 49.3048 115.159 49.3048 115.451V118.023H47.9828V111.395ZM53.4087 113.45H54.7308V114.093H54.8201C55.1596 113.575 55.6032 113.316 56.1511 113.316C56.4905 113.316 56.7913 113.399 57.0533 113.566C57.3153 113.727 57.5178 113.953 57.6607 114.245C57.8036 114.531 57.8751 114.855 57.8751 115.219V118.023H56.5531V115.406C56.5531 115.12 56.4756 114.891 56.3208 114.718C56.166 114.54 55.9575 114.45 55.6955 114.45C55.4275 114.45 55.1983 114.546 55.0077 114.736C54.8231 114.927 54.7308 115.165 54.7308 115.451V118.023H53.4087V113.45ZM61.1485 118.166C60.6423 118.166 60.1986 118.068 59.8175 117.872C59.4364 117.669 59.1386 117.386 58.9242 117.023C58.7158 116.654 58.6116 116.225 58.6116 115.737C58.6116 115.248 58.7158 114.823 58.9242 114.459C59.1386 114.09 59.4364 113.807 59.8175 113.611C60.1986 113.408 60.6423 113.307 61.1485 113.307C61.6487 113.307 62.0894 113.408 62.4705 113.611C62.8576 113.807 63.1554 114.09 63.3638 114.459C63.5782 114.823 63.6854 115.248 63.6854 115.737C63.6854 116.225 63.5782 116.654 63.3638 117.023C63.1554 117.386 62.8576 117.669 62.4705 117.872C62.0894 118.068 61.6487 118.166 61.1485 118.166ZM61.1485 117.041C61.4998 117.041 61.7887 116.919 62.0149 116.675C62.2412 116.43 62.3544 116.118 62.3544 115.737C62.3544 115.356 62.2412 115.046 62.0149 114.808C61.7887 114.563 61.4998 114.441 61.1485 114.441C60.7912 114.441 60.4994 114.563 60.2731 114.808C60.0468 115.046 59.9336 115.356 59.9336 115.737C59.9336 116.118 60.0468 116.43 60.2731 116.675C60.4994 116.919 60.7912 117.041 61.1485 117.041ZM64.4785 111.395H65.8005V118.023H64.4785V111.395ZM69.1304 118.166C68.6242 118.166 68.1805 118.068 67.7994 117.872C67.4183 117.669 67.1205 117.386 66.9061 117.023C66.6977 116.654 66.5935 116.225 66.5935 115.737C66.5935 115.248 66.6977 114.823 66.9061 114.459C67.1205 114.09 67.4183 113.807 67.7994 113.611C68.1805 113.408 68.6242 113.307 69.1304 113.307C69.6306 113.307 70.0713 113.408 70.4524 113.611C70.8395 113.807 71.1373 114.09 71.3457 114.459C71.5601 114.823 71.6673 115.248 71.6673 115.737C71.6673 116.225 71.5601 116.654 71.3457 117.023C71.1373 117.386 70.8395 117.669 70.4524 117.872C70.0713 118.068 69.6306 118.166 69.1304 118.166ZM69.1304 117.041C69.4817 117.041 69.7705 116.919 69.9968 116.675C70.2231 116.43 70.3363 116.118 70.3363 115.737C70.3363 115.356 70.2231 115.046 69.9968 114.808C69.7705 114.563 69.4817 114.441 69.1304 114.441C68.7731 114.441 68.4812 114.563 68.255 114.808C68.0287 115.046 67.9155 115.356 67.9155 115.737C67.9155 116.118 68.0287 116.43 68.255 116.675C68.4812 116.919 68.7731 117.041 69.1304 117.041ZM74.8267 120.221C74.1598 120.221 73.6089 120.081 73.1742 119.801C72.7395 119.521 72.4655 119.125 72.3524 118.613L73.6297 118.363C73.7131 118.613 73.856 118.81 74.0585 118.952C74.261 119.095 74.5052 119.167 74.791 119.167C75.1602 119.167 75.452 119.054 75.6664 118.827C75.8868 118.607 75.9969 118.309 75.9969 117.934V117.425H75.9076C75.5205 117.866 75.0381 118.086 74.4605 118.086C74.0436 118.086 73.6714 117.988 73.3439 117.791C73.0164 117.595 72.7603 117.321 72.5757 116.969C72.3911 116.612 72.2988 116.201 72.2988 115.737C72.2988 115.254 72.3881 114.831 72.5668 114.468C72.7514 114.099 73.0045 113.816 73.326 113.62C73.6536 113.417 74.0287 113.316 74.4516 113.316C75.0649 113.316 75.5622 113.554 75.9433 114.031H76.0327V113.45H77.319V117.97C77.319 118.673 77.0957 119.223 76.649 119.622C76.2024 120.021 75.595 120.221 74.8267 120.221ZM74.8357 117.005C75.187 117.005 75.4758 116.886 75.7021 116.648C75.9284 116.41 76.0416 116.106 76.0416 115.737C76.0416 115.361 75.9284 115.052 75.7021 114.808C75.4758 114.563 75.187 114.441 74.8357 114.441C74.4843 114.441 74.1925 114.563 73.9603 114.808C73.734 115.052 73.6208 115.361 73.6208 115.737C73.6208 116.106 73.734 116.41 73.9603 116.648C74.1925 116.886 74.4843 117.005 74.8357 117.005ZM79.323 120.087C79.1741 120.087 79.0103 120.072 78.8317 120.042C78.653 120.012 78.5012 119.974 78.3761 119.926L78.385 118.863C78.4803 118.905 78.5905 118.938 78.7155 118.961C78.8466 118.985 78.9627 118.997 79.0639 118.997C79.32 118.997 79.5165 118.917 79.6535 118.756C79.7905 118.595 79.9185 118.366 80.0376 118.068L77.8848 113.45H79.3051L80.5289 116.371H80.6182L81.6098 113.45H82.9854L81.2167 118.184C80.9785 118.821 80.7165 119.298 80.4306 119.613C80.1507 119.929 79.7815 120.087 79.323 120.087Z" fill="#1E2F4E"/>
<path d="M33.8025 128.188H32.9586V123.444H33.8025V128.188ZM35.5919 128.188H34.833V124.785H35.5919V125.24H35.6574C35.9081 124.861 36.2505 124.671 36.6845 124.671C37.0923 124.671 37.4217 124.807 37.6725 125.08C37.9232 125.35 38.0486 125.698 38.0486 126.123V128.188H37.2864V126.185C37.2864 125.933 37.2167 125.728 37.0771 125.57C36.9375 125.413 36.7456 125.335 36.5013 125.335C36.2505 125.335 36.0357 125.421 35.8569 125.593C35.6803 125.763 35.5919 125.976 35.5919 126.231V128.188ZM40.4367 128.309C39.9482 128.309 39.5425 128.138 39.2198 127.798C38.897 127.456 38.7356 127.019 38.7356 126.486C38.7356 125.954 38.8959 125.517 39.2165 125.175C39.5393 124.83 39.9438 124.658 40.4301 124.658C40.6809 124.658 40.9066 124.708 41.1073 124.808C41.3079 124.906 41.4693 125.046 41.5914 125.227H41.6569V123.245H42.4223V128.188H41.6569V127.726H41.5914C41.3363 128.114 40.9514 128.309 40.4367 128.309ZM39.8053 127.314C40.0125 127.534 40.2742 127.644 40.5904 127.644C40.9066 127.644 41.1683 127.533 41.3755 127.311C41.5849 127.088 41.6896 126.814 41.6896 126.486C41.6896 126.155 41.5849 125.878 41.3755 125.656C41.1683 125.431 40.9066 125.319 40.5904 125.319C40.2742 125.319 40.0125 125.431 39.8053 125.656C39.5981 125.878 39.4945 126.155 39.4945 126.486C39.4945 126.818 39.5981 127.094 39.8053 127.314ZM45.7165 124.785H46.4754V128.188H45.7165V127.733H45.6511C45.3959 128.112 45.0546 128.302 44.6272 128.302C44.2193 128.302 43.889 128.166 43.636 127.893C43.3852 127.618 43.2598 127.267 43.2598 126.84V124.785H44.022V126.787C44.022 127.04 44.0918 127.245 44.2313 127.402C44.3709 127.559 44.5628 127.638 44.8071 127.638C45.0601 127.638 45.2749 127.552 45.4515 127.379C45.6282 127.207 45.7165 126.992 45.7165 126.735V124.785ZM48.8373 128.315C48.3379 128.315 47.9486 128.203 47.6694 127.978C47.3925 127.754 47.254 127.439 47.254 127.036H47.9508C47.9551 127.252 48.0369 127.425 48.1961 127.556C48.3575 127.687 48.5778 127.752 48.8569 127.752C49.0837 127.752 49.2626 127.708 49.3934 127.618C49.5264 127.529 49.593 127.408 49.593 127.255C49.593 127.166 49.5733 127.093 49.5341 127.036C49.497 126.979 49.4283 126.935 49.328 126.902C49.2277 126.869 49.1437 126.847 49.0761 126.836C49.0107 126.823 48.8984 126.808 48.7392 126.791C48.7348 126.791 48.7304 126.791 48.7261 126.791C48.7239 126.788 48.7206 126.787 48.7163 126.787C48.6116 126.776 48.5189 126.766 48.4382 126.755C48.3575 126.742 48.2648 126.723 48.1601 126.699C48.0576 126.675 47.9682 126.648 47.8919 126.617C47.8177 126.585 47.7414 126.542 47.6629 126.49C47.5844 126.437 47.5201 126.378 47.4699 126.313C47.4219 126.248 47.3816 126.168 47.3489 126.074C47.3183 125.98 47.3031 125.877 47.3031 125.763C47.3031 125.421 47.4339 125.151 47.6956 124.952C47.9595 124.752 48.3084 124.651 48.7424 124.651C49.1851 124.651 49.545 124.757 49.8219 124.969C50.0989 125.178 50.2374 125.458 50.2374 125.809H49.521C49.5188 125.628 49.4457 125.485 49.3018 125.381C49.1579 125.274 48.9692 125.22 48.7359 125.22C48.52 125.22 48.3455 125.265 48.2125 125.355C48.0794 125.444 48.0129 125.564 48.0129 125.714C48.0129 125.797 48.0304 125.866 48.0653 125.921C48.1023 125.973 48.1699 126.015 48.2681 126.048C48.3684 126.079 48.448 126.099 48.5069 126.11C48.5658 126.121 48.6748 126.135 48.834 126.153C48.8798 126.159 48.9136 126.164 48.9354 126.166C49.0401 126.179 49.1328 126.192 49.2135 126.205C49.2964 126.218 49.388 126.238 49.4883 126.264C49.5886 126.29 49.6758 126.321 49.75 126.356C49.8241 126.388 49.8994 126.431 49.9757 126.483C50.052 126.536 50.1142 126.595 50.1622 126.663C50.2101 126.731 50.2483 126.811 50.2766 126.905C50.3072 126.999 50.3224 127.103 50.3224 127.216C50.3224 127.563 50.1916 127.833 49.9299 128.027C49.6682 128.219 49.304 128.315 48.8373 128.315ZM52.4128 128.309C52.1031 128.309 51.8545 128.209 51.6669 128.011C51.4794 127.81 51.3856 127.545 51.3856 127.216V125.355H50.872V124.785H51.3987L51.5623 123.686H52.1511L52.1445 124.785H52.9754V125.355H52.1445V127.183C52.1445 127.336 52.1882 127.46 52.2754 127.556C52.3648 127.65 52.4858 127.697 52.6385 127.697C52.7606 127.697 52.886 127.679 53.0147 127.644V128.214C52.8293 128.277 52.6287 128.309 52.4128 128.309ZM54.526 128.188H53.7671V124.785H54.5129V125.234H54.5784C54.6547 125.081 54.7735 124.957 54.9349 124.861C55.0985 124.765 55.2719 124.717 55.4551 124.717C55.6186 124.717 55.7527 124.744 55.8574 124.798V125.489C55.6786 125.417 55.502 125.381 55.3275 125.381C55.0898 125.381 54.8968 125.475 54.7485 125.662C54.6002 125.85 54.526 126.095 54.526 126.398V128.188ZM56.9991 129.709C56.7897 129.709 56.5836 129.67 56.3808 129.594L56.3906 128.96C56.5608 129.025 56.7189 129.058 56.865 129.058C56.9108 129.058 56.9544 129.052 56.9958 129.041C57.0394 129.033 57.0776 129.022 57.1103 129.009C57.1452 128.996 57.179 128.975 57.2117 128.946C57.2466 128.918 57.275 128.893 57.2968 128.871C57.3208 128.849 57.3459 128.818 57.372 128.776C57.4004 128.735 57.4222 128.701 57.4375 128.675C57.4527 128.649 57.4723 128.609 57.4963 128.557C57.5203 128.507 57.5378 128.469 57.5487 128.443C57.5596 128.419 57.577 128.377 57.601 128.318C57.625 128.262 57.6414 128.222 57.6501 128.201L56.093 124.785H56.8977L57.9445 127.216H58.0099L58.8801 124.785H59.6783L58.3534 128.276C58.2945 128.428 58.2422 128.556 58.1964 128.659C58.1506 128.763 58.0961 128.876 58.0328 128.996C57.9696 129.115 57.9042 129.214 57.8365 129.29C57.7711 129.368 57.697 129.441 57.6141 129.509C57.5312 129.579 57.4375 129.629 57.3328 129.66C57.2303 129.692 57.119 129.709 56.9991 129.709Z" fill="#6C80A4"/>
<defs>
<linearGradient id="paint0_linear_22113_198" x1="117.798" y1="203.821" x2="117.798" y2="14" gradientUnits="userSpaceOnUse">
<stop stop-color="#F7FAFF"/>
<stop offset="1" stop-color="#EBF1FF"/>
</linearGradient>
<linearGradient id="paint1_linear_22113_198" x1="117.798" y1="14" x2="117.798" y2="203.821" gradientUnits="userSpaceOnUse">
<stop stop-color="#96AFDF"/>
<stop offset="1" stop-color="#F7FAFF"/>
</linearGradient>
</defs>
</svg>
