<svg width="23" height="24" viewBox="0 0 23 24" fill="none" xmlns="http://www.w3.org/2000/svg">
<g clip-path="url(#clip0_22142_15887)">
<path d="M3.55865 11.1977L6.12507 12.9265C7.08915 13.5762 6.44515 15.0799 5.31049 14.8307L4.29082 14.6065C4.8086 16.039 5.7413 17.2849 6.96998 18.1853C8.19866 19.0857 9.66765 19.5998 11.1896 19.662C12.7116 19.7242 14.2177 19.3317 15.5157 18.5345C16.8138 17.7374 17.845 16.5718 18.478 15.1862C18.5868 14.9607 18.7796 14.7867 19.0151 14.7014C19.2506 14.6162 19.5101 14.6266 19.738 14.7303C19.966 14.834 20.1443 15.0228 20.2348 15.2563C20.3252 15.4899 20.3207 15.7495 20.2222 15.9797C18.3179 20.1677 13.6135 22.4897 9.02211 21.2592C6.99641 20.7165 5.20457 19.5245 3.92123 17.8658C2.63788 16.2072 1.93385 14.1735 1.91703 12.0765C1.91032 11.2111 2.87153 10.7329 3.55865 11.1967M11.5004 6.24979C11.7351 6.24982 11.9616 6.336 12.1371 6.49197C12.3125 6.64795 12.4245 6.86288 12.452 7.096L12.4587 7.20812V8.16645H14.3754C14.6196 8.16673 14.8546 8.26026 15.0322 8.42793C15.2098 8.59561 15.3167 8.82478 15.331 9.06862C15.3453 9.31246 15.266 9.55257 15.1092 9.73988C14.9524 9.92719 14.73 10.0476 14.4875 10.0764L14.3754 10.0831H9.58369C9.46395 10.0829 9.34847 10.1275 9.25998 10.2082C9.1715 10.2889 9.11642 10.3997 9.1056 10.519C9.09479 10.6382 9.12901 10.7572 9.20153 10.8525C9.27405 10.9478 9.37962 11.0125 9.49744 11.0338L9.58369 11.0415H13.417C14.0398 11.0399 14.6388 11.281 15.0868 11.7136C15.5349 12.1461 15.797 12.7362 15.8174 13.3587C15.8378 13.9811 15.6151 14.5871 15.1963 15.0481C14.7776 15.5091 14.1958 15.789 13.5742 15.8283L13.417 15.8331H12.4587V16.7915C12.4584 17.0357 12.3649 17.2707 12.1972 17.4483C12.0295 17.6259 11.8004 17.7328 11.5565 17.7471C11.3127 17.7614 11.0726 17.6821 10.8853 17.5253C10.698 17.3685 10.5776 17.1461 10.5487 16.9036L10.542 16.7915V15.8331H8.62536C8.3811 15.8329 8.14616 15.7393 7.96855 15.5716C7.79094 15.404 7.68405 15.1748 7.66974 14.931C7.65542 14.6871 7.73476 14.447 7.89153 14.2597C8.0483 14.0724 8.27069 13.952 8.51324 13.9232L8.62536 13.9165H13.417C13.5368 13.9167 13.6522 13.8721 13.7407 13.7914C13.8292 13.7107 13.8843 13.5998 13.8951 13.4806C13.9059 13.3613 13.8717 13.2424 13.7992 13.1471C13.7267 13.0518 13.6211 12.9871 13.5033 12.9658L13.417 12.9581H9.58369C8.96089 12.9596 8.36197 12.7186 7.91388 12.286C7.46579 11.8534 7.20376 11.2634 7.18332 10.6409C7.16288 10.0184 7.38565 9.41247 7.8044 8.95145C8.22314 8.49043 8.80496 8.21059 9.42653 8.17125L9.58369 8.16645H10.542V7.20812C10.542 6.95396 10.643 6.7102 10.8227 6.53048C11.0024 6.35076 11.2462 6.24979 11.5004 6.24979ZM13.9824 2.74516C16.0081 3.28769 17.7999 4.47953 19.0832 6.13799C20.3666 7.79645 21.0707 9.83001 21.0875 11.927C21.0942 12.7923 20.134 13.2705 19.4469 12.8067L16.8804 11.0779C15.9154 10.4281 16.5594 8.9245 17.695 9.17366L18.7137 9.39791C18.1959 7.96535 17.2633 6.71944 16.0346 5.81906C14.8059 4.91868 13.3369 4.40461 11.8149 4.34241C10.2929 4.28021 8.78687 4.6727 7.48882 5.46982C6.19077 6.26694 5.15952 7.43259 4.52657 8.81812C4.47633 8.93548 4.40314 9.04162 4.31131 9.1303C4.21948 9.21898 4.11086 9.28843 3.99183 9.33455C3.87279 9.38067 3.74574 9.40255 3.61813 9.39889C3.49052 9.39524 3.36493 9.36612 3.24873 9.31326C3.13253 9.26039 3.02806 9.18484 2.94146 9.09105C2.85486 8.99725 2.78787 8.8871 2.74443 8.76706C2.70099 8.64701 2.68197 8.5195 2.68849 8.39201C2.69501 8.26451 2.72694 8.13961 2.7824 8.02462C4.68661 3.83671 9.39203 1.51562 13.9824 2.74516Z" fill="#18181B"/>
</g>
<defs>
<clipPath id="clip0_22142_15887">
<rect width="23" height="23" fill="white" transform="translate(0 0.5)"/>
</clipPath>
</defs>
</svg>
