<svg width="23" height="24" viewBox="0 0 23 24" fill="none" xmlns="http://www.w3.org/2000/svg">
<path fill-rule="evenodd" clip-rule="evenodd" d="M6.25361 5.26909C4.92027 5.99637 4.3125 6.88296 4.3125 7.6875C4.3125 8.49204 4.92027 9.37863 6.25361 10.1059C7.55977 10.8184 9.41331 11.2812 11.5 11.2812C13.5867 11.2812 15.4402 10.8184 16.7464 10.1059C18.0797 9.37863 18.6875 8.49204 18.6875 7.6875C18.6875 6.88296 18.0797 5.99637 16.7464 5.26909C15.4402 4.55664 13.5867 4.09375 11.5 4.09375C9.41331 4.09375 7.55977 4.55664 6.25361 5.26909ZM5.56526 4.00711C7.1206 3.15875 9.22019 2.65625 11.5 2.65625C13.7798 2.65625 15.8794 3.15875 17.4347 4.00711C18.9629 4.84066 20.125 6.11031 20.125 7.6875C20.125 9.26469 18.9629 10.5343 17.4347 11.3679C15.8794 12.2163 13.7798 12.7188 11.5 12.7188C9.22019 12.7188 7.1206 12.2163 5.56526 11.3679C4.0371 10.5343 2.875 9.26469 2.875 7.6875C2.875 6.11031 4.0371 4.84066 5.56526 4.00711Z" fill="black"/>
<path fill-rule="evenodd" clip-rule="evenodd" d="M3.59375 6.96875C3.9907 6.96875 4.3125 7.29055 4.3125 7.6875V12C4.3125 12.8041 4.92023 13.6907 6.25368 14.4181C7.55988 15.1307 9.41342 15.5938 11.5 15.5938C13.5866 15.5938 15.4401 15.1307 16.7463 14.4181C18.0798 13.6907 18.6875 12.8041 18.6875 12V7.6875C18.6875 7.29055 19.0093 6.96875 19.4062 6.96875C19.8032 6.96875 20.125 7.29055 20.125 7.6875V12C20.125 13.5768 18.9628 14.8464 17.4347 15.68C15.8794 16.5285 13.7798 17.0312 11.5 17.0312C9.22018 17.0312 7.12059 16.5285 5.56526 15.68C4.03719 14.8464 2.875 13.5768 2.875 12V7.6875C2.875 7.29055 3.1968 6.96875 3.59375 6.96875Z" fill="black"/>
<path fill-rule="evenodd" clip-rule="evenodd" d="M3.59375 11.2812C3.9907 11.2812 4.3125 11.603 4.3125 12V16.3125C4.3125 17.1166 4.92023 18.0032 6.25368 18.7306C7.55988 19.4432 9.41342 19.9062 11.5 19.9062C13.5866 19.9062 15.4401 19.4432 16.7463 18.7306C18.0798 18.0032 18.6875 17.1166 18.6875 16.3125V12C18.6875 11.603 19.0093 11.2812 19.4062 11.2812C19.8032 11.2812 20.125 11.603 20.125 12V16.3125C20.125 17.8893 18.9628 19.1589 17.4347 19.9925C15.8794 20.841 13.7798 21.3438 11.5 21.3438C9.22018 21.3438 7.12059 20.841 5.56526 19.9925C4.03719 19.1589 2.875 17.8893 2.875 16.3125V12C2.875 11.603 3.1968 11.2812 3.59375 11.2812Z" fill="black"/>
</svg>
