<svg width="23" height="24" viewBox="0 0 23 24" fill="none" xmlns="http://www.w3.org/2000/svg">
<path fill-rule="evenodd" clip-rule="evenodd" d="M11.5 10.2031C9.91218 10.2031 8.625 11.4903 8.625 13.0781C8.625 14.6659 9.91218 15.9531 11.5 15.9531C13.0878 15.9531 14.375 14.6659 14.375 13.0781C14.375 11.4903 13.0878 10.2031 11.5 10.2031ZM7.1875 13.0781C7.1875 10.6964 9.11827 8.76562 11.5 8.76562C13.8817 8.76562 15.8125 10.6964 15.8125 13.0781C15.8125 15.4599 13.8817 17.3906 11.5 17.3906C9.11827 17.3906 7.1875 15.4599 7.1875 13.0781Z" fill="#18181B"/>
<path fill-rule="evenodd" clip-rule="evenodd" d="M19.6997 12.132C19.0511 11.8077 18.3357 11.6394 17.6106 11.6406C17.2136 11.6413 16.8913 11.32 16.8906 10.9231C16.89 10.5261 17.2112 10.2038 17.6082 10.2031C18.5573 10.2015 19.4936 10.4218 20.3425 10.8462C21.1914 11.2707 21.9294 11.8876 22.4976 12.6478C22.7352 12.9658 22.6701 13.4162 22.3522 13.6539C22.0342 13.8915 21.5838 13.8264 21.3462 13.5084C20.912 12.9276 20.3482 12.4562 19.6997 12.132Z" fill="#18181B"/>
<path fill-rule="evenodd" clip-rule="evenodd" d="M5.38947 11.6406C4.66434 11.6394 3.94896 11.8077 3.30039 12.132C2.65182 12.4562 2.08799 12.9276 1.65389 13.5084C1.41625 13.8264 0.965842 13.8915 0.647881 13.6539C0.329919 13.4162 0.264806 12.9658 0.502448 12.6478C1.07064 11.8876 1.80862 11.2707 2.65752 10.8462C3.50642 10.4218 4.44277 10.2015 5.39187 10.2031C5.78882 10.2038 6.11008 10.5261 6.10942 10.9231C6.10875 11.32 5.78642 11.6413 5.38947 11.6406Z" fill="#18181B"/>
<path fill-rule="evenodd" clip-rule="evenodd" d="M11.5004 17.3931C10.5563 17.3931 9.63115 17.6582 8.83041 18.1583C8.02966 18.6584 7.38547 19.3734 6.97122 20.2218C6.79705 20.5785 6.36669 20.7264 6.00999 20.5523C5.65329 20.3781 5.50532 19.9477 5.67949 19.591C6.21188 18.5007 7.0398 17.5818 8.06892 16.9391C9.09805 16.2964 10.287 15.9556 11.5004 15.9556C12.7137 15.9556 13.9027 16.2964 14.9318 16.9391C15.9609 17.5818 16.7888 18.5007 17.3212 19.591C17.4954 19.9477 17.3474 20.3781 16.9907 20.5523C16.634 20.7264 16.2037 20.5785 16.0295 20.2218C15.6152 19.3734 14.9711 18.6584 14.1703 18.1583C13.3696 17.6582 12.4444 17.3931 11.5004 17.3931Z" fill="#18181B"/>
<path fill-rule="evenodd" clip-rule="evenodd" d="M5.92322 5.95818C5.52678 5.85654 5.10961 5.86982 4.72044 5.99646C4.33128 6.12311 3.98619 6.35789 3.7255 6.67337C3.46481 6.98886 3.29928 7.37202 3.24827 7.77808C3.19725 8.18414 3.26285 8.59634 3.43739 8.9665C3.61194 9.33667 3.88822 9.64952 4.23396 9.8685C4.57971 10.0875 4.98063 10.2035 5.38988 10.2031C5.78684 10.2027 6.10896 10.5242 6.10936 10.9211C6.10977 11.3181 5.7883 11.6402 5.39134 11.6406C4.70925 11.6413 4.04105 11.4479 3.46481 11.0829C2.88857 10.718 2.4281 10.1965 2.13719 9.57959C1.84628 8.96265 1.73695 8.27565 1.82198 7.59888C1.90701 6.92211 2.18288 6.28351 2.61736 5.75771C3.05185 5.2319 3.627 4.8406 4.27561 4.62952C4.92422 4.41845 5.61951 4.39632 6.28023 4.56572C6.94095 4.73512 7.53982 5.08906 8.00686 5.58617C8.4739 6.08329 8.78982 6.70305 8.91771 7.37304C8.99214 7.76296 8.73639 8.13938 8.34647 8.21381C7.95656 8.28824 7.58013 8.03249 7.50571 7.64258C7.42897 7.24058 7.23942 6.86872 6.95919 6.57045C6.67897 6.27219 6.31965 6.05982 5.92322 5.95818Z" fill="#18181B"/>
<path fill-rule="evenodd" clip-rule="evenodd" d="M18.2795 5.99646C17.8903 5.86982 17.4731 5.85654 17.0767 5.95818C16.6803 6.05982 16.321 6.27219 16.0407 6.57045C15.7605 6.86872 15.571 7.24058 15.4942 7.64258C15.4198 8.03249 15.0434 8.28824 14.6535 8.21381C14.2635 8.13938 14.0078 7.76296 14.0822 7.37304C14.2101 6.70305 14.526 6.08329 14.9931 5.58617C15.4601 5.08906 16.059 4.73512 16.7197 4.56572C17.3804 4.39632 18.0757 4.41845 18.7243 4.62952C19.3729 4.8406 19.9481 5.2319 20.3826 5.75771C20.817 6.28351 21.0929 6.92211 21.1779 7.59888C21.263 8.27565 21.1536 8.96265 20.8627 9.57959C20.5718 10.1965 20.1114 10.718 19.5351 11.0829C18.9589 11.4479 18.2907 11.6413 17.6086 11.6406C17.2116 11.6402 16.8902 11.3181 16.8906 10.9211C16.891 10.5242 17.2131 10.2027 17.61 10.2031C18.0193 10.2035 18.4202 10.0875 18.766 9.8685C19.1117 9.64952 19.388 9.33667 19.5625 8.9665C19.7371 8.59634 19.8027 8.18414 19.7517 7.77808C19.7006 7.37202 19.5351 6.98886 19.2744 6.67337C19.0137 6.35789 18.6686 6.12311 18.2795 5.99646Z" fill="#18181B"/>
</svg>
