<svg width="23" height="24" viewBox="0 0 23 24" fill="none" xmlns="http://www.w3.org/2000/svg">
<path fill-rule="evenodd" clip-rule="evenodd" d="M2.57728 3.79603C2.84687 3.52645 3.2125 3.375 3.59375 3.375H15.0938C15.475 3.375 15.8406 3.52645 16.1102 3.79603C16.3798 4.06562 16.5312 4.43125 16.5312 4.8125V12.7188C16.5312 13.1 16.3798 13.4656 16.1102 13.7352C15.8406 14.0048 15.475 14.1563 15.0938 14.1563H6.68692L3.32675 16.8715C3.11136 17.0456 2.81513 17.0804 2.56524 16.9611C2.31535 16.8417 2.15625 16.5894 2.15625 16.3125V4.8125C2.15625 4.43125 2.3077 4.06562 2.57728 3.79603ZM15.0938 4.8125L3.59375 4.8125L3.59375 14.8076L5.98106 12.8785C6.10895 12.7751 6.26839 12.7188 6.43281 12.7188H15.0938V4.8125Z" fill="#18181B"/>
<path fill-rule="evenodd" clip-rule="evenodd" d="M15.0938 8.40625C15.0938 8.0093 15.4155 7.6875 15.8125 7.6875H19.4062C19.7875 7.6875 20.1531 7.83895 20.4227 8.10853C20.6923 8.37812 20.8438 8.74375 20.8438 9.125V20.625C20.8438 20.9019 20.6847 21.1542 20.4348 21.2736C20.1849 21.3929 19.8886 21.3581 19.6733 21.184L16.3131 18.4688H7.90625C7.525 18.4688 7.15937 18.3173 6.88978 18.0477C6.6202 17.7781 6.46875 17.4125 6.46875 17.0313V13.4375C6.46875 13.0405 6.79055 12.7188 7.1875 12.7188C7.58445 12.7188 7.90625 13.0405 7.90625 13.4375V17.0313H16.5672C16.7316 17.0313 16.8911 17.0876 17.0189 17.191L19.4062 19.1201V9.125H15.8125C15.4155 9.125 15.0938 8.8032 15.0938 8.40625Z" fill="#18181B"/>
</svg>
