<svg width="23" height="24" viewBox="0 0 23 24" fill="none" xmlns="http://www.w3.org/2000/svg">
<path d="M5.04962 9.84385C5.04842 8.99175 5.21581 8.14784 5.54216 7.36071C5.86851 6.57359 6.34736 5.85881 6.95114 5.25754C7.55491 4.65627 8.27168 4.18039 9.06016 3.85732C9.84863 3.53424 10.6932 3.37036 11.5453 3.3751C15.1031 3.40205 17.9512 6.35791 17.9512 9.92471V10.5626C17.9512 13.779 18.625 15.6478 19.218 16.672C19.281 16.7811 19.3142 16.9048 19.3143 17.0307C19.3144 17.1567 19.2814 17.2804 19.2186 17.3896C19.1558 17.4988 19.0655 17.5896 18.9565 17.6529C18.8476 17.7161 18.724 17.7497 18.5981 17.7501H4.40274C4.27679 17.7497 4.15317 17.7161 4.04425 17.6529C3.93534 17.5896 3.84497 17.4988 3.78218 17.3896C3.7194 17.2804 3.68641 17.1567 3.68652 17.0307C3.68664 16.9048 3.71984 16.7811 3.78282 16.672C4.37579 15.6478 5.04962 13.779 5.04962 10.5626V9.84385Z" stroke="#18181B" stroke-width="1.5" stroke-linecap="round" stroke-linejoin="round"/>
<path d="M8.625 17.75V18.4688C8.625 19.2312 8.9279 19.9625 9.46707 20.5017C10.0062 21.0408 10.7375 21.3438 11.5 21.3438C12.2625 21.3438 12.9938 21.0408 13.5329 20.5017C14.0721 19.9625 14.375 19.2312 14.375 18.4688V17.75" stroke="#18181B" stroke-width="1.5" stroke-linecap="round" stroke-linejoin="round"/>
</svg>
