<svg width="23" height="24" viewBox="0 0 23 24" fill="none" xmlns="http://www.w3.org/2000/svg">
<path fill-rule="evenodd" clip-rule="evenodd" d="M4.01478 3.07728C4.28437 2.8077 4.65 2.65625 5.03125 2.65625H13.6562C13.8469 2.65625 14.0297 2.73198 14.1645 2.86677L19.1957 7.89802C19.3305 8.03281 19.4062 8.21563 19.4062 8.40625V19.9062C19.4062 20.2875 19.2548 20.6531 18.9852 20.9227C18.7156 21.1923 18.35 21.3438 17.9688 21.3438H5.03125C4.65 21.3438 4.28437 21.1923 4.01478 20.9227C3.7452 20.6531 3.59375 20.2875 3.59375 19.9062V4.09375C3.59375 3.7125 3.7452 3.34687 4.01478 3.07728ZM13.3585 4.09375L5.03125 4.09375L5.03125 19.9062H17.9688V8.70397L13.3585 4.09375Z" fill="#18181B"/>
<path fill-rule="evenodd" clip-rule="evenodd" d="M13.6562 2.65625C14.0532 2.65625 14.375 2.97805 14.375 3.375V7.6875H18.6875C19.0845 7.6875 19.4062 8.0093 19.4062 8.40625C19.4062 8.8032 19.0845 9.125 18.6875 9.125H13.6562C13.2593 9.125 12.9375 8.8032 12.9375 8.40625V3.375C12.9375 2.97805 13.2593 2.65625 13.6562 2.65625Z" fill="#18181B"/>
<path fill-rule="evenodd" clip-rule="evenodd" d="M7.90625 12.7188C7.90625 12.3218 8.22805 12 8.625 12H14.375C14.772 12 15.0938 12.3218 15.0938 12.7188C15.0938 13.1157 14.772 13.4375 14.375 13.4375H8.625C8.22805 13.4375 7.90625 13.1157 7.90625 12.7188Z" fill="#18181B"/>
<path fill-rule="evenodd" clip-rule="evenodd" d="M7.90625 15.5938C7.90625 15.1968 8.22805 14.875 8.625 14.875H14.375C14.772 14.875 15.0938 15.1968 15.0938 15.5938C15.0938 15.9907 14.772 16.3125 14.375 16.3125H8.625C8.22805 16.3125 7.90625 15.9907 7.90625 15.5938Z" fill="#18181B"/>
</svg>
