<svg width="23" height="24" viewBox="0 0 23 24" fill="none" xmlns="http://www.w3.org/2000/svg">
<path d="M9.34375 8.76562H13.6562" stroke="#18181B" stroke-width="1.5" stroke-linecap="round" stroke-linejoin="round"/>
<path d="M20.6281 14.3629L16.702 5.44146C16.2966 5.04039 15.7494 4.81543 15.1791 4.81543C14.6089 4.81543 14.0616 5.04039 13.6562 5.44146V15.5938" stroke="#18181B" stroke-width="1.5" stroke-linecap="round" stroke-linejoin="round"/>
<path d="M9.34394 15.5938V5.44146C8.93857 5.04039 8.39134 4.81543 7.82109 4.81543C7.25084 4.81543 6.70362 5.04039 6.29824 5.44146L2.37207 14.3629" stroke="#18181B" stroke-width="1.5" stroke-linecap="round" stroke-linejoin="round"/>
<path d="M5.75 19.1875C7.73477 19.1875 9.34375 17.5785 9.34375 15.5938C9.34375 13.609 7.73477 12 5.75 12C3.76523 12 2.15625 13.609 2.15625 15.5938C2.15625 17.5785 3.76523 19.1875 5.75 19.1875Z" stroke="#18181B" stroke-width="1.5" stroke-linecap="round" stroke-linejoin="round"/>
<path d="M17.25 19.1875C19.2348 19.1875 20.8438 17.5785 20.8438 15.5938C20.8438 13.609 19.2348 12 17.25 12C15.2652 12 13.6562 13.609 13.6562 15.5938C13.6562 17.5785 15.2652 19.1875 17.25 19.1875Z" stroke="#18181B" stroke-width="1.5" stroke-linecap="round" stroke-linejoin="round"/>
</svg>
