<svg width="23" height="24" viewBox="0 0 23 24" fill="none" xmlns="http://www.w3.org/2000/svg">
<path fill-rule="evenodd" clip-rule="evenodd" d="M4.945 6.6715C4.762 6.6715 4.5865 6.7442 4.4571 6.8736C4.3277 7.003 4.255 7.1785 4.255 7.3615C4.255 7.5445 4.3277 7.72001 4.4571 7.84941C4.5865 7.97881 4.762 8.0515 4.945 8.0515H18.745C19.111 8.0515 19.462 8.1969 19.7208 8.4557C19.9796 8.7145 20.125 9.06551 20.125 9.4315V19.0915C20.125 19.4575 19.9796 19.8085 19.7208 20.0673C19.462 20.3261 19.111 20.4715 18.745 20.4715H4.945C4.396 20.4715 3.86949 20.2534 3.48129 19.8652C3.09309 19.477 2.875 18.9505 2.875 18.4015V7.3615C2.875 6.81251 3.09309 6.28599 3.48129 5.89779C3.86949 5.50959 4.396 5.2915 4.945 5.2915H16.675C17.0561 5.2915 17.365 5.60043 17.365 5.9815C17.365 6.36258 17.0561 6.6715 16.675 6.6715H4.945ZM4.255 9.31312V18.4015C4.255 18.5845 4.3277 18.76 4.4571 18.8894C4.5865 19.0188 4.762 19.0915 4.945 19.0915H18.745V9.4315H4.945C4.70768 9.4315 4.47456 9.39075 4.255 9.31312Z" fill="#18181B"/>
<path d="M15.6405 15.2966C16.2121 15.2966 16.6755 14.8332 16.6755 14.2616C16.6755 13.6899 16.2121 13.2266 15.6405 13.2266C15.0689 13.2266 14.6055 13.6899 14.6055 14.2616C14.6055 14.8332 15.0689 15.2966 15.6405 15.2966Z" fill="#18181B"/>
</svg>
