<svg width="265" height="24" viewBox="0 0 265 24" fill="none" xmlns="http://www.w3.org/2000/svg">
<path d="M43.6502 18.6421C41.9591 18.6421 40.335 18.1799 38.9151 17.3026C37.4551 18.1699 35.5798 18.6421 33.5539 18.6421C31.5279 18.6421 29.6527 18.1699 28.1926 17.3026C26.7728 18.1833 25.1487 18.6421 23.4576 18.6421C22.7443 18.6421 22.0411 18.5583 21.3613 18.3943L21.8268 16.4621C22.3525 16.5893 22.9017 16.6529 23.4576 16.6529C24.5258 16.6529 25.5606 16.4152 26.5049 15.9631C25.4735 14.9183 24.7033 13.619 24.278 12.2025C24.2211 12.0251 24.1106 11.583 24.0838 11.4457C24.0168 11.0807 23.9867 10.7157 23.9867 10.3608C23.9867 7.60146 25.872 5.35449 28.1859 5.35449C30.4999 5.35449 32.3852 7.60146 32.3852 10.3608C32.3852 10.7157 32.3517 11.0807 32.2881 11.4424C32.2646 11.5797 32.1508 12.0217 32.0939 12.2025C31.6719 13.6123 30.9084 14.9016 29.8871 15.943C30.9319 16.4051 32.1943 16.6529 33.5572 16.6529C34.9201 16.6529 36.1826 16.4051 37.2274 15.943C36.206 14.9016 35.4425 13.6123 35.0206 12.2025C34.9637 12.0251 34.8532 11.583 34.8264 11.4491C34.7594 11.0807 34.7293 10.7191 34.7293 10.3641C34.7293 7.60481 36.6146 5.35784 38.9285 5.35784C41.2425 5.35784 43.1278 7.60481 43.1278 10.3641C43.1278 10.7191 43.0943 11.0841 43.0306 11.4457C43.0039 11.583 42.8934 12.0251 42.8364 12.2059C42.4145 13.6224 41.6409 14.9217 40.6095 15.9665C41.5505 16.4219 42.5853 16.6563 43.6568 16.6563C44.2127 16.6563 44.7619 16.5927 45.2877 16.4654L45.7531 18.3976C45.0733 18.5617 44.3668 18.6454 43.6568 18.6454L43.6502 18.6421ZM38.9218 7.34361C37.723 7.34361 36.7083 8.72661 36.7083 10.3641C36.7083 10.6019 36.7318 10.8463 36.7753 11.0941C36.7887 11.1645 36.8791 11.5127 36.9059 11.5931C36.9059 11.5998 36.9126 11.6165 36.916 11.6232C37.281 12.8522 37.9842 13.9673 38.9218 14.8246C39.8594 13.9673 40.5627 12.8555 40.9277 11.6232C40.9277 11.6132 40.9344 11.6031 40.9377 11.5931C40.9645 11.5127 41.0516 11.1645 41.0683 11.0841C41.1119 10.8463 41.1319 10.5985 41.1319 10.3608C41.1319 8.72327 40.1173 7.34026 38.9185 7.34026L38.9218 7.34361ZM28.1826 7.34361C26.9838 7.34361 25.9691 8.72661 25.9691 10.3641C25.9691 10.6019 25.9926 10.8463 26.0361 11.0941C26.0495 11.1645 26.1399 11.5127 26.1667 11.5931C26.1667 11.5998 26.1734 11.6165 26.1767 11.6232C26.5417 12.8522 27.245 13.9673 28.1826 14.8246C29.1202 13.9673 29.8234 12.8555 30.1885 11.6232C30.1885 11.6132 30.1952 11.6031 30.1985 11.5897C30.2253 11.5094 30.3124 11.1611 30.3291 11.0841C30.3726 10.843 30.3961 10.5985 30.3961 10.3608C30.3961 8.72327 29.3814 7.34026 28.1826 7.34026V7.34361Z" fill="#18181B"/>
<path d="M58.0327 5.36475C54.2186 5.36475 51.4492 8.11401 51.4492 11.9014C51.4492 15.6887 54.2588 18.7528 58.1298 18.7528C60.8691 18.7528 63.1093 17.4836 64.124 15.3572L64.1642 15.2768L62.3324 14.3459L62.2889 14.4263C61.5254 15.8595 59.9482 16.7536 58.1801 16.7536C55.7757 16.7536 54.0311 15.2132 53.7062 12.8189H64.5158L64.5225 12.7352C64.5459 12.464 64.5459 12.1659 64.5459 11.9282C64.5459 8.12741 61.8067 5.36809 58.0327 5.36809V5.36475ZM53.733 10.8633C54.1047 8.76701 55.7791 7.36391 57.9356 7.36391C60.0922 7.36391 61.8368 8.73352 62.2353 10.8633H53.7297H53.733Z" fill="#18181B"/>
<path d="M75.771 13.0632C75.771 15.1025 74.1301 16.7032 72.0338 16.7032C70.0748 16.7032 68.8057 15.3403 68.8057 13.2339V5.8501H66.6123V13.2339C66.6123 16.5056 68.6952 18.7057 71.7927 18.7057C73.3867 18.7057 74.7998 17.9388 75.6705 16.5994H75.771V18.2704H77.9643V5.8501H75.771V13.0632Z" fill="#18181B"/>
<path d="M86.4493 5.60931C85.0663 5.60931 83.7101 6.38285 83.1241 7.49796H83.0537V5.85041H80.9072V18.2673H83.1006V11.5867C83.1006 9.24597 84.3497 7.60847 86.1345 7.60847C86.5899 7.60847 87.2965 7.70223 87.916 7.96343L88.0433 8.01701V5.95757L87.993 5.93078C87.6146 5.72986 87.0253 5.60596 86.4493 5.60596V5.60931Z" fill="#18181B"/>
<path d="M95.3169 5.36475C91.5028 5.36475 88.7334 8.11401 88.7334 11.9014C88.7334 15.6887 91.5429 18.7528 95.414 18.7528C98.1532 18.7528 100.394 17.4836 101.408 15.3572L101.448 15.2768L99.6166 14.3459L99.5731 14.4263C98.8096 15.8595 97.2324 16.7536 95.4643 16.7536C93.0599 16.7536 91.3152 15.2132 90.9904 12.8189H101.8L101.807 12.7352C101.83 12.464 101.83 12.1659 101.83 11.9282C101.83 8.12741 99.0909 5.36809 95.3169 5.36809V5.36475ZM91.0172 10.8633C91.3889 8.76701 93.0632 7.36391 95.2198 7.36391C97.3764 7.36391 99.121 8.73352 99.5195 10.8633H91.0138H91.0172Z" fill="#18181B"/>
<path d="M110.094 5.36475C106.28 5.36475 103.511 8.11401 103.511 11.9014C103.511 15.6887 106.32 18.7528 110.191 18.7528C112.931 18.7528 115.171 17.4836 116.186 15.3572L116.226 15.2768L114.394 14.3459L114.35 14.4263C113.587 15.8595 112.01 16.7536 110.242 16.7536C107.837 16.7536 106.093 15.2132 105.768 12.8189H116.577L116.584 12.7352C116.607 12.464 116.607 12.1659 116.607 11.9282C116.607 8.12741 113.868 5.36809 110.094 5.36809V5.36475ZM105.795 10.8633C106.166 8.76701 107.841 7.36391 109.997 7.36391C112.154 7.36391 113.898 8.73352 114.297 10.8633H105.791H105.795Z" fill="#18181B"/>
<path d="M128.683 13.9107C128.204 15.6084 126.624 16.7503 124.748 16.7503C122.274 16.7503 120.479 14.7713 120.479 12.0454C120.465 10.6725 120.931 9.44351 121.785 8.5829C122.562 7.79931 123.623 7.36733 124.772 7.36733C126.64 7.36733 128.238 8.55276 128.656 10.2539L128.676 10.3343L130.816 10.0429L130.799 9.94916C130.334 7.29366 127.789 5.36816 124.748 5.36816C121.004 5.36816 118.285 8.17771 118.285 12.0488C118.272 13.9609 118.938 15.6921 120.161 16.9211C121.336 18.1032 122.963 18.7562 124.748 18.7562C127.719 18.7562 130.284 16.8508 130.846 14.2254L130.866 14.1283L128.703 13.837L128.683 13.914V13.9107Z" fill="#18181B"/>
<path d="M137.955 5.39153C134.808 5.39153 132.775 7.09266 132.775 9.72138V9.81179H134.995V9.71803C134.985 9.10187 135.176 8.58952 135.568 8.19103C136.084 7.66529 136.901 7.39069 137.929 7.39069C139.844 7.39069 141.036 8.3953 141.036 10.0127V10.4146L137.724 10.8164C134.192 11.2182 132.169 12.7687 132.169 15.0759C132.169 17.2157 133.967 18.6557 136.646 18.6557C138.565 18.6557 140.055 17.9022 140.963 16.4757H141.04V18.2672H143.233V10.0596C143.233 7.22326 141.164 5.38818 137.955 5.38818V5.39153ZM141.036 12.32V13.3078C141.036 15.3639 139.352 16.8005 136.937 16.8005C135.327 16.8005 134.366 16.1375 134.366 15.0257C134.366 13.7967 135.568 12.9696 137.748 12.695L141.036 12.32Z" fill="#18181B"/>
</svg>
