<svg width="76" height="20" viewBox="0 0 76 20" fill="none" xmlns="http://www.w3.org/2000/svg">
<g clip-path="url(#clip0_21834_190316)">
<path d="M10 20C15.5228 20 20 15.5228 20 10C20 4.47715 15.5228 0 10 0C4.47715 0 0 4.47715 0 10C0 15.5228 4.47715 20 10 20Z" fill="#F0F0F0"/>
<path d="M2.06742 3.91089C1.28191 4.93288 0.689609 6.11081 0.344727 7.39046H5.54699L2.06742 3.91089Z" fill="#0052B4"/>
<path d="M19.6563 7.39066C19.3114 6.11105 18.7191 4.93312 17.9336 3.91113L14.4541 7.39066H19.6563Z" fill="#0052B4"/>
<path d="M0.344727 12.6086C0.689649 13.8883 1.28195 15.0662 2.06742 16.0881L5.54688 12.6086H0.344727Z" fill="#0052B4"/>
<path d="M16.0879 2.06649C15.0659 1.28098 13.888 0.688672 12.6084 0.34375V5.54598L16.0879 2.06649Z" fill="#0052B4"/>
<path d="M3.91211 17.9314C4.9341 18.7169 6.11203 19.3092 7.39164 19.6541V14.4519L3.91211 17.9314Z" fill="#0052B4"/>
<path d="M7.3916 0.34375C6.11199 0.688672 4.93406 1.28098 3.91211 2.06644L7.3916 5.54593V0.34375Z" fill="#0052B4"/>
<path d="M12.6084 19.6541C13.888 19.3092 15.0659 18.7169 16.0879 17.9314L12.6084 14.4519V19.6541Z" fill="#0052B4"/>
<path d="M14.4541 12.6086L17.9336 16.0882C18.7191 15.0662 19.3114 13.8882 19.6563 12.6086H14.4541Z" fill="#0052B4"/>
<path d="M19.9154 8.69566H11.3044H11.3044V0.0846484C10.8774 0.0290625 10.4421 0 10 0C9.55785 0 9.12262 0.0290625 8.69566 0.0846484V8.69559V8.69563H0.0846484C0.0290625 9.12262 0 9.55793 0 10C0 10.4421 0.0290625 10.8774 0.0846484 11.3043H8.69559H8.69563V19.9154C9.12262 19.9709 9.55785 20 10 20C10.4421 20 10.8774 19.971 11.3043 19.9154V11.3044V11.3044H19.9154C19.9709 10.8774 20 10.4421 20 10C20 9.55793 19.9709 9.12262 19.9154 8.69566Z" fill="#D80027"/>
<path d="M12.6094 12.6094L17.0717 17.0718C17.277 16.8666 17.4727 16.6521 17.6595 16.4298L13.8391 12.6094H12.6094V12.6094Z" fill="#D80027"/>
<path d="M7.39109 12.6094H7.39102L2.92871 17.0717C3.13387 17.2769 3.34836 17.4727 3.5707 17.6595L7.39109 13.839V12.6094Z" fill="#D80027"/>
<path d="M7.39195 7.39093V7.39085L2.92961 2.92847C2.72438 3.13362 2.52859 3.34812 2.3418 3.57046L6.16223 7.39089H7.39195V7.39093Z" fill="#D80027"/>
<path d="M12.6094 7.39175L17.0718 2.92933C16.8666 2.72409 16.6521 2.52831 16.4298 2.34155L12.6094 6.16198V7.39175V7.39175Z" fill="#D80027"/>
</g>
<g clip-path="url(#clip1_21834_190316)">
<path d="M38 20C43.5228 20 48 15.5228 48 10C48 4.47715 43.5228 0 38 0C32.4772 0 28 4.47715 28 10C28 15.5228 32.4772 20 38 20Z" fill="#F0F0F0"/>
<path d="M33.6514 13.4773L34.5209 19.3771C35.6042 19.7791 36.776 19.9991 37.9992 19.9991C42.2988 19.9991 45.9643 17.2853 47.3771 13.4773H33.6514Z" fill="black"/>
<path d="M33.6514 6.52225L34.5209 0.622402C35.6042 0.22041 36.776 0.000488281 37.9992 0.000488281C42.2988 0.000488281 45.9643 2.71424 47.3771 6.52225H33.6514Z" fill="#6DA544"/>
<path d="M28 9.99983C28 14.2995 30.7138 17.9649 34.5218 19.3778V0.621826C30.7138 2.03476 28 5.70019 28 9.99983Z" fill="#A2001D"/>
</g>
<g clip-path="url(#clip2_21834_190316)">
<path d="M66 20C71.5228 20 76 15.5228 76 10C76 4.47715 71.5228 0 66 0C60.4772 0 56 4.47715 56 10C56 15.5228 60.4772 20 66 20Z" fill="#F0F0F0"/>
<path d="M65.5645 9.99982H75.9992C75.9992 9.0972 75.8789 8.22291 75.6547 7.39111H65.5645V9.99982Z" fill="#D80027"/>
<path d="M65.5645 4.78205H74.5315C73.9193 3.78314 73.1367 2.90021 72.2241 2.17334H65.5645V4.78205Z" fill="#D80027"/>
<path d="M66.0012 20.0001C68.3547 20.0001 70.5179 19.1866 72.2261 17.8262H59.7764C61.4846 19.1866 63.6478 20.0001 66.0012 20.0001Z" fill="#D80027"/>
<path d="M57.468 15.2164H74.5325C75.0239 14.4145 75.405 13.5379 75.6557 12.6077H56.3447C56.5954 13.5379 56.9765 14.4145 57.468 15.2164Z" fill="#D80027"/>
<path d="M66 10C66 4.47719 66 3.82609 66 0C60.4772 0 56 4.47719 56 10H66Z" fill="#0052B4"/>
<path d="M62.6498 8.55922C61.2841 8.55922 60.177 7.45207 60.177 6.08641C60.177 4.72074 61.2842 3.61359 62.6498 3.61359C63.0757 3.61359 63.4763 3.72129 63.8261 3.91082C63.2774 3.37422 62.5269 3.04297 61.6988 3.04297C60.0179 3.04297 58.6553 4.40559 58.6553 6.08645C58.6553 7.7673 60.0179 9.12992 61.6988 9.12992C62.5269 9.12992 63.2774 8.79867 63.8261 8.26207C63.4763 8.45152 63.0757 8.55922 62.6498 8.55922Z" fill="#FFDA44"/>
<path d="M63.3464 4.3479L63.7854 5.26595L64.7769 5.03688L64.3329 5.95247L65.1302 6.58477L64.1375 6.80856L64.1403 7.82618L63.3464 7.18954L62.5525 7.82618L62.5552 6.80856L61.5625 6.58477L62.3598 5.95247L61.9158 5.03688L62.9073 5.26595L63.3464 4.3479Z" fill="#FFDA44"/>
</g>
<defs>
<clipPath id="clip0_21834_190316">
<rect width="20" height="20" fill="white"/>
</clipPath>
<clipPath id="clip1_21834_190316">
<rect width="20" height="20" fill="white" transform="translate(28)"/>
</clipPath>
<clipPath id="clip2_21834_190316">
<rect width="20" height="20" fill="white" transform="translate(56)"/>
</clipPath>
</defs>
</svg>
