<svg width="224" height="76" viewBox="0 0 224 76" fill="none" xmlns="http://www.w3.org/2000/svg">
<rect x="0.5" y="0.5" width="223" height="75" rx="7.5" fill="#1E2F4D" stroke="#657799"/>
<path d="M17.5176 21H12.8594V13.9199H14.1191V19.9111H17.5176V21ZM19.1094 15.0723C18.8945 15.0723 18.7188 15.0039 18.582 14.8672C18.4486 14.7305 18.3818 14.5547 18.3818 14.3398C18.3818 14.1283 18.4486 13.9557 18.582 13.8223C18.7188 13.6888 18.8945 13.6221 19.1094 13.6221C19.3275 13.6221 19.5049 13.6888 19.6416 13.8223C19.7816 13.9557 19.8516 14.1283 19.8516 14.3398C19.8516 14.5547 19.7816 14.7305 19.6416 14.8672C19.5049 15.0039 19.3275 15.0723 19.1094 15.0723ZM19.6807 21H18.5527V15.9219H19.6807V21ZM23.9775 21H22.3662L20.5059 15.9219H21.6875L23.1182 20.0918H23.2158L24.6562 15.9219H25.8281L23.9775 21ZM28.9775 21.1807C28.167 21.1807 27.5029 20.9219 26.9854 20.4043C26.4678 19.8835 26.209 19.2161 26.209 18.4023C26.209 17.6243 26.4645 16.9847 26.9756 16.4834C27.4899 15.9821 28.1442 15.7314 28.9385 15.7314C29.7295 15.7314 30.3773 15.9821 30.8818 16.4834C31.3864 16.9847 31.6387 17.6276 31.6387 18.4121C31.6387 18.5944 31.6354 18.7262 31.6289 18.8076H27.3809C27.4427 19.2503 27.6201 19.6035 27.9131 19.8672C28.2093 20.1276 28.5788 20.2578 29.0215 20.2578C29.3503 20.2578 29.6449 20.1829 29.9053 20.0332C30.1689 19.8835 30.3708 19.6784 30.5107 19.418L31.458 19.7793C31.2725 20.2188 30.9583 20.5622 30.5156 20.8096C30.0762 21.057 29.5635 21.1807 28.9775 21.1807ZM27.3809 17.9678H30.4717C30.4066 17.5739 30.2308 17.2565 29.9443 17.0156C29.6611 16.7715 29.3161 16.6494 28.9092 16.6494C28.512 16.6494 28.1751 16.7699 27.8984 17.0107C27.625 17.2516 27.4525 17.5706 27.3809 17.9678ZM36.6777 21H35.418V13.9199H36.6777V21ZM39.6367 21H38.4062V13.9199H41.3652C42.179 13.9199 42.8285 14.1217 43.3135 14.5254C43.7985 14.929 44.0394 15.4808 44.0361 16.1807C44.0329 16.8708 43.7855 17.4209 43.2939 17.8311C42.8024 18.238 42.1562 18.4414 41.3555 18.4414H39.6367V21ZM39.6367 14.9404V17.4111H41.3066C41.7591 17.4111 42.1188 17.3005 42.3857 17.0791C42.6527 16.8577 42.7861 16.5583 42.7861 16.1807C42.7861 15.7998 42.651 15.4987 42.3809 15.2773C42.1139 15.0527 41.7559 14.9404 41.3066 14.9404H39.6367ZM48.7041 21.2197C47.9521 21.2197 47.2816 21.0635 46.6924 20.751C46.1064 20.4352 45.6491 19.9925 45.3203 19.4229C44.9948 18.8499 44.832 18.1956 44.832 17.46C44.832 16.7243 44.9948 16.07 45.3203 15.4971C45.6491 14.9242 46.1064 14.4798 46.6924 14.1641C47.2816 13.8483 47.9521 13.6904 48.7041 13.6904C49.264 13.6904 49.7832 13.7832 50.2617 13.9688C50.7402 14.151 51.1471 14.4066 51.4824 14.7354C51.821 15.0641 52.0846 15.4629 52.2734 15.9316C52.4655 16.4004 52.5615 16.9098 52.5615 17.46C52.5615 18.0101 52.4655 18.5195 52.2734 18.9883C52.0846 19.4538 51.821 19.8509 51.4824 20.1797C51.1471 20.5052 50.7402 20.7607 50.2617 20.9463C49.7832 21.1286 49.264 21.2197 48.7041 21.2197ZM46.8242 19.3984C47.3125 19.8997 47.9391 20.1504 48.7041 20.1504C49.4691 20.1504 50.0941 19.8997 50.5791 19.3984C51.0674 18.8971 51.3115 18.251 51.3115 17.46C51.3115 16.6689 51.0674 16.0212 50.5791 15.5166C50.0941 15.012 49.4691 14.7598 48.7041 14.7598C47.9391 14.7598 47.3125 15.012 46.8242 15.5166C46.3359 16.0212 46.0918 16.6689 46.0918 17.46C46.0918 18.251 46.3359 18.8971 46.8242 19.3984Z" fill="white"/>
<g opacity="0.5">
<rect x="131" y="39" width="79" height="21.0667" rx="10.5333" fill="#CCF65E"/>
<rect opacity="0.34" x="144.5" y="45.5334" width="52" height="8" rx="4" fill="#6DA544"/>
</g>
<rect x="11" y="35" width="26" height="26" rx="13" fill="#34486D"/>
<rect opacity="0.6" x="44" y="41" width="52" height="6" rx="3" fill="#34486D"/>
<rect opacity="0.2" x="44" y="51" width="28" height="4" rx="2" fill="#34486D"/>
<rect opacity="0.2" x="79" y="51" width="28" height="4" rx="2" fill="#34486D"/>
</svg>
